<svg width="26" height="22" viewBox="0 0 26 22" fill="none" xmlns="http://www.w3.org/2000/svg">
<path fill-rule="evenodd" clip-rule="evenodd" d="M25.0932 2.00957C25.4013 1.62524 25.4612 1.07653 25.202 0.622917C24.9444 0.172226 24.4461 -0.0547932 23.9615 0.0112697C23.9023 0.00400394 23.8417 0.000244138 23.7797 0.000244138H1.43647C0.0992876 0.000244138 -0.509784 1.66911 0.513031 2.53043L9.14303 9.7978L10.9573 20.6834C11.1765 21.9984 12.9148 22.3284 13.6007 21.1853L25.009 2.17143C25.041 2.1182 25.069 2.06416 25.0932 2.00957ZM19.4751 2.47198H4.2809L10.4233 7.64448L19.4751 2.47198ZM11.6478 9.79155L20.6362 4.65536L12.9319 17.4958L11.6478 9.79155Z" fill="#252525"/>
</svg>
