<svg width="26" height="25" viewBox="0 0 26 25" fill="none" xmlns="http://www.w3.org/2000/svg">
<path fill-rule="evenodd" clip-rule="evenodd" d="M16.309 0.955383C15.2113 0.363563 13.9624 0.0217223 12.6418 0.000986045C12.579 0 12.5068 0 12.3622 0C12.2177 0 12.1454 0 12.0827 0.000986045C8.10243 0.063484 4.77369 3.04285 4.27203 6.99182C4.26412 7.0541 4.25615 7.12588 4.2402 7.2694L4.24018 7.26959L3.87183 10.5848C3.77831 11.4264 3.73156 11.8472 3.64195 12.2568C3.51626 12.8313 3.3276 13.3902 3.07939 13.9234C2.90244 14.3035 2.68461 14.6665 2.24894 15.3926L1.01384 17.4511C0.208082 18.7941 -0.194795 19.4655 0.0924336 19.9728C0.379663 20.4801 1.16272 20.4801 2.72882 20.4801H21.9957C23.5618 20.4801 24.3448 20.4801 24.6321 19.9728C24.9193 19.4655 24.5164 18.7941 23.7107 17.4511L22.4755 15.3926L22.4755 15.3926C22.0399 14.6665 21.822 14.3035 21.6451 13.9234C21.3969 13.3902 21.2082 12.8313 21.0825 12.2568C20.9929 11.8472 20.9462 11.4264 20.8527 10.5848L20.8217 10.306C17.6967 10.1408 15.2137 7.55468 15.2137 4.38859C15.2137 3.10893 15.6193 1.92401 16.309 0.955383ZM18.6454 2.85818C18.3716 3.30342 18.2137 3.82757 18.2137 4.38859C18.2137 5.77803 19.1823 6.94125 20.481 7.23994C20.4672 7.11576 20.4598 7.04968 20.4525 6.99182C20.2527 5.41917 19.6045 4.00029 18.6454 2.85818Z" fill="#252525"/>
<path d="M7.97359 20.4802C7.97359 21.0565 8.08711 21.6271 8.30765 22.1596C8.5282 22.692 8.85146 23.1758 9.25898 23.5834C9.6665 23.9909 10.1503 24.3141 10.6827 24.5347C11.2152 24.7552 11.7859 24.8688 12.3622 24.8688C12.9385 24.8688 13.5092 24.7552 14.0416 24.5347C14.5741 24.3141 15.0579 23.9909 15.4654 23.5834C15.8729 23.1758 16.1962 22.692 16.4167 22.1596C16.6373 21.6271 16.7508 21.0565 16.7508 20.4802L12.3622 20.4802H7.97359Z" fill="#252525"/>
<circle cx="21.1394" cy="4.3885" r="3.42573" fill="#FF0000" stroke="#FF0000"/>
</svg>
