<svg width="46" height="46" viewBox="0 0 46 46" fill="none" xmlns="http://www.w3.org/2000/svg">
<g filter="url(#filter0_d_1287_1131)">
<rect x="4" width="38" height="38" rx="10" fill="#E51C21"/>
</g>
<path fill-rule="evenodd" clip-rule="evenodd" d="M17.9333 11.3158H29.0668C30.0744 11.3158 30.8867 11.3158 31.5255 11.4016C32.1887 11.4908 32.7472 11.6816 33.1907 12.1251C33.6342 12.5686 33.825 13.1271 33.9141 13.7903C34 14.4291 34 15.2413 34 16.249V24.0668C34 25.0745 34 25.8867 33.9141 26.5255C33.825 27.1887 33.6342 27.7472 33.1907 28.1907C32.7472 28.6342 32.1887 28.825 31.5255 28.9141C30.8867 29 30.0744 29 29.0667 29H17.9333C16.9256 29 16.1133 29 15.4745 28.9141C14.8113 28.825 14.2528 28.6342 13.8093 28.1907C13.3658 27.7472 13.175 27.1887 13.0859 26.5255C13 25.8867 13 25.0744 13 24.0668V16.249C13 15.2413 13 14.4291 13.0859 13.7903C13.175 13.1271 13.3658 12.5686 13.8093 12.1251C14.2528 11.6816 14.8113 11.4908 15.4745 11.4016C16.1133 11.3158 16.9256 11.3158 17.9333 11.3158ZM15.6218 12.4971C15.0811 12.5697 14.7948 12.7027 14.5909 12.9066C14.3869 13.1106 14.254 13.3969 14.1813 13.9376C14.1064 14.4941 14.1053 15.2318 14.1053 16.2895V24.0263C14.1053 25.084 14.1064 25.8217 14.1813 26.3782C14.254 26.9189 14.3869 27.2052 14.5909 27.4092C14.7948 27.6131 15.0811 27.746 15.6218 27.8187C16.1783 27.8936 16.916 27.8947 17.9737 27.8947H29.0263C30.084 27.8947 30.8217 27.8936 31.3782 27.8187C31.9189 27.746 32.2052 27.6131 32.4091 27.4092C32.6131 27.2052 32.746 26.9189 32.8187 26.3782C32.8936 25.8217 32.8947 25.084 32.8947 24.0263V16.2895C32.8947 15.2318 32.8936 14.4941 32.8187 13.9376C32.746 13.3969 32.6131 13.1106 32.4091 12.9066C32.2052 12.7027 31.9189 12.5697 31.3782 12.4971C30.8217 12.4222 30.084 12.4211 29.0263 12.4211H17.9737C16.916 12.4211 16.1783 12.4222 15.6218 12.4971Z" fill="white"/>
<path d="M13.5526 16.2895C13.5526 14.2054 13.5526 13.1633 14.2001 12.5159C14.8475 11.8684 15.8896 11.8684 17.9737 11.8684H29.0263C31.1104 11.8684 32.1525 11.8684 32.7999 12.5159C33.4474 13.1633 33.4474 14.2054 33.4474 16.2895H13.5526Z" fill="white"/>
<path fill-rule="evenodd" clip-rule="evenodd" d="M17.9737 8C18.2789 8 18.5263 8.24742 18.5263 8.55263L18.5263 11.8684C18.5263 12.1736 18.2789 12.4211 17.9737 12.4211C17.6685 12.4211 17.4211 12.1736 17.4211 11.8684L17.4211 8.55263C17.4211 8.24742 17.6685 8 17.9737 8Z" fill="white"/>
<path fill-rule="evenodd" clip-rule="evenodd" d="M29.0263 8C29.3315 8 29.5789 8.24742 29.5789 8.55263L29.5789 11.8684C29.5789 12.1736 29.3315 12.4211 29.0263 12.4211C28.7211 12.4211 28.4737 12.1736 28.4737 11.8684L28.4737 8.55263C28.4737 8.24742 28.7211 8 29.0263 8Z" fill="white"/>
<path d="M17.9737 19.6053C17.9737 19.0842 17.9737 18.8237 18.1355 18.6619C18.2974 18.5 18.5579 18.5 19.0789 18.5H21.2895C21.8105 18.5 22.071 18.5 22.2329 18.6619C22.3947 18.8237 22.3947 19.0842 22.3947 19.6053C22.3947 20.1263 22.3947 20.3868 22.2329 20.5487C22.071 20.7105 21.8105 20.7105 21.2895 20.7105H19.0789C18.5579 20.7105 18.2974 20.7105 18.1355 20.5487C17.9737 20.3868 17.9737 20.1263 17.9737 19.6053Z" fill="white"/>
<path d="M17.9737 24.0263C17.9737 23.5053 17.9737 23.2448 18.1355 23.0829C18.2974 22.9211 18.5579 22.9211 19.0789 22.9211H21.2895C21.8105 22.9211 22.071 22.9211 22.2329 23.0829C22.3947 23.2448 22.3947 23.5053 22.3947 24.0263C22.3947 24.5473 22.3947 24.8079 22.2329 24.9697C22.071 25.1316 21.8105 25.1316 21.2895 25.1316H19.0789C18.5579 25.1316 18.2974 25.1316 18.1355 24.9697C17.9737 24.8079 17.9737 24.5473 17.9737 24.0263Z" fill="white"/>
<path d="M24.6053 19.6053C24.6053 19.0842 24.6053 18.8237 24.7671 18.6619C24.929 18.5 25.1895 18.5 25.7105 18.5H27.9211C28.4421 18.5 28.7026 18.5 28.8645 18.6619C29.0263 18.8237 29.0263 19.0842 29.0263 19.6053C29.0263 20.1263 29.0263 20.3868 28.8645 20.5487C28.7026 20.7105 28.4421 20.7105 27.9211 20.7105H25.7105C25.1895 20.7105 24.929 20.7105 24.7671 20.5487C24.6053 20.3868 24.6053 20.1263 24.6053 19.6053Z" fill="white"/>
<path d="M24.6053 24.0263C24.6053 23.5053 24.6053 23.2448 24.7671 23.0829C24.929 22.9211 25.1895 22.9211 25.7105 22.9211H27.9211C28.4421 22.9211 28.7026 22.9211 28.8645 23.0829C29.0263 23.2448 29.0263 23.5053 29.0263 24.0263C29.0263 24.5473 29.0263 24.8079 28.8645 24.9697C28.7026 25.1316 28.4421 25.1316 27.9211 25.1316H25.7105C25.1895 25.1316 24.929 25.1316 24.7671 24.9697C24.6053 24.8079 24.6053 24.5473 24.6053 24.0263Z" fill="white"/>
<defs>
<filter id="filter0_d_1287_1131" x="0" y="0" width="46" height="46" filterUnits="userSpaceOnUse" color-interpolation-filters="sRGB">
<feFlood flood-opacity="0" result="BackgroundImageFix"/>
<feColorMatrix in="SourceAlpha" type="matrix" values="0 0 0 0 0 0 0 0 0 0 0 0 0 0 0 0 0 0 127 0" result="hardAlpha"/>
<feOffset dy="4"/>
<feGaussianBlur stdDeviation="2"/>
<feComposite in2="hardAlpha" operator="out"/>
<feColorMatrix type="matrix" values="0 0 0 0 0 0 0 0 0 0 0 0 0 0 0 0 0 0 0.25 0"/>
<feBlend mode="normal" in2="BackgroundImageFix" result="effect1_dropShadow_1287_1131"/>
<feBlend mode="normal" in="SourceGraphic" in2="effect1_dropShadow_1287_1131" result="shape"/>
</filter>
</defs>
</svg>
