<svg width="18" height="20" viewBox="0 0 18 20" fill="none" xmlns="http://www.w3.org/2000/svg">
<path d="M17.8916 5.51185C17.8921 8.3692 17.8921 11.2265 17.8956 14.0839C17.8956 14.1761 17.8519 14.2671 17.891 14.3593C17.7732 14.7147 17.5565 14.8806 17.1767 14.8869C16.6474 14.8956 16.1181 14.8869 15.5889 14.8898C14.7136 14.8939 14.1735 15.4394 14.1717 16.3185C14.1706 16.8278 14.1746 17.3364 14.1706 17.8457C14.1671 18.2933 13.9913 18.5272 13.562 18.6701C13.4488 18.6937 13.3339 18.6885 13.2189 18.6885C9.40085 18.6885 5.58333 18.6896 1.76524 18.6879C1.37677 18.6879 0.988293 18.6672 0.644642 18.4523C0.323403 18.2512 0.0785946 17.9909 0.0291732 17.5922C0.0257252 17.5628 0.0308972 17.5352 0.0441146 17.5093C-0.0139268 17.2258 0.0050372 16.9389 0.0050372 16.6532C0.0050372 12.9398 0.00561186 9.22583 0.0067612 5.51243C0.118821 5.42256 0.252719 5.44791 0.379146 5.44791C2.16176 5.44618 3.94438 5.44676 5.72757 5.44676C9.64393 5.44676 13.5603 5.44676 17.4766 5.44791C17.6169 5.44791 17.7651 5.41565 17.8916 5.51243V5.51185Z" fill="#F6FBFE"/>
<path d="M17.8915 5.5119C17.8272 5.51363 17.7628 5.51651 17.6984 5.51651C11.8656 5.51651 6.03328 5.51651 0.200403 5.51651C0.13604 5.51651 0.0716773 5.51363 0.0073146 5.5119C0.00673993 4.56425 0.00214259 3.61718 0.0073146 2.66953C0.0107626 2.00646 0.629105 1.38776 1.28997 1.38027C1.77672 1.37451 2.26403 1.37912 2.75078 1.37912C2.82951 1.44248 2.81456 1.53351 2.81686 1.61704C2.82204 1.82442 2.81054 2.03239 2.82146 2.2392C2.84732 2.71562 3.1835 3.04686 3.62829 3.03995C4.06734 3.03304 4.38915 2.70813 4.41386 2.2392C4.42478 2.03239 4.41386 1.82442 4.41846 1.61704C4.42018 1.53351 4.40582 1.44248 4.48455 1.37912C5.68388 1.37912 6.88321 1.37912 8.08254 1.37912C8.16127 1.44248 8.14633 1.53351 8.14863 1.61704C8.1538 1.82442 8.1423 2.03239 8.15322 2.2392C8.17908 2.71562 8.51526 3.04686 8.96006 3.03995C9.3991 3.03304 9.72034 2.70813 9.74563 2.2392C9.75655 2.03239 9.74563 1.82442 9.75022 1.61704C9.75195 1.53351 9.73758 1.44248 9.81631 1.37912C11.0156 1.37912 12.215 1.37912 13.4143 1.37912C13.493 1.44248 13.4781 1.53351 13.4804 1.61704C13.4856 1.82442 13.4741 2.03239 13.485 2.2392C13.5108 2.71562 13.847 3.04686 14.2918 3.03995C14.7309 3.03304 15.0521 2.70813 15.0774 2.2392C15.0883 2.03239 15.0774 1.82442 15.082 1.61704C15.0837 1.53351 15.0693 1.44248 15.1481 1.37912C15.6136 1.37912 16.079 1.39467 16.5439 1.37566C17.2163 1.34801 17.9157 2.05889 17.899 2.73578C17.876 3.66096 17.8921 4.58672 17.8915 5.51248V5.5119Z" fill="#005BAA"/>
<path d="M0.0446613 17.5087C0.160744 18.0831 0.634845 18.5255 1.21009 18.5825C1.69568 18.6304 2.18415 18.6027 2.67089 18.6039C6.24647 18.6125 9.82263 18.6154 13.3982 18.6194C13.4626 18.6194 13.5269 18.6148 13.5913 18.6119C13.9608 18.5497 14.282 18.3953 14.5493 18.1274C15.4992 17.1734 16.4508 16.2218 17.4002 15.2678C17.5628 15.1042 17.6921 14.9164 17.7766 14.6986C17.7979 14.6445 17.799 14.5638 17.891 14.5684C17.8915 15.9188 17.8973 17.2685 17.891 18.6188C17.8875 19.3994 17.291 19.9968 16.5106 19.9974C11.4667 20.0008 6.42289 20.0008 1.37904 19.9974C0.611283 19.9974 0.0188012 19.3983 0.00615856 18.6332C0.000986551 18.3101 0.00328522 17.9869 0.00615856 17.6637C0.00615856 17.6113 -0.0225748 17.5467 0.0440866 17.5093L0.0446613 17.5087Z" fill="#44394A"/>
<path d="M17.891 14.5684C17.7571 14.982 17.4658 15.2793 17.1669 15.5766C16.2986 16.4384 15.4395 17.3088 14.574 18.1729C14.3039 18.4426 13.9925 18.6309 13.5919 18.6119C13.9649 18.4679 14.1258 18.1983 14.1137 17.7956C14.0982 17.2656 14.108 16.7345 14.1103 16.2039C14.1137 15.4389 14.7206 14.8323 15.4872 14.8271C15.9733 14.8236 16.4612 14.8058 16.9463 14.8323C17.3658 14.8553 17.6864 14.7366 17.8916 14.3582C17.8916 14.4279 17.8916 14.4981 17.8916 14.5678L17.891 14.5684Z" fill="#A3BFD7"/>
<path d="M4.48398 1.37855C4.48168 1.65853 4.48053 1.93793 4.47651 2.2179C4.46846 2.72658 4.1024 3.10218 3.61681 3.10218C3.13121 3.10218 2.76458 2.726 2.7571 2.2179C2.75308 1.93793 2.75193 1.65853 2.74963 1.37855C2.75251 1.19939 2.75193 1.02023 2.75825 0.841074C2.77434 0.36581 3.14845 0 3.61681 0C4.08459 0 4.45869 0.364658 4.47536 0.841074C4.48168 1.02023 4.48111 1.19939 4.48398 1.37855Z" fill="#44394A"/>
<path d="M9.81638 1.37855C9.81408 1.65853 9.81293 1.93793 9.80891 2.2179C9.80086 2.72658 9.4348 3.10218 8.9492 3.10218C8.46361 3.10218 8.09697 2.726 8.0895 2.2179C8.08548 1.93793 8.08433 1.65853 8.08203 1.37855C8.0849 1.19939 8.08433 1.02023 8.09065 0.841074C8.10674 0.36581 8.48085 0 8.9492 0C9.41698 0 9.79109 0.364658 9.80776 0.841074C9.81408 1.02023 9.8135 1.19939 9.81638 1.37855Z" fill="#44394A"/>
<path d="M15.1487 1.37855C15.1464 1.65853 15.1452 1.93793 15.1412 2.2179C15.1331 2.72658 14.7671 3.10218 14.2815 3.10218C13.7959 3.10218 13.4292 2.726 13.4218 2.2179C13.4178 1.93793 13.4166 1.65853 13.4143 1.37855C13.4172 1.19939 13.4166 1.02023 13.4229 0.841074C13.439 0.36581 13.8131 0 14.2815 0C14.7493 0 15.1234 0.364658 15.14 0.841074C15.1464 1.02023 15.1458 1.19939 15.1487 1.37855Z" fill="#44394A"/>
<path d="M9.80885 14.9446C9.14856 15.156 8.48769 15.3646 7.8297 15.5818C7.70844 15.6215 7.62167 15.6111 7.51765 15.5316C6.60278 14.838 5.80802 14.0281 5.12819 13.1029C5.05405 13.0027 5.02762 12.9191 5.07015 12.7912C5.28622 12.1391 5.48965 11.4824 5.69768 10.8274C5.75515 10.8274 5.76549 10.8746 5.77641 10.9132C5.93502 11.4738 6.28614 11.9231 6.64186 12.3609C7.24411 13.1023 7.92624 13.7648 8.70721 14.3196C9.00029 14.5275 9.30257 14.7165 9.64852 14.8271C9.71173 14.8473 9.79506 14.8519 9.81 14.9446H9.80885Z" fill="#BF2027"/>
<path d="M9.80889 14.9446C8.79 14.6117 8.03144 13.9037 7.29644 13.1715C6.74419 12.6207 6.24308 12.0245 5.87472 11.3274C5.79024 11.1679 5.74771 10.9973 5.69714 10.8274C5.76553 10.5071 5.87299 10.4374 6.19538 10.5411C6.62236 10.6788 6.99244 10.9248 7.34357 11.1984C8.27912 11.9289 9.10607 12.763 9.75774 13.7614C9.89854 13.9774 10.0382 14.2032 10.0893 14.4561C10.1623 14.8156 10.1255 14.8997 9.80946 14.9446H9.80889Z" fill="#A3BFD7"/>
<path d="M8.69116 8.65901C8.67794 9.10662 8.49002 9.59687 8.10557 10.007C7.93489 10.1891 7.75387 10.211 7.59527 10.0762C7.43953 9.94309 7.44068 9.73512 7.59871 9.54329C8.14752 8.87792 8.1435 8.1728 7.58607 7.49879C7.43896 7.32136 7.44126 7.11454 7.59182 6.98205C7.74468 6.84724 7.93662 6.87029 8.10327 7.04253C8.4814 7.43484 8.69518 7.98154 8.69116 8.65843V8.65901Z" fill="#44394A"/>
<path d="M12.0948 11.9461C12.6413 11.9628 13.1367 12.1374 13.5499 12.5211C13.7395 12.6973 13.7631 12.8898 13.6194 13.0487C13.4867 13.1962 13.2884 13.1939 13.1034 13.0436C12.4339 12.4997 11.7535 12.5003 11.0771 13.0447C10.8938 13.1928 10.6909 13.1916 10.5605 13.043C10.4271 12.8915 10.449 12.6916 10.6237 12.5297C11.0357 12.1472 11.5276 11.9634 12.0954 11.9456L12.0948 11.9461Z" fill="#44394A"/>
<path d="M3.75122 16.8969C3.99775 16.1423 4.23049 15.4302 4.47817 14.6738C4.90975 15.2516 5.39764 15.7263 5.9384 16.2056C5.20111 16.4389 4.49771 16.6613 3.7518 16.8969H3.75122Z" fill="#BF2027"/>
<path d="M9.3094 11.6593C9.05022 11.6547 8.89276 11.3747 9.02494 11.1471C9.05654 11.0924 9.10309 11.0452 9.14849 10.9997C9.67891 10.4662 10.2105 9.9345 10.742 9.40162C10.7673 9.37628 10.7915 9.34978 10.819 9.32673C10.9805 9.19424 11.1679 9.19942 11.3006 9.33883C11.4322 9.47651 11.438 9.67238 11.2908 9.82158C10.7179 10.4034 10.1381 10.9789 9.5611 11.5567C9.49157 11.6264 9.40479 11.6541 9.30882 11.6587L9.3094 11.6593Z" fill="#44394A"/>
<path d="M9.98933 7.5869C10.1749 7.5915 10.3255 7.74762 10.3244 7.93312C10.3226 8.12726 10.1554 8.2851 9.9629 8.27416C9.77785 8.26379 9.63189 8.10249 9.63878 7.91699C9.64626 7.73091 9.80371 7.58229 9.98933 7.5869Z" fill="#463B4C"/>
<path d="M6.20054 8.27652C6.38616 8.27882 6.53844 8.43263 6.53959 8.61871C6.54074 8.81227 6.37524 8.97242 6.18215 8.96378C5.99653 8.95571 5.84884 8.79671 5.85401 8.61064C5.85919 8.42399 6.01435 8.27421 6.20054 8.27652Z" fill="#463B4C"/>
<path d="M14.1079 10.3412C14.1096 10.5267 13.9585 10.6834 13.7734 10.688C13.5798 10.6932 13.4183 10.5307 13.4223 10.3366C13.4263 10.1505 13.5815 9.99959 13.7671 10.0007C13.9527 10.0019 14.1062 10.1551 14.1079 10.3412Z" fill="#463B4C"/>
<path d="M12.388 13.7902C12.3892 13.9757 12.238 14.1318 12.053 14.1364C11.8593 14.141 11.6978 13.9785 11.703 13.7838C11.7076 13.5978 11.8628 13.4468 12.049 13.4491C12.2346 13.4509 12.3874 13.6041 12.3886 13.7902H12.388Z" fill="#463B4C"/>
</svg>
