<svg width="40" height="40" viewBox="0 0 40 40" fill="none" xmlns="http://www.w3.org/2000/svg">
<g filter="url(#filter0_d_1640_3408)">
<circle cx="20" cy="16" r="16" fill="white"/>
</g>
<path d="M22.2209 17.3355C22.2209 18.71 21.1027 19.8282 19.7282 19.8282C18.3536 19.8282 17.2358 18.71 17.2358 17.3355C17.2358 15.9609 18.3536 14.8428 19.7282 14.8428C21.1027 14.8428 22.2209 15.9614 22.2209 17.3355ZM27.4563 13.7959V20.8759C27.4563 21.8198 26.6911 22.585 25.7472 22.585H13.7091C12.7653 22.585 12 21.8198 12 20.8759V13.7959C12 12.8521 12.7653 12.0868 13.7091 12.0868H15.8113V11.4955C15.8113 10.6695 16.4804 10 17.3068 10H22.1495C22.9759 10 23.645 10.6695 23.645 11.4955V12.0864H25.7472C26.6911 12.0868 27.4563 12.8521 27.4563 13.7959ZM23.5027 17.3355C23.5027 15.2542 21.8094 13.5609 19.7282 13.5609C17.6473 13.5609 15.954 15.2542 15.954 17.3355C15.954 19.4167 17.6473 21.11 19.7282 21.11C21.8094 21.11 23.5027 19.4167 23.5027 17.3355Z" fill="#C1C1C1"/>
<defs>
<filter id="filter0_d_1640_3408" x="0" y="0" width="40" height="40" filterUnits="userSpaceOnUse" color-interpolation-filters="sRGB">
<feFlood flood-opacity="0" result="BackgroundImageFix"/>
<feColorMatrix in="SourceAlpha" type="matrix" values="0 0 0 0 0 0 0 0 0 0 0 0 0 0 0 0 0 0 127 0" result="hardAlpha"/>
<feOffset dy="4"/>
<feGaussianBlur stdDeviation="2"/>
<feComposite in2="hardAlpha" operator="out"/>
<feColorMatrix type="matrix" values="0 0 0 0 0 0 0 0 0 0 0 0 0 0 0 0 0 0 0.25 0"/>
<feBlend mode="normal" in2="BackgroundImageFix" result="effect1_dropShadow_1640_3408"/>
<feBlend mode="normal" in="SourceGraphic" in2="effect1_dropShadow_1640_3408" result="shape"/>
</filter>
</defs>
</svg>
