<svg width="29" height="29" viewBox="0 0 29 29" fill="none" xmlns="http://www.w3.org/2000/svg">
<g clip-path="url(#clip0_1152_996)">
<path d="M0 26.4246C0.906699 24.2879 1.81189 22.1511 2.72085 20.0151C4.13918 16.6833 5.57416 13.3578 6.97508 10.0183C7.50184 8.76257 8.65905 8.18163 10.0274 8.54866C10.2636 8.61176 10.4989 8.68178 10.7275 8.76796C10.8426 8.81105 10.8811 8.7895 10.9409 8.68101C11.3882 7.87 12.0611 7.25906 12.768 6.70582C13.3295 6.26646 14.0115 6.18336 14.707 6.36495C15.034 6.45036 15.3586 6.54577 15.7386 6.65196C15.6099 6.18028 15.4873 5.74785 15.3738 5.31233C15.1649 4.51287 15.4782 3.71418 16.1564 3.30098C17.0487 2.75697 18.2392 3.11708 18.6252 4.10044C18.9309 4.87913 19.1731 5.68937 19.3147 6.51884C19.4471 7.29368 19.2102 7.98004 18.6865 8.55328C18.3467 8.9257 17.9932 9.28734 17.6269 9.63283C16.9336 10.2861 16.1193 10.4585 15.2148 10.2045C14.9219 10.1222 14.6343 10.0199 14.2991 9.91291C14.4232 10.3646 14.5344 10.767 14.6434 11.1694C14.6714 11.2718 14.7585 11.3172 14.8281 11.3795C16.5499 12.9107 18.0727 14.6127 19.2049 16.6495C19.6424 17.4359 19.9989 18.2561 20.1321 19.1595C20.2259 19.7927 20.1146 20.4021 19.8573 20.9777C19.6658 21.4063 19.3162 21.6825 18.8961 21.8664C13.624 24.1732 8.34648 26.4685 3.08187 28.793C1.66127 29.4201 0.283817 28.5407 0.0522223 27.348C0.0476812 27.3257 0.0181643 27.3088 0 27.2895C0 27.0017 0 26.714 0 26.4262L0 26.4246Z" fill="#3C152C"/>
<path d="M25.4647 8.15547C25.5745 8.59483 25.6933 8.98648 25.7682 9.3866C25.9226 10.2176 25.6789 10.9401 25.1189 11.5518C24.8101 11.8881 24.4861 12.2113 24.1599 12.5298C23.4553 13.2177 22.6235 13.4278 21.6843 13.1692C21.1038 13.0092 20.5286 12.8307 19.9541 12.6506C19.1277 12.3913 18.6236 11.6711 18.6736 10.8393C18.7258 9.97677 19.301 9.33966 20.1691 9.17962C20.4272 9.13191 20.6754 9.17577 20.9229 9.24425C21.3558 9.36429 21.788 9.48586 22.255 9.6159C22.1611 9.32504 22.0733 9.06728 21.9946 8.80797C21.6828 7.78306 21.8796 6.88048 22.6303 6.11411C22.9164 5.82171 23.2003 5.52701 23.4916 5.24001C24.2023 4.54134 25.0371 4.32435 25.9892 4.59751C26.5765 4.76602 27.1638 4.93838 27.7466 5.12382C28.6889 5.42467 29.1975 6.38034 28.9296 7.32369C28.6677 8.24473 27.7345 8.7695 26.7877 8.52173C26.3608 8.41016 25.937 8.28551 25.4662 8.15393L25.4647 8.15547Z" fill="#3C152C"/>
<path d="M11.5479 0.243164C11.6735 0.265478 11.7197 0.374741 11.7591 0.481695C11.8953 0.847956 12.0346 1.21422 12.1541 1.58586C12.2041 1.73975 12.2957 1.82516 12.4304 1.88749C12.7218 2.02214 13.0116 2.15834 13.3008 2.29915C13.4256 2.35994 13.5815 2.40226 13.5853 2.58077C13.5899 2.77698 13.4211 2.82007 13.2879 2.88317C13.0321 3.00397 12.7763 3.12554 12.5129 3.22711C12.3123 3.30483 12.1867 3.43102 12.1201 3.64031C12.0081 3.99503 11.8839 4.3459 11.7575 4.696C11.7197 4.80142 11.6751 4.93222 11.5388 4.92684C11.4094 4.92222 11.3625 4.80526 11.3246 4.69139C11.2066 4.33897 11.0771 3.98964 10.9636 3.63569C10.9038 3.45025 10.807 3.33022 10.6185 3.25635C10.312 3.13555 10.0191 2.98012 9.72012 2.83854C9.61492 2.78852 9.51578 2.72927 9.51502 2.59154C9.51426 2.45381 9.61189 2.39302 9.7171 2.34224C10.0319 2.19142 10.346 2.0383 10.6639 1.89442C10.8221 1.82286 10.9122 1.71282 10.9644 1.54277C11.0734 1.18729 11.2058 0.838722 11.3239 0.486312C11.3625 0.371663 11.4102 0.273173 11.5464 0.245472L11.5479 0.243164Z" fill="#E8C2D6"/>
<path d="M21.645 3.7153e-05C22.3534 0.00542334 22.9331 0.601751 22.9293 1.32196C22.9255 2.03755 22.3352 2.63696 21.6328 2.63773C20.9184 2.63773 20.3243 2.02447 20.3349 1.2958C20.3447 0.57559 20.932 -0.00534903 21.645 3.7153e-05Z" fill="#3C162C"/>
<path d="M23.7302 15.7661C24.4529 15.7638 25.0266 16.3394 25.0289 17.0688C25.0312 17.7975 24.4575 18.3877 23.7423 18.393C23.0369 18.3977 22.4412 17.7998 22.4359 17.0819C22.4307 16.3617 23.0134 15.7692 23.7294 15.7669L23.7302 15.7661Z" fill="#3C162C"/>
<path d="M28.9334 14.0194C28.9311 14.0948 28.8857 14.1456 28.829 14.1802C28.7487 14.2295 28.667 14.2895 28.5785 14.3095C28.029 14.4349 27.7701 14.8158 27.6718 15.3467C27.6634 15.3929 27.6468 15.4391 27.6271 15.4829C27.5772 15.5922 27.556 15.753 27.4076 15.7469C27.2737 15.7407 27.2691 15.5868 27.2305 15.4829C27.2237 15.4652 27.2169 15.4475 27.2101 15.4291C27.0199 14.8704 26.6599 14.4737 26.1301 14.2387C26.0196 14.1903 25.9113 14.1487 25.9136 14.0117C25.9159 13.8848 26.0286 13.834 26.1263 13.8109C26.7953 13.6516 27.1117 13.183 27.2373 12.5359C27.257 12.4336 27.2888 12.3128 27.4122 12.3012C27.5484 12.2889 27.5613 12.4174 27.5961 12.5144C27.6188 12.5775 27.6649 12.6352 27.6725 12.699C27.7444 13.3292 28.1682 13.6139 28.6988 13.8048C28.8835 13.8709 28.9334 13.9317 28.9327 14.0187L28.9334 14.0194Z" fill="#C1B2D7"/>
<path d="M26.9898 2.41993C26.541 2.42301 26.1717 2.06367 26.1656 1.61816C26.1595 1.17341 26.5259 0.802536 26.9724 0.799458C27.4235 0.79638 27.7936 1.15495 27.8011 1.60046C27.8087 2.04059 27.4363 2.41685 26.9898 2.41993Z" fill="#99B3DE"/>
<path d="M21.5564 4.49593C21.5496 4.72291 21.3256 4.93836 21.1061 4.92913C20.8752 4.91913 20.6603 4.67829 20.6732 4.44437C20.686 4.22046 20.8851 4.02887 21.1046 4.0304C21.3377 4.03194 21.564 4.26509 21.5572 4.49593H21.5564Z" fill="#A9D9BF"/>
<path d="M1.87017 24.9834C2.26448 24.0439 2.65426 23.1021 3.05311 22.1649C4.49036 18.7878 5.92988 15.4114 7.3694 12.035C7.40648 11.9488 7.45038 11.865 7.48595 11.7919C8.86265 15.0967 11.1786 17.5989 13.9691 19.7003C14.0145 19.7342 14.0569 19.7727 14.1008 19.8081C14.1008 19.9927 13.938 20.002 13.8275 20.0504C12.4175 20.6737 11.0053 21.2931 9.593 21.9102C7.30506 22.9097 5.01788 23.9108 2.73145 24.9149C2.45294 25.0373 2.17063 25.1481 1.86865 24.9826L1.87017 24.9834Z" fill="#F6E06F"/>
<path d="M1.87011 24.9834C2.46575 25.0773 2.94332 24.7387 3.44662 24.521C5.75045 23.5261 8.04672 22.5135 10.346 21.507C11.5645 20.9738 12.783 20.4398 14.0008 19.9035C14.0402 19.8858 14.0682 19.8412 14.1015 19.8088C15.0271 20.4375 15.98 21.013 17.1122 21.3731C16.5483 21.6217 16.0397 21.8471 15.5296 22.0703C11.2224 23.9554 6.91599 25.8414 2.60803 27.7242C1.93217 28.0197 1.30172 27.715 1.15565 27.0371C1.12008 26.8724 1.1284 26.7093 1.19046 26.5562C1.40314 26.0253 1.61203 25.4928 1.87087 24.9827L1.87011 24.9834Z" fill="#DDA96B"/>
<path d="M15.6879 19.4472C14.626 18.8316 13.6732 18.0675 12.7793 17.2265C11.3883 15.9177 10.1523 14.478 9.21763 12.7898C8.96409 12.3312 8.72417 11.865 8.59399 11.3502C8.75899 11.0093 9.07232 10.9539 9.38414 10.9862C10.0305 11.0516 10.6223 11.2879 11.1468 11.6849C11.2013 11.858 11.2573 12.0304 11.3096 12.2043C11.6199 13.2277 12.4562 13.7217 13.4802 13.4862C13.8049 13.6439 14.0175 13.9348 14.2484 14.1933C14.9908 15.022 15.6902 15.8861 16.2116 16.8826C16.4515 17.3404 16.6506 17.8136 16.7233 18.3338C16.8322 19.1202 16.4614 19.5203 15.6864 19.4479L15.6879 19.4472Z" fill="#DDA96B"/>
<path d="M15.6879 19.4472C15.7121 19.4334 15.7371 19.4049 15.7598 19.4072C16.5371 19.4757 16.8012 18.8978 16.6226 18.1353C16.4387 17.3489 16.0421 16.668 15.6039 16.0093C14.9908 15.0875 14.2423 14.2811 13.4817 13.4863C13.9873 13.2939 14.1371 13.1769 14.5246 12.6683C15.2724 13.3278 15.9437 14.0603 16.5757 14.8305C16.8466 15.1614 17.0934 15.5122 17.356 15.8508C17.4362 15.9547 17.4445 15.9985 17.3083 16.0755C16.6143 16.4671 16.3834 17.2235 16.7391 17.8806C17.0933 18.5362 17.8555 18.7455 18.5427 18.3623C18.6835 18.2838 18.7289 18.2992 18.7751 18.45C18.9173 18.9155 19.0899 19.3757 18.987 19.8774C18.9189 20.2082 18.7569 20.3506 18.4284 20.3814C18.0462 20.4167 17.6799 20.3413 17.3189 20.2213C16.7444 20.0297 16.2025 19.7696 15.6886 19.4472H15.6879Z" fill="#F6E06F"/>
<path d="M12.6575 8.37549C12.9398 9.1965 13.1335 10.0106 13.3621 10.8139C13.4378 11.0794 13.518 11.344 13.5801 11.6134C13.6588 11.9565 13.4786 12.282 13.1789 12.3697C12.8512 12.4659 12.5273 12.2974 12.4206 11.9473C12.2351 11.3371 12.0641 10.7223 11.8915 10.1075C11.7553 9.62354 11.8825 9.19957 12.2026 8.83178C12.3328 8.68173 12.4826 8.54939 12.6575 8.37549Z" fill="#C1B2D7"/>
<path d="M17.3984 8.24015C17.082 7.28834 16.8497 6.35422 16.5916 5.42856C16.5454 5.26313 16.4962 5.09847 16.4659 4.92996C16.4084 4.60679 16.5704 4.3444 16.8769 4.24129C17.1516 4.14896 17.4862 4.26899 17.5808 4.55523C17.8162 5.26852 18.0614 5.98257 18.1885 6.72663C18.2544 7.11444 18.1212 7.46454 17.8631 7.75694C17.7253 7.91313 17.5747 8.05779 17.3984 8.24015Z" fill="#C1B2D7"/>
<path d="M11.1483 11.685C10.7442 11.5342 10.3778 11.2926 9.96082 11.1741C9.71787 11.1048 9.47341 11.0402 9.21684 11.0532C8.9686 11.0656 8.77485 11.1925 8.59472 11.3503C8.4494 10.9717 8.35934 10.5839 8.42216 10.1761C8.47968 9.80058 8.65451 9.6413 9.02233 9.61283C9.58543 9.56897 10.0971 9.76287 10.6087 9.9637C10.7025 10.0006 10.7222 10.0799 10.7449 10.1653C10.8781 10.6724 11.0136 11.1787 11.1483 11.685Z" fill="#F6E06F"/>
<path d="M15.9861 9.15037C15.6402 9.17422 15.367 9.0311 15.0816 8.94261C14.8841 8.88106 14.6866 8.82104 14.4936 8.74871C14.2938 8.67407 14.0122 8.68792 13.9108 8.50479C13.767 8.24549 13.7231 7.92924 13.6346 7.63839C13.5907 7.49527 13.7148 7.50912 13.7799 7.48911C14.0107 7.41832 14.2476 7.43371 14.4762 7.49681C14.9651 7.63069 15.4487 7.78381 15.9376 7.91308C16.0882 7.95309 16.1526 8.0385 16.1912 8.17624C16.2442 8.3686 16.3062 8.55866 16.3637 8.75025C16.4636 9.08112 16.4364 9.12113 16.0928 9.1496C16.0459 9.15344 15.9989 9.1496 15.9861 9.1496V9.15037Z" fill="#9281BC"/>
<path d="M17.8668 17.8606C17.5194 17.8599 17.2636 17.5952 17.2681 17.2405C17.2727 16.908 17.533 16.641 17.8577 16.6364C18.1998 16.631 18.467 16.8973 18.4685 17.2466C18.4708 17.6029 18.2172 17.8622 17.866 17.8606H17.8668Z" fill="#99B3DD"/>
<path d="M23.9087 6.49426C24.1153 6.27728 24.2682 6.07722 24.4574 5.92564C24.8222 5.63324 25.2415 5.57476 25.6865 5.71019C26.2451 5.87947 26.8044 6.0449 27.3614 6.21726C27.7383 6.33422 27.9275 6.64431 27.8344 6.97517C27.733 7.33374 27.422 7.4984 27.0299 7.3876C25.9976 7.09521 24.9675 6.79743 23.9087 6.49426Z" fill="#E8C2D6"/>
<path d="M23.752 11.2764C23.335 11.7712 22.9202 12.209 22.2512 12.0905C21.5291 11.962 20.8351 11.7127 20.1418 11.4741C19.8611 11.3772 19.746 11.0409 19.8331 10.7516C19.9163 10.4746 20.2122 10.2676 20.4938 10.3407C21.5761 10.6201 22.6515 10.9232 23.7512 11.2772L23.752 11.2764Z" fill="#E8C2D6"/>
<path d="M22.9929 7.94687C22.9929 7.92764 22.9922 7.9084 22.9929 7.88917C23.0088 7.44673 23.0489 7.41672 23.4599 7.54214C23.9251 7.68372 24.2223 7.99253 24.3514 8.46856C24.4317 8.76327 24.5149 9.05643 24.5914 9.3519C24.6247 9.48117 24.6572 9.61198 24.6686 9.74432C24.7125 10.2537 24.6209 10.3014 24.1494 10.1998C23.7081 10.1044 23.4765 9.88052 23.388 9.43423C23.3199 9.09028 23.1806 8.76096 23.0754 8.42471C23.027 8.27005 22.9816 8.11385 22.9922 7.94764L22.9929 7.94687Z" fill="#D688B6"/>
<path d="M21.6109 1.93139C21.2809 1.91754 21.0039 1.61284 21.0236 1.28659C21.0432 0.962648 21.3256 0.692569 21.6389 0.697955C21.9658 0.703341 22.2497 1.00112 22.2413 1.32968C22.233 1.66208 21.9363 1.94524 21.6109 1.93139Z" fill="#E8A284"/>
<path d="M23.7376 17.6828C23.394 17.6828 23.1238 17.4105 23.1284 17.0688C23.1329 16.7249 23.4076 16.4571 23.7497 16.4625C24.0714 16.4679 24.3431 16.7418 24.3476 17.0657C24.3529 17.4004 24.0744 17.6821 23.7376 17.6828Z" fill="#A8D8BD"/>
<path d="M7.02199 18.5485C7.01063 18.5885 6.99323 18.684 6.9569 18.7701C6.73287 19.308 6.50885 19.8458 6.2765 20.3791C6.1327 20.7084 5.82996 20.8423 5.54009 20.7222C5.22827 20.5937 5.09128 20.2837 5.22751 19.9436C5.45456 19.3765 5.69448 18.814 5.945 18.2569C6.07291 17.973 6.34083 17.8514 6.59361 17.9222C6.85321 17.9945 7.02804 18.2269 7.02274 18.5478L7.02199 18.5485Z" fill="white"/>
<path d="M8.04446 16.1439C7.97256 16.4033 7.87417 16.7334 7.65091 16.9973C7.48667 17.1919 7.18545 17.2173 6.98034 17.0742C6.76388 16.9234 6.63144 16.7164 6.72377 16.4394C6.7987 16.2147 6.88271 15.9885 6.99775 15.7831C7.12868 15.5484 7.34438 15.4345 7.6176 15.503C7.89007 15.5715 8.04674 15.7854 8.04446 16.1432V16.1439Z" fill="#FFFFFE"/>
</g>
<defs>
<clipPath id="clip0_1152_996">
<rect width="29" height="29" fill="white"/>
</clipPath>
</defs>
</svg>
