<svg width="48" height="51" viewBox="0 0 48 51" fill="none" xmlns="http://www.w3.org/2000/svg">
<g filter="url(#filter0_d_1640_3184)">
<path d="M4 0H24C35.0457 0 44 8.95431 44 20V23C44 34.0457 35.0457 43 24 43H4V0Z" fill="white"/>
</g>
<path fill-rule="evenodd" clip-rule="evenodd" d="M21.5122 28.4998C21.8751 28.4985 22.2218 28.353 22.4722 28.097L27.6189 22.8992C28.127 22.3939 28.127 21.5853 27.6189 21.08L22.2855 15.8822C21.9473 15.5526 21.4543 15.4238 20.9923 15.5445C20.5303 15.6651 20.1694 16.0168 20.0456 16.4671C19.9219 16.9174 20.0539 17.3978 20.3922 17.7274L24.7922 22.0026L20.5522 26.2908C20.0352 26.7976 20.0352 27.6162 20.5522 28.123C20.807 28.3695 21.1531 28.5053 21.5122 28.4998Z" fill="#E51C21"/>
<defs>
<filter id="filter0_d_1640_3184" x="0" y="0" width="48" height="51" filterUnits="userSpaceOnUse" color-interpolation-filters="sRGB">
<feFlood flood-opacity="0" result="BackgroundImageFix"/>
<feColorMatrix in="SourceAlpha" type="matrix" values="0 0 0 0 0 0 0 0 0 0 0 0 0 0 0 0 0 0 127 0" result="hardAlpha"/>
<feOffset dy="4"/>
<feGaussianBlur stdDeviation="2"/>
<feComposite in2="hardAlpha" operator="out"/>
<feColorMatrix type="matrix" values="0 0 0 0 0 0 0 0 0 0 0 0 0 0 0 0 0 0 0.25 0"/>
<feBlend mode="normal" in2="BackgroundImageFix" result="effect1_dropShadow_1640_3184"/>
<feBlend mode="normal" in="SourceGraphic" in2="effect1_dropShadow_1640_3184" result="shape"/>
</filter>
</defs>
</svg>
