<svg width="61" height="72" viewBox="0 0 61 72" fill="none" xmlns="http://www.w3.org/2000/svg">
<path d="M60.6028 68.8956C60.3896 67.7229 60.4452 66.5317 60.3849 65.3544C60.1902 61.79 60.0048 58.2255 59.8241 54.6611C59.6433 51.1198 59.4625 47.574 59.2818 44.0327C59.1427 41.3536 58.9851 38.6745 58.8785 35.9954C58.7533 32.8388 58.517 29.6823 58.4289 26.5211C58.4011 25.6126 58.2991 24.7088 58.2991 23.7957C58.2991 23.3275 58.1276 22.9103 57.8819 22.5117C56.8993 20.9265 55.9074 19.3413 55.0128 17.7051C54.4287 16.639 53.6825 16.1199 52.4449 16.2311C51.6059 16.3099 51.5781 16.2033 51.7589 15.3921C51.9211 14.6598 52.1204 13.9321 52.2549 13.1951C52.4588 12.0548 52.0695 11.4708 50.9663 11.1695C50.7902 11.1232 50.6094 11.0907 50.4333 11.049C47.4853 10.3862 44.5513 9.64455 41.5987 8.99563C41.0749 8.87975 40.7921 8.60628 40.6299 8.08714C39.8744 5.64442 38.4004 3.72547 36.2312 2.37664C35.0214 1.62574 33.7467 1.04635 32.2727 1.06953C32.0178 1.03708 31.749 1.14369 31.5079 1H29.5983C28.7037 1.12515 27.7998 1.18541 26.9562 1.56549C25.3571 2.28394 23.9341 3.23878 22.8402 4.63396C22.576 4.97232 22.2747 5.23189 21.8344 5.26897C20.5875 5.38021 19.3546 5.57489 18.1124 5.71394C15.2664 6.03377 12.425 6.3675 9.57907 6.71977C8.32294 6.87737 7.91968 7.47067 8.06801 8.74533C8.33221 11.0073 8.60105 13.2692 8.86062 15.5312C8.8977 15.8696 8.92551 16.2079 8.462 16.2311C7.62303 16.2728 7.17806 16.8012 6.78871 17.4594C5.82923 19.0863 4.87439 20.7179 3.86856 22.317C3.48848 22.9196 3.30771 23.5454 3.32162 24.2545C3.34479 25.5987 3.22428 26.9383 3.14085 28.2778C3.00643 30.4564 2.91372 32.6395 2.79784 34.818C2.68197 37.0197 2.5939 39.2261 2.47338 41.4324C2.30188 44.4962 2.15356 47.5647 1.98669 50.6332C1.86618 52.858 1.7503 55.0875 1.6576 57.3124C1.61588 58.309 1.60661 59.3148 1.51854 60.3113C1.33314 62.513 1.28215 64.7194 1.16164 66.9211C1.11529 67.8064 0.994773 68.6871 1.00868 69.577C1.02258 70.2862 1.29142 70.81 2.02378 71H59.6062C60.3386 70.8053 60.612 70.2862 60.6167 69.577C60.6167 69.3499 60.6399 69.1181 60.5981 68.8956H60.6028ZM50.6326 19.2208C50.7067 18.8639 50.8921 18.8129 51.2305 18.7712C52.241 18.646 52.9131 18.9334 53.3488 19.9299C53.701 20.7457 54.2433 21.4781 54.7393 22.3078H49.9373C50.1783 21.251 50.424 20.2405 50.6372 19.2254L50.6326 19.2208ZM49.1493 13.4083C49.4738 13.4825 49.5433 13.5937 49.4691 13.9089C48.8341 16.5787 48.213 19.2532 47.5965 21.9323C47.5317 22.2151 47.4297 22.3449 47.1052 22.3449C45.0843 22.3309 43.0634 22.3263 41.0424 22.3449C40.6253 22.3495 40.5743 22.1316 40.5048 21.8211C39.8744 19.1466 39.2301 16.4814 38.5905 13.8069C38.2753 12.4952 37.8257 12.2217 36.4954 12.5508C36.0782 12.6528 35.6564 12.7501 35.1187 12.8799C35.3088 12.0317 35.4803 11.2854 35.6471 10.5391C35.712 10.2425 35.9067 10.2935 36.1199 10.3445C40.4631 11.3688 44.8062 12.3978 49.154 13.4083H49.1493ZM38.1826 22.3356H35.6147C30.7756 22.3356 25.9365 22.3263 21.102 22.3495C20.5644 22.3495 20.3604 22.1965 20.277 21.6681C20.1611 20.9543 19.9757 20.2451 19.7625 19.5545C19.6327 19.1327 19.7857 19.0122 20.1565 18.9241C23.2203 18.1964 26.2841 17.4594 29.3433 16.7224C31.5219 16.1986 33.705 15.6702 35.8835 15.1465C36.1292 15.0862 36.4212 14.9101 36.5232 15.3504C37.0701 17.6634 37.6217 19.9763 38.1826 22.3356ZM37.9369 8.33744C37.0887 8.14276 36.2775 7.95736 35.471 7.76732C34.3447 7.50311 33.858 7.79049 33.5891 8.92147C33.2554 10.312 32.9031 11.7026 32.625 13.107C32.4906 13.7745 31.9622 13.6632 31.5728 13.7142C31.114 13.7791 31.2716 13.311 31.2437 13.0699C30.9471 10.655 30.6783 8.23083 30.3909 5.81592C30.2843 4.94451 29.7559 4.54589 28.8845 4.64786C28.0362 4.7452 27.188 4.8379 26.3027 4.93988C30.122 1.83896 36.2775 3.61422 37.9415 8.34207L37.9369 8.33744ZM11.3404 9.0837C16.7126 8.46722 22.0801 7.82757 27.4476 7.17865C27.9713 7.11376 28.1892 7.17865 28.2448 7.79513C28.4209 9.76506 28.662 11.735 28.9308 13.6957C29.005 14.238 28.8798 14.4234 28.3421 14.5485C24.9631 15.3365 21.5887 16.1616 18.219 16.9774C17.1992 17.223 16.9119 17.7004 17.1436 18.7063C17.4217 19.8975 17.7045 21.0934 17.9965 22.3402C16.1656 22.3402 14.3718 22.3263 12.578 22.3495C12.1099 22.3541 12.2118 22.0204 12.184 21.7979C11.9291 19.7863 11.6973 17.7746 11.4609 15.7629C11.2292 13.7976 11.0113 11.8277 10.761 9.8624C10.6961 9.37108 10.7888 9.14859 11.3404 9.0837ZM8.89306 18.9566C8.9904 18.7943 9.13873 18.7665 9.30096 18.799C9.47246 18.8314 9.47709 18.9936 9.491 19.1188C9.60224 20.0875 9.70422 21.0563 9.82009 22.025C9.8479 22.2661 9.77838 22.3449 9.53735 22.3402C8.68448 22.3309 7.83161 22.3402 6.87214 22.3402C7.57668 21.1583 8.23487 20.0597 8.88843 18.9612L8.89306 18.9566ZM57.2052 68.6639C48.4031 68.6361 39.6056 68.6453 30.8034 68.6453C22.0013 68.6453 13.2038 68.6361 4.40161 68.6639C3.74341 68.6639 3.63217 68.4646 3.66462 67.8666C4.07251 60.3392 4.46186 52.807 4.84658 45.2749C5.14323 39.5412 5.42597 33.8076 5.71335 28.0739C5.7597 27.1191 5.82923 26.1642 5.84777 25.2047C5.85704 24.8293 6.00537 24.7273 6.3391 24.7644C6.47352 24.7783 6.61257 24.7644 6.74699 24.7644C22.8031 24.7644 38.8593 24.769 54.9154 24.7459C55.6478 24.7459 55.7776 24.9683 55.8054 25.6451C56.0789 31.4946 56.3941 37.3396 56.6953 43.1845C56.941 47.9401 57.1774 52.6958 57.4231 57.4515C57.5992 60.9093 57.7661 64.3671 57.9746 67.8249C58.0117 68.4599 57.9005 68.6592 57.2052 68.6592V68.6639Z" fill="url(#paint0_radial_1231_982)" stroke="url(#paint1_radial_1231_982)" stroke-width="0.5"/>
<path d="M43.1423 29.8491C42.7344 28.2083 41.3438 27.1097 39.6844 27.1097C38.0899 27.1097 36.6762 28.199 36.2683 29.7332C35.8326 31.3833 36.5279 32.9917 38.0853 33.8122C38.4283 33.9929 38.5164 34.1922 38.5071 34.5492C38.4839 35.3 38.5025 36.0509 38.5025 36.8018H38.4932C38.4932 37.4183 38.5117 38.0301 38.4932 38.6466C38.3402 42.6468 35.3042 45.7569 31.2577 46.0814C27.5496 46.378 24.0176 43.6433 23.2853 39.861C22.9562 38.1507 23.1972 36.4078 23.1231 34.6789C23.1045 34.2154 23.2389 33.9744 23.67 33.7473C25.0281 33.0288 25.728 31.4529 25.4175 29.9974C25.0837 28.4169 23.8044 27.2442 22.2795 27.1236C20.6803 26.9939 19.2388 27.8745 18.6501 29.3392C18.0661 30.7947 18.3859 32.5329 19.7162 33.3626C20.7174 33.9883 20.8472 34.716 20.7452 35.694C20.7267 35.8748 20.7452 36.0602 20.7452 36.241C20.7452 37.8772 20.6803 39.518 21.1299 41.1218C22.4278 45.7338 26.8312 48.793 31.6749 48.4314C36.3842 48.0791 40.2916 44.2552 40.8108 39.5088C40.9869 37.8726 40.8664 36.2317 40.8942 34.5955C40.8988 34.234 40.9452 34.0022 41.3299 33.8029C42.8271 33.0288 43.5455 31.4158 43.1562 29.8491H43.1423ZM22.9886 31.1933C22.0987 30.4795 21.7696 30.4795 20.8843 31.1748C20.5969 30.5954 20.7545 30.1087 21.2226 29.7286C21.6305 29.3995 22.1033 29.3763 22.5437 29.6683C23.0906 30.0252 23.2158 30.5351 22.9886 31.1933ZM40.7366 31.1933C39.9069 30.4934 39.4851 30.4795 38.6415 31.1052C38.3727 30.5444 38.5349 30.0855 38.9753 29.7332C39.411 29.3856 39.9069 29.3671 40.3612 29.7008C40.8525 30.0623 41.0101 30.549 40.7366 31.1933Z" fill="url(#paint2_radial_1231_982)" stroke="url(#paint3_radial_1231_982)" stroke-width="0.5"/>
<defs>
<radialGradient id="paint0_radial_1231_982" cx="0" cy="0" r="1" gradientUnits="userSpaceOnUse" gradientTransform="translate(30.8153 36.6048) rotate(-90) scale(32.6944 60.2423)">
<stop stop-color="#E21118"/>
<stop offset="1" stop-color="#AE0F13"/>
</radialGradient>
<radialGradient id="paint1_radial_1231_982" cx="0" cy="0" r="1" gradientUnits="userSpaceOnUse" gradientTransform="translate(30.8153 36.6048) rotate(-90) scale(32.6944 60.2423)">
<stop stop-color="#E21118"/>
<stop offset="1" stop-color="#AE0F13"/>
</radialGradient>
<radialGradient id="paint2_radial_1231_982" cx="0" cy="0" r="1" gradientUnits="userSpaceOnUse" gradientTransform="translate(30.8156 37.9695) rotate(-90) scale(9.97208 25.1517)">
<stop stop-color="#E21118"/>
<stop offset="1" stop-color="#AE0F13"/>
</radialGradient>
<radialGradient id="paint3_radial_1231_982" cx="0" cy="0" r="1" gradientUnits="userSpaceOnUse" gradientTransform="translate(30.8156 37.9695) rotate(-90) scale(9.97208 25.1517)">
<stop stop-color="#E21118"/>
<stop offset="1" stop-color="#AE0F13"/>
</radialGradient>
</defs>
</svg>
