<svg width="53" height="72" viewBox="0 0 53 72" fill="none" xmlns="http://www.w3.org/2000/svg">
<path d="M30.8465 1.12058H16.6384C16.5909 1.09501 16.5744 1.06943 16.589 1.04202C16.6036 1.01462 16.6183 1.00183 16.6347 1.00183H30.852C30.8976 1.02924 30.9123 1.05664 30.8958 1.08222C30.8794 1.10779 30.8647 1.12058 30.8483 1.12058H30.8465Z" fill="url(#paint0_radial_1231_911)" stroke="url(#paint1_radial_1231_911)"/>
<path d="M12.4017 1.11876H8.16506C8.11573 1.09501 8.09928 1.07126 8.1139 1.04385C8.12851 1.01645 8.14313 1.00183 8.15957 1.00183H12.3981C12.4419 1.02558 12.4565 1.05116 12.4437 1.07856C12.431 1.10597 12.4182 1.11876 12.4036 1.11876H12.4017Z" fill="url(#paint2_radial_1231_911)" stroke="url(#paint3_radial_1231_911)"/>
<path d="M12.4018 1.11876C12.3982 1.08039 12.3964 1.0402 12.3964 1.00183H16.6349C16.6349 1.0402 16.6349 1.08039 16.6385 1.11876C15.2263 1.11876 13.8141 1.11876 12.4018 1.11876Z" fill="url(#paint4_radial_1231_911)" stroke="url(#paint5_radial_1231_911)"/>
<path d="M8.15778 1.00183C8.15778 1.04019 8.16144 1.08039 8.16509 1.11875C7.00499 1.12606 5.84487 1.13519 4.68659 1.14067C4.54957 1.14067 4.41071 1.14798 4.33215 1H8.15961L8.15778 1.00183Z" fill="url(#paint6_radial_1231_911)" stroke="url(#paint7_radial_1231_911)"/>
<path d="M36.448 1.11876L33.5797 1.12241C33.5377 1.09501 33.5249 1.0676 33.5395 1.0402C33.5541 1.01462 33.5687 1.00183 33.5833 1.00183H36.4535C36.4991 1.03106 36.5138 1.05664 36.4973 1.08222C36.4809 1.10597 36.4645 1.11876 36.448 1.11876Z" fill="url(#paint8_radial_1231_911)" stroke="url(#paint9_radial_1231_911)"/>
<path d="M33.5853 1.00183C33.5853 1.04202 33.5853 1.08222 33.5816 1.12241C32.67 1.12241 31.7583 1.12241 30.8485 1.12058C30.8522 1.08039 30.8522 1.04202 30.8522 1.00183H33.5853Z" fill="url(#paint10_radial_1231_911)" stroke="url(#paint11_radial_1231_911)"/>
<path d="M36.4481 1.11876C36.4518 1.08039 36.4536 1.0402 36.4554 1.00183H39.1885C39.2342 1.03106 39.2488 1.06029 39.2305 1.08587C39.2141 1.11145 39.1977 1.12424 39.1812 1.12424L36.4463 1.11876H36.4481Z" fill="url(#paint12_radial_1231_911)" stroke="url(#paint13_radial_1231_911)"/>
<path d="M39.183 1.12424C39.1866 1.08404 39.1884 1.04202 39.1903 1.00183H41.9234C41.9691 1.03289 41.9837 1.06212 41.9672 1.08952C41.9508 1.11693 41.9344 1.13154 41.9179 1.13154L39.183 1.12424Z" fill="url(#paint14_radial_1231_911)" stroke="url(#paint15_radial_1231_911)"/>
<path d="M41.9178 1.13154C41.9215 1.0877 41.9233 1.04568 41.9233 1.00183H44.3842C43.5749 1.29414 42.74 1.06943 41.9178 1.13154Z" fill="url(#paint16_radial_1231_911)" stroke="url(#paint17_radial_1231_911)"/>
<path d="M0.897581 41.3681C0.897581 34.603 0.897581 27.8378 0.897581 21.0726C0.897581 20.8443 0.884781 20.6159 0.908531 20.3894C0.963339 19.8376 1.29037 19.5161 1.83115 19.4668C2.38105 19.4156 2.75191 19.7043 2.89259 20.2286C2.96201 20.4862 2.94557 20.7694 2.94557 21.0416C2.9474 34.4806 2.94558 47.9195 2.9474 61.3603C2.9474 63.1836 3.57769 63.8139 5.40829 63.8139C13.8122 63.8139 22.218 63.8139 30.6219 63.8176C30.916 63.8176 31.2212 63.8121 31.5025 63.8852C32.0067 64.0167 32.2479 64.3894 32.2205 64.9046C32.1949 65.3906 31.9263 65.714 31.4495 65.8163C31.2084 65.8674 30.9526 65.8638 30.7023 65.8638C22.2289 65.8656 13.7556 65.8272 5.28407 65.8875C2.51625 65.9076 0.837285 63.876 0.868343 61.459C0.956037 54.7633 0.897581 48.0657 0.897581 41.3681Z" fill="url(#paint18_radial_1231_911)" stroke="url(#paint19_radial_1231_911)"/>
<path d="M26.3359 17.4024C29.4107 17.4024 32.4836 17.4024 35.5583 17.4024C35.763 17.4024 35.9712 17.3841 36.1722 17.4133C36.7185 17.4919 37.0382 17.8299 37.0692 18.3688C37.1003 18.9132 36.797 19.275 36.2781 19.4193C36.0863 19.4723 35.8708 19.4522 35.668 19.4522C29.4509 19.4522 23.2356 19.4522 17.0185 19.4522C16.8596 19.4522 16.697 19.4632 16.5417 19.4431C15.9699 19.37 15.5552 18.9114 15.6063 18.3743C15.6611 17.8061 15.9827 17.4608 16.5691 17.4078C16.7719 17.3896 16.9783 17.4005 17.1829 17.4005C20.2339 17.4005 23.2849 17.4005 26.3359 17.4005V17.4024Z" fill="url(#paint20_radial_1231_911)" stroke="url(#paint21_radial_1231_911)"/>
<path d="M51.7814 9.81134C51.7814 8.17075 51.7961 6.53016 51.7723 4.89139C51.7486 3.1832 50.6305 1.73078 49.0246 1.20097C48.7999 1.12606 48.513 1.2576 48.3468 1.00183H48.2098C47.9759 1.27587 47.6197 1.02558 47.3493 1.07308C47.0278 1.03106 46.7245 1.26491 46.4322 1.00183H44.3823C43.5529 1.15712 42.7143 1.03289 41.8813 1.07308C40.9788 1.07308 40.0762 1.07308 39.1737 1.07308C38.2639 1.07308 37.3523 1.07308 36.4425 1.07308C35.4851 1.07308 34.5278 1.07308 33.5705 1.07308C32.6479 1.07308 31.7271 1.07308 30.8045 1.07308C26.0837 1.07308 21.3647 1.07308 16.6439 1.07308C15.2262 1.07308 13.8085 1.07308 12.3907 1.07308C10.9858 1.07308 9.58092 1.07308 8.176 1.07308C6.89349 1.02924 5.60914 1.16077 4.33028 1.00183H4.19326C4.13663 1.1827 3.9722 1.1151 3.85162 1.14799C2.13247 1.61203 0.915731 3.11195 0.906596 4.88774C0.884673 8.6695 0.89565 12.4494 0.899304 16.2312C0.899304 16.9255 1.29392 17.3749 1.87488 17.3968C2.48508 17.4206 2.92354 16.9583 2.94181 16.2367C2.95825 15.5534 2.99298 14.8665 2.93269 14.1887C2.87606 13.5529 3.09711 13.4232 3.70548 13.425C18.7832 13.4433 33.861 13.4433 48.9387 13.4232C49.5873 13.4232 49.7499 13.5566 49.748 14.2234C49.7261 29.8273 49.7243 45.4294 49.7444 61.0333C49.7444 62.2263 49.6183 63.2311 48.3815 63.8084C47.9028 64.0313 47.817 64.563 48.0709 65.0617C48.3194 65.5513 48.725 65.7267 49.2639 65.5842C49.6695 65.4764 50.013 65.2608 50.3254 64.9905C51.3814 64.0825 51.7906 62.926 51.7906 61.5412C51.776 44.2985 51.7814 27.054 51.7814 9.81134ZM49.0264 11.4008C41.4665 11.3825 33.9067 11.388 26.3468 11.388C18.7869 11.388 11.227 11.3807 3.6671 11.4026C3.06604 11.4044 2.91442 11.2656 2.92903 10.6645C2.97471 8.86681 2.94182 7.06728 2.9473 5.26774C2.95095 3.81167 3.68356 3.06993 5.11953 3.06993C19.2363 3.06993 33.3549 3.06993 47.4717 3.06993C49.01 3.06993 49.7261 3.78609 49.7298 5.31889C49.7335 7.11843 49.7005 8.91797 49.748 10.7157C49.7645 11.3167 49.5635 11.399 49.0264 11.399V11.4008Z" fill="url(#paint22_radial_1231_911)" stroke="url(#paint23_radial_1231_911)"/>
<path d="M42.665 40.4509C42.6631 38.5107 41.8301 37.6868 39.868 37.6868C30.8483 37.6868 21.8269 37.6868 12.8073 37.6868C12.6246 37.6868 12.4419 37.6795 12.261 37.6923C10.9383 37.7799 10.0705 38.6532 10.0212 39.9759C9.99378 40.7268 10.012 41.4795 10.0139 42.2304C10.0194 44.0664 10.8524 44.9105 12.6721 44.9105C17.2285 44.9123 21.783 44.9105 26.3394 44.9105C30.9634 44.9105 35.5874 44.916 40.2114 44.9068C41.7351 44.9032 42.6284 44.0153 42.6613 42.5008C42.6759 41.8175 42.665 41.1342 42.665 40.4509ZM40.6261 42.1938C40.6754 42.7547 40.4562 42.8753 39.9282 42.8716C35.3992 42.8515 30.8703 42.8607 26.3413 42.8607C21.8123 42.8607 17.2833 42.8534 12.7543 42.8716C12.2318 42.8735 12.0107 42.7602 12.0528 42.1957C12.1021 41.5398 12.0747 40.8766 12.06 40.2171C12.0527 39.8645 12.1971 39.711 12.546 39.7366C12.6593 39.7439 12.7744 39.7366 12.8876 39.7366C21.8543 39.7366 30.8227 39.7439 39.7894 39.7238C40.4398 39.7238 40.6937 39.8882 40.6279 40.5569C40.5731 41.0977 40.5804 41.6512 40.6279 42.1938H40.6261Z" fill="url(#paint24_radial_1231_911)" stroke="url(#paint25_radial_1231_911)"/>
<path d="M42.6651 28.8481C42.6615 26.9261 41.8412 26.0967 39.9339 26.0967C34.6723 26.0967 29.4107 26.0967 24.1491 26.0967C20.3673 26.0967 16.5874 26.0967 12.8056 26.0967C10.8088 26.0967 10.014 26.9005 10.0122 28.9211C10.0122 29.4674 10.0122 30.0136 10.0122 30.5617C10.0159 32.4873 10.8307 33.3094 12.7417 33.3113C17.2743 33.3113 21.807 33.3113 26.3396 33.3113C30.8722 33.3113 35.4049 33.3113 39.9375 33.3113C41.8448 33.3113 42.6615 32.4837 42.6633 30.5581C42.6633 29.9881 42.6633 29.4199 42.6633 28.8499L42.6651 28.8481ZM40.6263 28.9029C40.5751 29.4911 40.5934 30.0885 40.6226 30.6786C40.6445 31.1208 40.4966 31.2779 40.0417 31.2687C38.7427 31.2432 37.4456 31.2596 36.1466 31.2596C28.3785 31.2596 20.6085 31.2523 12.8403 31.2742C12.1991 31.2761 11.9945 31.097 12.0511 30.4722C12.1023 29.9296 12.0949 29.376 12.0511 28.8334C12.0091 28.2963 12.1808 28.1301 12.7362 28.1337C15.9936 28.1593 19.2511 28.1465 22.5103 28.1465C23.7855 28.1465 25.0626 28.1465 26.3378 28.1465C30.8485 28.1465 35.3592 28.1593 39.8699 28.1319C40.482 28.1282 40.6774 28.3 40.6244 28.901L40.6263 28.9029Z" fill="url(#paint26_radial_1231_911)" stroke="url(#paint27_radial_1231_911)"/>
<path d="M47.3164 58.8044C43.9567 56.8569 40.5951 54.9149 37.228 52.9765C35.697 52.0959 34.367 52.8578 34.3579 54.6171C34.3488 56.5756 34.3561 58.5341 34.3561 60.4925C34.3561 62.4967 34.3378 64.5009 34.3616 66.5032C34.3798 68.0469 35.7172 68.8143 37.0673 68.0743C37.7652 67.6925 38.4576 67.2997 39.1299 66.8777C39.4478 66.6767 39.5994 66.6932 39.7894 67.0421C40.343 68.0579 40.9239 69.0627 41.525 70.0511C42.106 71.0048 43.0724 71.2569 44.059 70.7289C44.7587 70.3544 45.4456 69.9506 46.1271 69.5432C47.3 68.8435 47.5521 67.9063 46.8853 66.7224C46.3737 65.8126 45.8786 64.8882 45.3104 64.0131C45.009 63.5508 45.1259 63.3809 45.5625 63.1654C46.1709 62.8621 46.7482 62.493 47.3347 62.1477C48.8821 61.2361 48.8785 59.7088 47.3164 58.8026V58.8044ZM44.1613 61.6198C42.8039 62.4145 42.5627 63.3225 43.3501 64.6909C43.8708 65.597 44.3897 66.505 44.9268 67.402C45.0912 67.6761 45.0784 67.8259 44.7733 67.9757C44.2471 68.2333 43.6954 68.7996 43.2369 68.7266C42.8733 68.6681 42.623 67.8515 42.3344 67.3655C41.9872 66.7791 41.6602 66.1816 41.3094 65.597C40.6645 64.5209 39.6652 64.2469 38.5727 64.8498C37.8967 65.2243 37.2317 65.6171 36.5612 66.0008C36.5466 66.0099 36.5174 65.9971 36.4242 65.9843V54.8857C39.6688 56.7564 42.8368 58.5834 46.1161 60.4761C45.4201 60.8835 44.7898 61.2544 44.1613 61.6234V61.6198Z" fill="url(#paint28_radial_1231_911)" stroke="url(#paint29_radial_1231_911)"/>
<path d="M28.8443 50.0552C28.0258 50.0297 27.2037 50.0516 26.3853 50.0516C25.5193 50.0516 24.6533 50.0278 23.7892 50.0571C21.8636 50.1247 20.4386 51.6757 20.4495 53.6561C20.4605 55.6055 21.9476 57.1602 23.8677 57.1876C25.5065 57.2114 27.1471 57.2095 28.7877 57.1876C30.7187 57.1639 32.2114 55.6256 32.2296 53.6799C32.2479 51.6648 30.8138 50.1155 28.8461 50.0534L28.8443 50.0552ZM28.6342 55.1414C27.1087 55.1542 25.5832 55.1524 24.0596 55.1414C23.1059 55.1341 22.5048 54.5349 22.5012 53.6269C22.4975 52.7025 23.0748 52.1215 24.0431 52.1014C24.8159 52.0868 25.5905 52.0978 26.3651 52.0978C27.116 52.0978 27.8669 52.0868 28.6178 52.0996C29.5915 52.1179 30.1743 52.6897 30.178 53.6086C30.1816 54.5221 29.5842 55.1323 28.6342 55.1396V55.1414Z" fill="url(#paint30_radial_1231_911)" stroke="url(#paint31_radial_1231_911)"/>
<path d="M8.41531 4.11316C6.68337 4.11316 5.29126 5.49433 5.28578 7.21531C5.2803 8.93811 6.66146 10.3412 8.38427 10.3595C10.1235 10.3777 11.5723 8.94359 11.5595 7.21348C11.5467 5.49981 10.1418 4.11316 8.41531 4.11316ZM8.43543 8.30416C7.84167 8.31695 7.3484 7.84195 7.33743 7.25184C7.32647 6.65261 7.79418 6.17395 8.39707 6.16664C8.99813 6.15751 9.49503 6.62703 9.50599 7.21348C9.51878 7.79079 9.02553 8.2932 8.43543 8.30599V8.30416Z" fill="url(#paint32_radial_1231_911)" stroke="url(#paint33_radial_1231_911)" stroke-width="0.2"/>
<path d="M24.8014 4.1132C23.0712 4.12051 21.6882 5.50899 21.6901 7.23545C21.6901 8.9546 23.0876 10.3522 24.8086 10.3595C26.5497 10.3668 27.9893 8.92171 27.9638 7.19343C27.9382 5.4761 26.5315 4.10407 24.8014 4.1132ZM24.8452 8.30421C24.2496 8.31882 23.7545 7.84747 23.7417 7.25554C23.7289 6.65813 24.1948 6.17582 24.7977 6.16486C25.3988 6.1539 25.8957 6.61977 25.9103 7.20804C25.9249 7.78536 25.4353 8.28959 24.8434 8.30421H24.8452Z" fill="url(#paint34_radial_1231_911)" stroke="url(#paint35_radial_1231_911)" stroke-width="0.2"/>
<path d="M16.5964 4.11316C14.8663 4.12229 13.4851 5.51077 13.4888 7.23906C13.4924 8.95821 14.8882 10.3558 16.6092 10.3613C18.3521 10.3668 19.7881 8.92167 19.7607 7.19338C19.7333 5.47606 18.3247 4.10585 16.5964 4.11499V4.11316ZM16.6439 8.30416C16.0483 8.31878 15.5532 7.84743 15.5404 7.25733C15.5258 6.65992 15.9935 6.1776 16.5964 6.16664C17.1975 6.15568 17.6944 6.62155 17.7109 7.208C17.7255 7.78531 17.2358 8.28955 16.6457 8.30416H16.6439Z" fill="url(#paint36_radial_1231_911)" stroke="url(#paint37_radial_1231_911)" stroke-width="0.2"/>
<defs>
<radialGradient id="paint0_radial_1231_911" cx="0" cy="0" r="1" gradientUnits="userSpaceOnUse" gradientTransform="translate(23.7431 1.06223) rotate(-90) scale(0.0554644 14.469)">
<stop stop-color="#E21118"/>
<stop offset="1" stop-color="#AE0F13"/>
</radialGradient>
<radialGradient id="paint1_radial_1231_911" cx="0" cy="0" r="1" gradientUnits="userSpaceOnUse" gradientTransform="translate(23.7431 1.06223) rotate(-90) scale(0.0554644 14.469)">
<stop stop-color="#E21118"/>
<stop offset="1" stop-color="#AE0F13"/>
</radialGradient>
<radialGradient id="paint2_radial_1231_911" cx="0" cy="0" r="1" gradientUnits="userSpaceOnUse" gradientTransform="translate(10.2785 1.0613) rotate(-90) scale(0.0546111 4.38505)">
<stop stop-color="#E21118"/>
<stop offset="1" stop-color="#AE0F13"/>
</radialGradient>
<radialGradient id="paint3_radial_1231_911" cx="0" cy="0" r="1" gradientUnits="userSpaceOnUse" gradientTransform="translate(10.2785 1.0613) rotate(-90) scale(0.0546111 4.38505)">
<stop stop-color="#E21118"/>
<stop offset="1" stop-color="#AE0F13"/>
</radialGradient>
<radialGradient id="paint4_radial_1231_911" cx="0" cy="0" r="1" gradientUnits="userSpaceOnUse" gradientTransform="translate(14.5174 1.0613) rotate(-90) scale(0.0546111 4.28676)">
<stop stop-color="#E21118"/>
<stop offset="1" stop-color="#AE0F13"/>
</radialGradient>
<radialGradient id="paint5_radial_1231_911" cx="0" cy="0" r="1" gradientUnits="userSpaceOnUse" gradientTransform="translate(14.5174 1.0613) rotate(-90) scale(0.0546111 4.28676)">
<stop stop-color="#E21118"/>
<stop offset="1" stop-color="#AE0F13"/>
</radialGradient>
<radialGradient id="paint6_radial_1231_911" cx="0" cy="0" r="1" gradientUnits="userSpaceOnUse" gradientTransform="translate(6.24862 1.07158) rotate(-90) scale(0.0657314 3.87324)">
<stop stop-color="#E21118"/>
<stop offset="1" stop-color="#AE0F13"/>
</radialGradient>
<radialGradient id="paint7_radial_1231_911" cx="0" cy="0" r="1" gradientUnits="userSpaceOnUse" gradientTransform="translate(6.24862 1.07158) rotate(-90) scale(0.0657314 3.87324)">
<stop stop-color="#E21118"/>
<stop offset="1" stop-color="#AE0F13"/>
</radialGradient>
<radialGradient id="paint8_radial_1231_911" cx="0" cy="0" r="1" gradientUnits="userSpaceOnUse" gradientTransform="translate(35.0188 1.06316) rotate(-90) scale(0.0563175 3.00138)">
<stop stop-color="#E21118"/>
<stop offset="1" stop-color="#AE0F13"/>
</radialGradient>
<radialGradient id="paint9_radial_1231_911" cx="0" cy="0" r="1" gradientUnits="userSpaceOnUse" gradientTransform="translate(35.0188 1.06316) rotate(-90) scale(0.0563175 3.00138)">
<stop stop-color="#E21118"/>
<stop offset="1" stop-color="#AE0F13"/>
</radialGradient>
<radialGradient id="paint10_radial_1231_911" cx="0" cy="0" r="1" gradientUnits="userSpaceOnUse" gradientTransform="translate(32.2169 1.06316) rotate(-90) scale(0.0563175 2.76553)">
<stop stop-color="#E21118"/>
<stop offset="1" stop-color="#AE0F13"/>
</radialGradient>
<radialGradient id="paint11_radial_1231_911" cx="0" cy="0" r="1" gradientUnits="userSpaceOnUse" gradientTransform="translate(32.2169 1.06316) rotate(-90) scale(0.0563175 2.76553)">
<stop stop-color="#E21118"/>
<stop offset="1" stop-color="#AE0F13"/>
</radialGradient>
<radialGradient id="paint12_radial_1231_911" cx="0" cy="0" r="1" gradientUnits="userSpaceOnUse" gradientTransform="translate(37.8422 1.06409) rotate(-90) scale(0.0571708 2.82126)">
<stop stop-color="#E21118"/>
<stop offset="1" stop-color="#AE0F13"/>
</radialGradient>
<radialGradient id="paint13_radial_1231_911" cx="0" cy="0" r="1" gradientUnits="userSpaceOnUse" gradientTransform="translate(37.8422 1.06409) rotate(-90) scale(0.0571708 2.82126)">
<stop stop-color="#E21118"/>
<stop offset="1" stop-color="#AE0F13"/>
</radialGradient>
<radialGradient id="paint14_radial_1231_911" cx="0" cy="0" r="1" gradientUnits="userSpaceOnUse" gradientTransform="translate(40.5784 1.06781) rotate(-90) scale(0.0605841 2.82013)">
<stop stop-color="#E21118"/>
<stop offset="1" stop-color="#AE0F13"/>
</radialGradient>
<radialGradient id="paint15_radial_1231_911" cx="0" cy="0" r="1" gradientUnits="userSpaceOnUse" gradientTransform="translate(40.5784 1.06781) rotate(-90) scale(0.0605841 2.82013)">
<stop stop-color="#E21118"/>
<stop offset="1" stop-color="#AE0F13"/>
</radialGradient>
<radialGradient id="paint16_radial_1231_911" cx="0" cy="0" r="1" gradientUnits="userSpaceOnUse" gradientTransform="translate(43.151 1.08029) rotate(-90) scale(0.0720483 2.4923)">
<stop stop-color="#E21118"/>
<stop offset="1" stop-color="#AE0F13"/>
</radialGradient>
<radialGradient id="paint17_radial_1231_911" cx="0" cy="0" r="1" gradientUnits="userSpaceOnUse" gradientTransform="translate(43.151 1.08029) rotate(-90) scale(0.0720483 2.4923)">
<stop stop-color="#E21118"/>
<stop offset="1" stop-color="#AE0F13"/>
</radialGradient>
<radialGradient id="paint18_radial_1231_911" cx="0" cy="0" r="1" gradientUnits="userSpaceOnUse" gradientTransform="translate(16.5452 43.0754) rotate(-90) scale(21.6842 31.6843)">
<stop stop-color="#E21118"/>
<stop offset="1" stop-color="#AE0F13"/>
</radialGradient>
<radialGradient id="paint19_radial_1231_911" cx="0" cy="0" r="1" gradientUnits="userSpaceOnUse" gradientTransform="translate(16.5452 43.0754) rotate(-90) scale(21.6842 31.6843)">
<stop stop-color="#E21118"/>
<stop offset="1" stop-color="#AE0F13"/>
</radialGradient>
<radialGradient id="paint20_radial_1231_911" cx="0" cy="0" r="1" gradientUnits="userSpaceOnUse" gradientTransform="translate(26.3367 18.4441) rotate(-90) scale(0.961778 21.6951)">
<stop stop-color="#E21118"/>
<stop offset="1" stop-color="#AE0F13"/>
</radialGradient>
<radialGradient id="paint21_radial_1231_911" cx="0" cy="0" r="1" gradientUnits="userSpaceOnUse" gradientTransform="translate(26.3367 18.4441) rotate(-90) scale(0.961778 21.6951)">
<stop stop-color="#E21118"/>
<stop offset="1" stop-color="#AE0F13"/>
</radialGradient>
<radialGradient id="paint22_radial_1231_911" cx="0" cy="0" r="1" gradientUnits="userSpaceOnUse" gradientTransform="translate(26.342 33.8754) rotate(-90) scale(30.1864 51.4324)">
<stop stop-color="#E21118"/>
<stop offset="1" stop-color="#AE0F13"/>
</radialGradient>
<radialGradient id="paint23_radial_1231_911" cx="0" cy="0" r="1" gradientUnits="userSpaceOnUse" gradientTransform="translate(26.342 33.8754) rotate(-90) scale(30.1864 51.4324)">
<stop stop-color="#E21118"/>
<stop offset="1" stop-color="#AE0F13"/>
</radialGradient>
<radialGradient id="paint24_radial_1231_911" cx="0" cy="0" r="1" gradientUnits="userSpaceOnUse" gradientTransform="translate(26.3376 41.3609) rotate(-90) scale(3.37567 33.0061)">
<stop stop-color="#E21118"/>
<stop offset="1" stop-color="#AE0F13"/>
</radialGradient>
<radialGradient id="paint25_radial_1231_911" cx="0" cy="0" r="1" gradientUnits="userSpaceOnUse" gradientTransform="translate(26.3376 41.3609) rotate(-90) scale(3.37567 33.0061)">
<stop stop-color="#E21118"/>
<stop offset="1" stop-color="#AE0F13"/>
</radialGradient>
<radialGradient id="paint26_radial_1231_911" cx="0" cy="0" r="1" gradientUnits="userSpaceOnUse" gradientTransform="translate(26.3387 29.7663) rotate(-90) scale(3.36967 32.9962)">
<stop stop-color="#E21118"/>
<stop offset="1" stop-color="#AE0F13"/>
</radialGradient>
<radialGradient id="paint27_radial_1231_911" cx="0" cy="0" r="1" gradientUnits="userSpaceOnUse" gradientTransform="translate(26.3387 29.7663) rotate(-90) scale(3.36967 32.9962)">
<stop stop-color="#E21118"/>
<stop offset="1" stop-color="#AE0F13"/>
</radialGradient>
<radialGradient id="paint28_radial_1231_911" cx="0" cy="0" r="1" gradientUnits="userSpaceOnUse" gradientTransform="translate(41.4205 61.9633) rotate(-90) scale(8.58982 14.2909)">
<stop stop-color="#E21118"/>
<stop offset="1" stop-color="#AE0F13"/>
</radialGradient>
<radialGradient id="paint29_radial_1231_911" cx="0" cy="0" r="1" gradientUnits="userSpaceOnUse" gradientTransform="translate(41.4205 61.9633) rotate(-90) scale(8.58982 14.2909)">
<stop stop-color="#E21118"/>
<stop offset="1" stop-color="#AE0F13"/>
</radialGradient>
<radialGradient id="paint30_radial_1231_911" cx="0" cy="0" r="1" gradientUnits="userSpaceOnUse" gradientTransform="translate(26.3396 53.6855) rotate(-90) scale(3.34523 11.9042)">
<stop stop-color="#E21118"/>
<stop offset="1" stop-color="#AE0F13"/>
</radialGradient>
<radialGradient id="paint31_radial_1231_911" cx="0" cy="0" r="1" gradientUnits="userSpaceOnUse" gradientTransform="translate(26.3396 53.6855) rotate(-90) scale(3.34523 11.9042)">
<stop stop-color="#E21118"/>
<stop offset="1" stop-color="#AE0F13"/>
</radialGradient>
<radialGradient id="paint32_radial_1231_911" cx="0" cy="0" r="1" gradientUnits="userSpaceOnUse" gradientTransform="translate(8.42266 7.29037) rotate(-90) scale(2.9175 6.33975)">
<stop stop-color="#E21118"/>
<stop offset="1" stop-color="#AE0F13"/>
</radialGradient>
<radialGradient id="paint33_radial_1231_911" cx="0" cy="0" r="1" gradientUnits="userSpaceOnUse" gradientTransform="translate(8.42266 7.29037) rotate(-90) scale(2.9175 6.33975)">
<stop stop-color="#E21118"/>
<stop offset="1" stop-color="#AE0F13"/>
</radialGradient>
<radialGradient id="paint34_radial_1231_911" cx="0" cy="0" r="1" gradientUnits="userSpaceOnUse" gradientTransform="translate(24.8271 7.29032) rotate(-90) scale(2.91745 6.33999)">
<stop stop-color="#E21118"/>
<stop offset="1" stop-color="#AE0F13"/>
</radialGradient>
<radialGradient id="paint35_radial_1231_911" cx="0" cy="0" r="1" gradientUnits="userSpaceOnUse" gradientTransform="translate(24.8271 7.29032) rotate(-90) scale(2.91745 6.33999)">
<stop stop-color="#E21118"/>
<stop offset="1" stop-color="#AE0F13"/>
</radialGradient>
<radialGradient id="paint36_radial_1231_911" cx="0" cy="0" r="1" gradientUnits="userSpaceOnUse" gradientTransform="translate(16.6249 7.29122) rotate(-90) scale(2.91828 6.33824)">
<stop stop-color="#E21118"/>
<stop offset="1" stop-color="#AE0F13"/>
</radialGradient>
<radialGradient id="paint37_radial_1231_911" cx="0" cy="0" r="1" gradientUnits="userSpaceOnUse" gradientTransform="translate(16.6249 7.29122) rotate(-90) scale(2.91828 6.33824)">
<stop stop-color="#E21118"/>
<stop offset="1" stop-color="#AE0F13"/>
</radialGradient>
</defs>
</svg>
