<svg width="13" height="9" viewBox="0 0 13 9" fill="none" xmlns="http://www.w3.org/2000/svg">
<path d="M12.5984 4.13864C12.1935 3.43631 9.9663 -0.0879674 6.18261 0.0259231C2.68364 0.114505 0.658921 3.18955 0.108451 4.13864C0.0529175 4.23482 0.0236816 4.34393 0.0236816 4.455C0.0236816 4.56606 0.0529175 4.67517 0.108451 4.77136C0.507067 5.46103 2.63935 8.88407 6.3661 8.88407H6.52428C10.0233 8.79549 12.0543 5.72045 12.5984 4.77136C12.654 4.67517 12.6832 4.56606 12.6832 4.455C12.6832 4.34393 12.654 4.23482 12.5984 4.13864ZM6.49265 7.61862C3.7656 7.68189 1.98764 5.34714 1.43085 4.455C2.06357 3.43631 3.71498 1.35465 6.24588 1.29137C8.96027 1.22177 10.7446 3.56286 11.3077 4.455C10.656 5.47368 9.02355 7.55535 6.49265 7.61862Z" fill="#252525"/>
<path d="M6.35344 2.24046C5.91545 2.24046 5.48729 2.37034 5.12311 2.61368C4.75893 2.85702 4.47509 3.20288 4.30748 3.60753C4.13986 4.01219 4.09601 4.45746 4.18146 4.88704C4.26691 5.31661 4.47782 5.71121 4.78753 6.02092C5.09724 6.33062 5.49183 6.54154 5.92141 6.62699C6.35099 6.71244 6.79626 6.66858 7.20091 6.50097C7.60556 6.33335 7.95143 6.04951 8.19476 5.68533C8.4381 5.32115 8.56798 4.893 8.56798 4.455C8.56798 3.86767 8.33466 3.30439 7.91936 2.88909C7.50405 2.47378 6.94077 2.24046 6.35344 2.24046ZM6.35344 5.40409C6.16573 5.40409 5.98223 5.34843 5.82616 5.24414C5.67008 5.13985 5.54843 4.99162 5.4766 4.8182C5.40477 4.64478 5.38597 4.45395 5.42259 4.26984C5.45921 4.08574 5.5496 3.91663 5.68234 3.7839C5.81507 3.65116 5.98418 3.56077 6.16828 3.52415C6.35239 3.48753 6.54322 3.50632 6.71664 3.57816C6.89007 3.64999 7.03829 3.77164 7.14258 3.92772C7.24687 4.08379 7.30253 4.26729 7.30253 4.455C7.30253 4.70672 7.20254 4.94812 7.02455 5.12611C6.84656 5.3041 6.60516 5.40409 6.35344 5.40409Z" fill="#252525"/>
</svg>
