<svg width="21" height="15" viewBox="0 0 21 15" fill="none" xmlns="http://www.w3.org/2000/svg">
<path d="M20.8289 7.16014C20.1778 6.03085 16.5967 0.364059 10.5127 0.547187C4.88665 0.68962 1.63104 5.63407 0.745922 7.16014C0.656628 7.3148 0.609619 7.49024 0.609619 7.66883C0.609619 7.84741 0.656628 8.02285 0.745922 8.17752C1.38687 9.28646 4.81543 14.7905 10.8078 14.7905H11.0621C16.6882 14.648 19.954 9.70358 20.8289 8.17752C20.9182 8.02285 20.9652 7.84741 20.9652 7.66883C20.9652 7.49024 20.9182 7.3148 20.8289 7.16014ZM11.0113 12.7557C6.62636 12.8574 3.76753 9.10333 2.87224 7.66883C3.88962 6.03085 6.54497 2.68368 10.6145 2.58194C14.979 2.47003 17.848 6.23433 18.7535 7.66883C17.7056 9.3068 15.0808 12.654 11.0113 12.7557Z" fill="#252525"/>
<path d="M10.7874 4.10801C10.0832 4.10801 9.39472 4.31685 8.80914 4.70812C8.22357 5.09939 7.76717 5.65551 7.49766 6.30617C7.22815 6.95682 7.15763 7.67278 7.29503 8.36352C7.43242 9.05425 7.77156 9.68872 8.26955 10.1867C8.76754 10.6847 9.40201 11.0238 10.0927 11.1612C10.7835 11.2986 11.4994 11.2281 12.1501 10.9586C12.8007 10.6891 13.3569 10.2327 13.7481 9.64712C14.1394 9.06155 14.3482 8.3731 14.3482 7.66883C14.3482 6.72445 13.9731 5.81874 13.3053 5.15095C12.6375 4.48317 11.7318 4.10801 10.7874 4.10801ZM10.7874 9.1949C10.4856 9.1949 10.1906 9.1054 9.93959 8.93771C9.68863 8.77002 9.49303 8.53169 9.37753 8.25283C9.26202 7.97398 9.2318 7.66714 9.29068 7.37111C9.34957 7.07508 9.49491 6.80317 9.70834 6.58974C9.92176 6.37632 10.1937 6.23097 10.4897 6.17209C10.7857 6.11321 11.0926 6.14343 11.3714 6.25893C11.6503 6.37444 11.8886 6.57004 12.0563 6.821C12.224 7.07196 12.3135 7.36701 12.3135 7.66883C12.3135 8.07357 12.1527 8.46173 11.8665 8.74792C11.5803 9.03412 11.1922 9.1949 10.7874 9.1949Z" fill="#252525"/>
</svg>
