<svg width="25" height="25" viewBox="0 0 25 25" fill="none" xmlns="http://www.w3.org/2000/svg">
<path opacity="0.8" d="M12.5315 0C10.0689 0 7.66169 0.730232 5.61415 2.09835C3.56661 3.46648 1.97075 5.41104 1.02837 7.68614C0.0859917 9.96125 -0.160578 12.4647 0.319843 14.8799C0.800263 17.2952 1.9861 19.5137 3.72738 21.255C5.46867 22.9963 7.68721 24.1821 10.1024 24.6625C12.5177 25.143 15.0211 24.8964 17.2962 23.954C19.5714 23.0116 21.5159 21.4158 22.884 19.3682C24.2522 17.3207 24.9824 14.9134 24.9824 12.4509C24.9824 9.14871 23.6706 5.98178 21.3356 3.64678C19.0006 1.31179 15.8337 0 12.5315 0ZM15.6868 11.2713L15.4804 13.0063C15.4715 13.0868 15.4331 13.1611 15.3726 13.215C15.312 13.2688 15.2337 13.2984 15.1527 13.2979H13.3506V18.4421C13.3511 18.5035 13.3272 18.5626 13.2842 18.6065C13.2413 18.6504 13.1827 18.6755 13.1213 18.6763H11.2864C11.2559 18.6759 11.2257 18.6695 11.1976 18.6574C11.1696 18.6453 11.1442 18.6278 11.1229 18.6059C11.1016 18.584 11.0848 18.5581 11.0735 18.5297C11.0622 18.5013 11.0566 18.471 11.057 18.4404L11.0669 13.2979H9.70219C9.61529 13.2979 9.53195 13.2634 9.47051 13.2019C9.40906 13.1405 9.37454 13.0571 9.37454 12.9702V11.2369C9.37454 11.15 9.40906 11.0667 9.47051 11.0052C9.53195 10.9438 9.61529 10.9093 9.70219 10.9093H11.057V9.22841C11.057 7.28377 12.2153 6.22545 13.9076 6.22545H15.2953C15.3822 6.22545 15.4655 6.25997 15.527 6.32141C15.5884 6.38286 15.6229 6.4662 15.6229 6.5531V8.0128C15.6229 8.0997 15.5884 8.18305 15.527 8.24449C15.4655 8.30594 15.3822 8.34046 15.2953 8.34046H14.445C13.5243 8.3552 13.3506 8.7959 13.3506 9.45449V10.9044H15.369C15.4147 10.9054 15.4597 10.916 15.5011 10.9355C15.5424 10.9549 15.5793 10.9829 15.6092 11.0174C15.6392 11.052 15.6615 11.0924 15.6749 11.1362C15.6882 11.1799 15.6923 11.2259 15.6868 11.2713Z" fill="white"/>
</svg>
