<svg width="72" height="72" viewBox="0 0 72 72" fill="none" xmlns="http://www.w3.org/2000/svg">
<path d="M70.9273 69.216C70.1655 65.685 69.3977 62.1581 68.6096 58.6333C68.4827 58.069 68.5391 57.5893 68.7789 57.0552C70.9515 52.2365 71.5541 47.2303 70.3912 42.0588C68.1763 32.2097 60.5603 25.1438 50.5277 23.5739C49.911 23.4771 49.125 23.598 48.7179 23.2574C48.2604 22.8745 48.4862 22.0301 48.3894 21.3892C46.6159 9.64965 36.662 1.01176 24.6242 0.991608C23.2174 0.967424 21.593 1.15284 19.9928 1.47933C5.05691 4.52859 -3.22224 20.9236 3.18664 34.7612C3.40632 35.2368 3.49902 35.6721 3.38415 36.1961C2.6042 39.7734 1.85045 43.3567 1.08864 46.9381C0.83067 48.1533 1.50784 48.8285 2.72512 48.5685C6.32861 47.8006 9.93411 47.0308 13.5396 46.269C13.8742 46.1984 14.1966 46.1218 14.5574 46.2972C17.1794 47.5689 19.9465 48.3226 22.8526 48.5443C23.3021 48.5786 23.425 48.772 23.4593 49.2013C23.5298 50.076 23.6286 50.9527 23.7938 51.8132C26.6556 66.7713 43.2865 75.2621 57.0777 68.8008C57.5795 68.565 58.0431 68.4824 58.5832 68.5993C62.1363 69.3691 65.6914 70.1229 69.2465 70.8807C70.5202 71.1528 71.2014 70.4937 70.9273 69.216ZM15.3736 44.0198C14.7831 43.7296 14.2309 43.651 13.5719 43.7981C10.5387 44.4773 7.49148 45.092 4.45431 45.7571C3.86179 45.886 3.78117 45.7309 3.90008 45.1827C4.56717 42.1193 5.1879 39.0479 5.87313 35.9885C6.01824 35.3436 5.88321 34.8237 5.62121 34.2614C2.40468 27.3547 2.61226 20.5488 6.40922 13.9384C10.6657 6.52783 19.4104 2.34191 27.754 3.60353C36.6317 4.94375 43.6775 11.3708 45.6485 19.9099C46.0234 21.5343 46.2189 23.1728 46.2289 24.3074C46.2229 35.8313 37.841 45.0617 26.9056 46.1299C22.8587 46.5249 19.0154 45.8135 15.3716 44.0198H15.3736ZM67.3762 68.037C64.2927 67.3538 61.1991 66.7189 58.1156 66.0458C57.5493 65.9229 57.0878 66.1143 56.6081 66.34C50.2698 69.3389 43.871 69.4578 37.6233 66.2695C30.6945 62.7345 26.7604 56.9666 25.8374 49.2013C25.8092 48.9595 25.6258 48.6491 26.1236 48.6249C29.3704 48.4617 32.4317 47.5628 35.3802 46.2428C35.4205 46.3375 35.4326 46.4342 35.4265 46.537C35.3419 47.8329 35.5777 48.113 36.8635 48.115C43.7138 48.1251 50.566 48.1231 57.4163 48.115C58.4461 48.115 58.9137 47.7885 58.8956 47.1315C58.8774 46.4826 58.4179 46.1823 57.3719 46.1823C50.6204 46.1763 43.871 46.1823 37.1195 46.1742C36.6821 46.1742 36.2045 46.2911 35.8417 45.9042C38.4355 44.6204 40.6323 42.8227 42.571 40.6924C42.7907 40.4506 43.0527 40.2269 43.2019 39.9467C43.7561 38.9048 44.6005 38.7012 45.7372 38.7234C49.6289 38.8 53.5246 38.7536 57.4183 38.7516C57.6682 38.7516 57.9241 38.7597 58.17 38.7234C58.8049 38.6267 59.1515 38.2175 59.1817 37.5988C59.21 37.0083 58.9036 36.5831 58.3252 36.4259C58.041 36.3473 57.7307 36.3433 57.4324 36.3433C53.7644 36.3372 50.0964 36.3291 46.4305 36.3493C45.84 36.3533 45.6747 36.3029 45.9992 35.6862C47.5349 32.7861 48.3632 29.6784 48.5849 26.4115C48.6172 25.95 48.7018 25.8029 49.2258 25.8432C57.7146 26.4861 65.508 33.036 67.7773 41.5026C69.1719 46.7043 68.6782 51.7427 66.3262 56.5897C66.04 57.1782 65.9413 57.7263 66.0904 58.3914C66.7656 61.4004 67.3662 64.4254 68.0332 67.4364C68.1925 68.1519 67.9809 68.172 67.3742 68.037H67.3762Z" fill="url(#paint0_radial_1231_969)" stroke="url(#paint1_radial_1231_969)"/>
<path d="M35.8437 45.9042C36.1944 45.9163 36.5451 45.9405 36.8977 45.9405C43.7319 45.9425 50.566 45.9405 57.4001 45.9405C57.6258 45.9405 57.8536 45.9263 58.0773 45.9505C58.7323 46.0211 59.1978 46.533 59.1938 47.1537C59.1898 47.7805 58.7242 48.2743 58.0632 48.3448C57.914 48.3609 57.7629 48.3529 57.6117 48.3529C50.6265 48.3529 43.6412 48.3488 36.6559 48.3609C35.9324 48.3609 35.3661 48.1916 35.1121 47.4479C34.9569 46.9925 35.231 46.6297 35.3822 46.2407C35.5495 46.146 35.751 46.0997 35.8437 45.9042Z" fill="url(#paint2_radial_1231_969)" stroke="url(#paint3_radial_1231_969)"/>
<path d="M30.8859 19.7829C30.9101 23.2353 29.7876 25.1216 27.7823 26.5183C26.9801 27.0766 26.1518 27.5985 25.3235 28.1165C24.87 28.4007 24.6705 28.7735 24.7128 29.3096C24.737 29.6079 24.735 29.9223 24.6604 30.2084C24.5174 30.7526 24.1203 31.0509 23.5601 31.063C22.9696 31.0751 22.4939 30.801 22.3932 30.2064C22.1674 28.8763 22.2339 27.6006 23.3625 26.611C23.9531 26.0931 24.6181 25.696 25.2751 25.2829C25.6984 25.0148 26.1297 24.7549 26.5307 24.4566C28.409 23.068 28.9995 21.0184 28.1551 18.8559C27.361 16.8203 25.2772 15.5023 23.1691 15.7038C20.8857 15.9215 19.0275 17.5479 18.6405 19.6741C18.5821 19.9945 18.5559 20.321 18.5216 20.6455C18.437 21.4375 17.9755 21.893 17.2781 21.8648C16.5627 21.8366 16.085 21.2884 16.1213 20.4762C16.2261 18.225 17.1008 16.3185 18.8804 14.9279C21.2867 13.0455 23.9752 12.6989 26.7202 14.029C29.4671 15.3592 30.8134 17.689 30.8839 19.7809L30.8859 19.7829Z" fill="url(#paint4_radial_1231_969)" stroke="url(#paint5_radial_1231_969)"/>
<path d="M22.242 34.1082C22.2379 33.3907 22.8103 32.8143 23.5197 32.8223C24.211 32.8304 24.8156 33.4511 24.7954 34.1323C24.7773 34.7954 24.1969 35.3678 23.5338 35.3819C22.8244 35.396 22.246 34.8256 22.242 34.1082Z" fill="url(#paint6_radial_1231_969)" stroke="url(#paint7_radial_1231_969)"/>
<path d="M47.1036 55.5579C50.5418 55.5579 53.98 55.5579 57.4182 55.5579C57.6681 55.5579 57.9221 55.5518 58.17 55.5841C58.7726 55.6667 59.1152 56.0476 59.1817 56.628C59.2482 57.2165 58.958 57.6357 58.4118 57.8695C58.0994 58.0025 57.7709 57.9682 57.4465 57.9682C50.57 57.9682 43.6936 57.9682 36.8171 57.9682C36.5672 57.9682 36.3072 57.9864 36.0694 57.93C35.4325 57.7788 35.0496 57.3616 35.0899 56.6945C35.1302 56.0416 35.5132 55.6385 36.1883 55.574C36.4382 55.5498 36.6901 55.5558 36.94 55.5558C40.3279 55.5558 43.7157 55.5558 47.1036 55.5558V55.5579Z" fill="url(#paint8_radial_1231_969)" stroke="url(#paint9_radial_1231_969)"/>
<defs>
<radialGradient id="paint0_radial_1231_969" cx="0" cy="0" r="1" gradientUnits="userSpaceOnUse" gradientTransform="translate(35.9924 36.5943) rotate(-90) scale(32.6944 70.7259)">
<stop stop-color="#E21118"/>
<stop offset="1" stop-color="#AE0F13"/>
</radialGradient>
<radialGradient id="paint1_radial_1231_969" cx="0" cy="0" r="1" gradientUnits="userSpaceOnUse" gradientTransform="translate(35.9924 36.5943) rotate(-90) scale(32.6944 70.7259)">
<stop stop-color="#E21118"/>
<stop offset="1" stop-color="#AE0F13"/>
</radialGradient>
<radialGradient id="paint2_radial_1231_969" cx="0" cy="0" r="1" gradientUnits="userSpaceOnUse" gradientTransform="translate(47.1299 47.1538) rotate(-90) scale(1.14745 24.3815)">
<stop stop-color="#E21118"/>
<stop offset="1" stop-color="#AE0F13"/>
</radialGradient>
<radialGradient id="paint3_radial_1231_969" cx="0" cy="0" r="1" gradientUnits="userSpaceOnUse" gradientTransform="translate(47.1299 47.1538) rotate(-90) scale(1.14745 24.3815)">
<stop stop-color="#E21118"/>
<stop offset="1" stop-color="#AE0F13"/>
</radialGradient>
<radialGradient id="paint4_radial_1231_969" cx="0" cy="0" r="1" gradientUnits="userSpaceOnUse" gradientTransform="translate(23.5029 22.3001) rotate(-90) scale(8.32993 14.9222)">
<stop stop-color="#E21118"/>
<stop offset="1" stop-color="#AE0F13"/>
</radialGradient>
<radialGradient id="paint5_radial_1231_969" cx="0" cy="0" r="1" gradientUnits="userSpaceOnUse" gradientTransform="translate(23.5029 22.3001) rotate(-90) scale(8.32993 14.9222)">
<stop stop-color="#E21118"/>
<stop offset="1" stop-color="#AE0F13"/>
</radialGradient>
<radialGradient id="paint6_radial_1231_969" cx="0" cy="0" r="1" gradientUnits="userSpaceOnUse" gradientTransform="translate(23.5189 34.1243) rotate(-90) scale(1.19562 2.58084)">
<stop stop-color="#E21118"/>
<stop offset="1" stop-color="#AE0F13"/>
</radialGradient>
<radialGradient id="paint7_radial_1231_969" cx="0" cy="0" r="1" gradientUnits="userSpaceOnUse" gradientTransform="translate(23.5189 34.1243) rotate(-90) scale(1.19562 2.58084)">
<stop stop-color="#E21118"/>
<stop offset="1" stop-color="#AE0F13"/>
</radialGradient>
<radialGradient id="paint8_radial_1231_969" cx="0" cy="0" r="1" gradientUnits="userSpaceOnUse" gradientTransform="translate(47.1391 56.7846) rotate(-90) scale(1.12891 24.3575)">
<stop stop-color="#E21118"/>
<stop offset="1" stop-color="#AE0F13"/>
</radialGradient>
<radialGradient id="paint9_radial_1231_969" cx="0" cy="0" r="1" gradientUnits="userSpaceOnUse" gradientTransform="translate(47.1391 56.7846) rotate(-90) scale(1.12891 24.3575)">
<stop stop-color="#E21118"/>
<stop offset="1" stop-color="#AE0F13"/>
</radialGradient>
</defs>
</svg>
