<svg width="78" height="72" viewBox="0 0 78 72" fill="none" xmlns="http://www.w3.org/2000/svg">
<path d="M55.9389 70.998C54.9142 70.982 53.4868 70.4238 52.0316 70.0351C36.6574 65.9364 21.2892 61.8137 5.919 57.7011C2.19906 56.7043 0.195561 53.3272 1.17838 49.6193C3.1759 42.0976 5.19934 34.582 7.20484 27.0624C7.4022 26.3208 7.72914 25.7108 8.53852 25.5293C9.72068 25.2642 10.6816 26.3587 10.3526 27.6146C9.57714 30.563 8.78372 33.5075 7.99428 36.4519C6.74832 41.0969 5.49837 45.7398 4.2544 50.3848C3.71216 52.4082 4.66507 54.0569 6.69649 54.6011C22.9279 58.951 39.1593 63.2989 55.3907 67.6448C57.4101 68.1851 58.999 67.278 59.5532 65.2586C60.3546 62.342 61.1301 59.4195 61.9255 56.503C62.2604 55.2729 63.311 54.7446 64.2958 55.2929C64.9257 55.6437 65.2547 56.2896 65.0473 57.0711C64.1782 60.3525 63.3608 63.6518 62.3481 66.8893C61.5627 69.3992 59.0927 70.992 55.9349 71L55.9389 70.998Z" fill="url(#paint0_radial_1231_907)" stroke="url(#paint1_radial_1231_907)" stroke-width="0.5"/>
<path d="M77.1763 6.31566C76.3649 2.82298 74.0803 1.00089 70.484 1.00089C53.806 0.998892 37.1301 1.00089 20.4521 1.00089C19.882 1.00089 19.3098 0.992912 18.7456 1.11452C15.6357 1.79232 13.6282 4.31614 13.6263 7.6294C13.6163 20.1807 13.6203 32.732 13.6302 45.2834C13.6302 45.8515 13.6781 46.4316 13.8057 46.9838C14.4815 49.9383 17.0551 51.8979 20.2468 51.8999C33.2706 51.9039 46.2944 51.8999 59.3182 51.8999C63.1956 51.8999 67.073 51.9179 70.9504 51.8919C73.7254 51.874 76.1297 50.0858 76.9749 47.4982C77.0806 47.1752 77.0527 46.8124 77.2819 46.5293V6.40736C77.246 6.37746 77.1863 6.35354 77.1783 6.31566H77.1763ZM16.8299 43.0925V42.3887C16.8299 30.8541 16.8618 19.3195 16.8039 7.7849C16.792 5.45246 18.4785 4.13672 20.4581 4.1427C37.1381 4.18855 53.82 4.16862 70.4999 4.17061C72.8264 4.17061 74.1082 5.4385 74.1102 7.75101C74.1122 17.1226 74.1102 26.4943 74.1102 35.8679V36.4719C72.635 34.7535 71.2953 33.1965 69.9597 31.6376C66.8378 27.9954 63.7199 24.3512 60.598 20.711C58.1858 17.8981 54.9722 17.946 52.5959 20.8067C48.7544 25.4337 44.8889 30.0408 41.0613 34.6777C40.6427 35.1861 40.4453 35.1482 40.0227 34.7056C38.8067 33.4278 37.5427 32.1938 36.2888 30.9518C34.2035 28.8845 31.2671 28.8606 29.1838 30.9319C25.3224 34.7694 21.4788 38.6269 17.6353 42.4824C17.414 42.7037 17.2545 42.9848 17.0671 43.24C16.9874 43.1921 16.9076 43.1463 16.8279 43.0984L16.8299 43.0925ZM74.1082 45.2196C74.0943 47.4244 72.7845 48.7302 70.5657 48.7302C62.1908 48.7342 53.814 48.7302 45.4391 48.7302C37.0882 48.7302 28.7373 48.7262 20.3864 48.7342C19.3477 48.7342 18.4307 48.479 17.6831 47.7175C17.418 47.4464 17.3382 47.253 17.6612 46.932C22.2942 42.321 26.9072 37.692 31.5382 33.0789C32.2898 32.3293 33.1948 32.3592 33.9743 33.1307C35.7406 34.8791 37.4929 36.6434 39.2492 38.3997C40.3297 39.4782 41.2029 39.4483 42.1817 38.2741C46.4937 33.1048 50.8018 27.9296 55.1078 22.7564C56.1265 21.5323 57.0914 21.5104 58.122 22.7125C63.2973 28.749 68.4645 34.7894 73.6477 40.8178C73.9766 41.2006 74.1321 41.5794 74.1162 42.0877C74.0823 43.1303 74.1122 44.175 74.1042 45.2196H74.1082Z" fill="url(#paint2_radial_1231_907)" stroke="url(#paint3_radial_1231_907)" stroke-width="0.5"/>
<path d="M29.5504 10.5519C26.0198 10.5479 23.1252 13.4525 23.1731 16.9511C23.2209 20.4498 26.0876 23.2766 29.5783 23.2627C33.061 23.2487 35.9317 20.3621 35.9177 16.8893C35.9058 13.3927 33.057 10.5559 29.5504 10.5539V10.5519ZM29.5943 20.089C27.8419 20.1308 26.3767 18.6736 26.3787 16.8933C26.3807 15.139 27.7861 13.7256 29.5305 13.7196C31.2768 13.7136 32.6942 15.1171 32.7082 16.8694C32.7221 18.6237 31.3446 20.0491 29.5923 20.091L29.5943 20.089Z" fill="url(#paint4_radial_1231_907)" stroke="url(#paint5_radial_1231_907)" stroke-width="0.5"/>
<defs>
<radialGradient id="paint0_radial_1231_907" cx="0" cy="0" r="1" gradientUnits="userSpaceOnUse" gradientTransform="translate(33.0195 48.6379) rotate(-90) scale(21.2563 64.8543)">
<stop stop-color="#E21118"/>
<stop offset="1" stop-color="#AE0F13"/>
</radialGradient>
<radialGradient id="paint1_radial_1231_907" cx="0" cy="0" r="1" gradientUnits="userSpaceOnUse" gradientTransform="translate(33.0195 48.6379) rotate(-90) scale(21.2563 64.8543)">
<stop stop-color="#E21118"/>
<stop offset="1" stop-color="#AE0F13"/>
</radialGradient>
<radialGradient id="paint2_radial_1231_907" cx="0" cy="0" r="1" gradientUnits="userSpaceOnUse" gradientTransform="translate(45.4512 26.8928) rotate(-90) scale(23.7763 64.3308)">
<stop stop-color="#E21118"/>
<stop offset="1" stop-color="#AE0F13"/>
</radialGradient>
<radialGradient id="paint3_radial_1231_907" cx="0" cy="0" r="1" gradientUnits="userSpaceOnUse" gradientTransform="translate(45.4512 26.8928) rotate(-90) scale(23.7763 64.3308)">
<stop stop-color="#E21118"/>
<stop offset="1" stop-color="#AE0F13"/>
</radialGradient>
<radialGradient id="paint4_radial_1231_907" cx="0" cy="0" r="1" gradientUnits="userSpaceOnUse" gradientTransform="translate(29.5451 17.0171) rotate(-90) scale(5.93677 12.8793)">
<stop stop-color="#E21118"/>
<stop offset="1" stop-color="#AE0F13"/>
</radialGradient>
<radialGradient id="paint5_radial_1231_907" cx="0" cy="0" r="1" gradientUnits="userSpaceOnUse" gradientTransform="translate(29.5451 17.0171) rotate(-90) scale(5.93677 12.8793)">
<stop stop-color="#E21118"/>
<stop offset="1" stop-color="#AE0F13"/>
</radialGradient>
</defs>
</svg>
