<svg width="28" height="26" viewBox="0 0 28 26" fill="none" xmlns="http://www.w3.org/2000/svg">
<rect x="2" y="2" width="24" height="22" fill="white"/>
<path fill-rule="evenodd" clip-rule="evenodd" d="M0 3.5C0 1.567 1.567 0 3.5 0H24.5C26.433 0 28 1.567 28 3.5V22.5C28 24.433 26.433 26 24.5 26H3.5C1.567 26 0 24.433 0 22.5V3.5ZM3.5 3C3.22386 3 3 3.22386 3 3.5V7.5L8.5 7.5L8.5 3H3.5ZM11.5 3V7.5L16.5 7.5V3H11.5ZM19.5 3V7.5L25 7.5V3.5C25 3.22386 24.7761 3 24.5 3H19.5ZM25 10.5L19.5 10.5V15.5L25 15.5V10.5ZM25 18.5H19.5V23H24.5C24.7761 23 25 22.7761 25 22.5V18.5ZM16.5 23V18.5L11.5 18.5V23H16.5ZM8.5 23V18.5H3V22.5C3 22.7761 3.22386 23 3.5 23H8.5ZM3 15.5L8.5 15.5V10.5L3 10.5V15.5ZM11.5 10.5L11.5 15.5H16.5V10.5L11.5 10.5Z" fill="#252525"/>
</svg>
