<svg width="11" height="11" viewBox="0 0 11 11" fill="none" xmlns="http://www.w3.org/2000/svg">
<path d="M5.84144 9.88406C5.81114 9.88444 5.78152 9.87463 5.75687 9.85604H5.74363C4.83495 9.21163 0.347896 5.84075 1.25326 2.79032C1.565 1.73966 2.30454 1.09701 3.27955 1.02697C3.78459 1.00069 4.28728 1.11535 4.73702 1.35943C5.18676 1.60351 5.56767 1.96838 5.84144 2.41734C6.11469 1.96827 6.49529 1.60326 6.9448 1.35915C7.39431 1.11503 7.89682 1.00046 8.40166 1.02697C9.37667 1.09701 10.1163 1.73966 10.428 2.79032C11.3334 5.84075 6.84631 9.21163 5.93762 9.85604H5.92434C5.9002 9.87438 5.87118 9.88419 5.84144 9.88406ZM3.45201 1.32991H3.29943C2.45542 1.3912 1.80709 1.95329 1.54012 2.87262C0.720984 5.63587 4.82331 8.79487 5.84144 9.52683C6.8579 8.79487 10.9602 5.63587 10.1411 2.87262C9.86749 1.95329 9.22579 1.3912 8.38178 1.32991C7.88882 1.3032 7.39914 1.42833 6.97228 1.69009C6.54543 1.95185 6.19979 2.33895 5.97742 2.80433C5.96529 2.83184 5.94595 2.85513 5.92171 2.87145C5.89748 2.88776 5.86937 2.89643 5.84063 2.89643C5.81188 2.89643 5.78373 2.88776 5.7595 2.87145C5.73526 2.85513 5.71592 2.83184 5.70379 2.80433C5.49297 2.36353 5.1714 1.99249 4.77422 1.73182C4.37705 1.47114 3.91962 1.33088 3.45201 1.3264V1.32991Z" fill="#252525" stroke="#252525" stroke-width="0.553803"/>
</svg>
