<svg width="25" height="22" viewBox="0 0 25 22" fill="none" xmlns="http://www.w3.org/2000/svg">
<path d="M12.5018 21C12.4342 21.0008 12.3682 20.9787 12.3132 20.9367H12.2836C10.2568 19.4822 0.248103 11.8737 2.26758 4.98856C2.96294 2.61708 4.61254 1.16655 6.78736 1.00845C7.91388 0.949128 9.03517 1.20793 10.0383 1.75885C11.0415 2.30977 11.8911 3.13334 12.5018 4.14668C13.1113 3.13308 13.9603 2.30922 14.9629 1.75822C15.9656 1.20723 17.0865 0.94862 18.2125 1.00845C20.3874 1.16655 22.0371 2.61708 22.7324 4.98856C24.7519 11.8737 14.7432 19.4822 12.7164 20.9367H12.6867C12.6329 20.9781 12.5682 21.0003 12.5018 21ZM7.17204 1.69222H6.8317C4.94907 1.83056 3.50294 3.09927 2.90745 5.17431C1.0803 11.4113 10.2308 18.5415 12.5018 20.1937C14.7691 18.5415 23.9196 11.4113 22.0925 5.17431C21.4822 3.09927 20.0508 1.83056 18.1682 1.69222C17.0686 1.63194 15.9764 1.91437 15.0242 2.5052C14.0721 3.09602 13.3011 3.96976 12.8051 5.02016C12.7781 5.08227 12.7349 5.13483 12.6809 5.17166C12.6268 5.20849 12.5641 5.22806 12.5 5.22806C12.4359 5.22806 12.3731 5.20849 12.319 5.17166C12.265 5.13483 12.2218 5.08227 12.1948 5.02016C11.7245 4.02522 11.0072 3.18775 10.1213 2.59938C9.2354 2.011 8.21507 1.69441 7.17204 1.68431V1.69222Z" fill="#252525" stroke="#252525" stroke-width="2"/>
</svg>
