<svg width="17" height="16" viewBox="0 0 17 16" fill="none" xmlns="http://www.w3.org/2000/svg">
<path d="M8.5181 14.7905C8.4694 14.7911 8.42177 14.7753 8.38212 14.7454H8.36084C6.89974 13.7092 -0.315122 8.28909 1.14064 3.38422C1.6419 1.69483 2.83103 0.661495 4.39878 0.548869C5.21085 0.506607 6.01913 0.690975 6.74228 1.08344C7.46543 1.4759 8.0779 2.0626 8.5181 2.78448C8.95748 2.06242 9.56945 1.47551 10.2922 1.08299C11.015 0.690472 11.823 0.506244 12.6348 0.548869C14.2025 0.661495 15.3917 1.69483 15.893 3.38422C17.3487 8.28909 10.1339 13.7092 8.67277 14.7454H8.65141C8.61259 14.7749 8.56593 14.7907 8.5181 14.7905ZM4.67608 1.03597H4.43074C3.07362 1.13452 2.03116 2.03833 1.6019 3.51655C0.284777 7.95965 6.88103 13.0391 8.5181 14.216C10.1525 13.0391 16.7488 7.95965 15.4316 3.51655C14.9917 2.03833 13.9599 1.13452 12.6028 1.03597C11.8102 0.993026 11.0228 1.19423 10.3364 1.61512C9.65007 2.03602 9.09431 2.65845 8.73675 3.40673C8.71725 3.45098 8.68615 3.48842 8.64718 3.51466C8.60822 3.54089 8.56301 3.55484 8.5168 3.55484C8.47059 3.55484 8.42532 3.54089 8.38635 3.51466C8.34739 3.48842 8.31629 3.45098 8.29678 3.40673C7.95779 2.69796 7.44073 2.10136 6.8021 1.68221C6.16348 1.26306 5.42796 1.03753 4.67608 1.03034V1.03597Z" fill="#252525" stroke="#252525" stroke-width="0.890476"/>
</svg>
