<svg width="28" height="25" viewBox="0 0 28 25" fill="none" xmlns="http://www.w3.org/2000/svg">
<path d="M26.6128 10.9051L16.2549 1.10573C15.8963 0.755228 15.4702 0.477142 15.0011 0.287402C14.532 0.0976626 14.0291 0 13.5212 0C13.0133 0 12.5104 0.0976626 12.0413 0.287402C11.5722 0.477142 11.1461 0.755228 10.7875 1.10573L0.429562 10.9051C0.298053 11.0245 0.192373 11.1684 0.118677 11.3282C0.0449807 11.488 0.00474787 11.6606 0.000395353 11.8358C-0.00395717 12.0109 0.0276676 12.1852 0.0933397 12.3483C0.159012 12.5114 0.257421 12.6601 0.382843 12.7856C0.508265 12.9111 0.658163 13.011 0.823711 13.0793C0.989258 13.1476 1.16712 13.183 1.34689 13.1834C1.52667 13.1838 1.7047 13.1492 1.87057 13.0816C2.03644 13.0141 2.18682 12.9149 2.31284 12.7899L2.7212 12.4018V22.3689C2.7212 23.0668 3.00566 23.7362 3.51201 24.2297C4.01836 24.7232 4.70512 25.0005 5.4212 25.0005H8.1212C8.83728 25.0005 9.52404 24.7232 10.0304 24.2297C10.5367 23.7362 10.8212 23.0668 10.8212 22.3689V19.7373C10.8212 19.3883 10.9635 19.0537 11.2166 18.8069C11.4698 18.5601 11.8132 18.4215 12.1712 18.4215H14.8712C15.2292 18.4215 15.5726 18.5601 15.8258 18.8069C16.0789 19.0537 16.2212 19.3883 16.2212 19.7373V22.3689C16.2212 23.0668 16.5057 23.7362 17.012 24.2297C17.5184 24.7232 18.2051 25.0005 18.9212 25.0005H21.6212C22.3373 25.0005 23.024 24.7232 23.5304 24.2297C24.0367 23.7362 24.3212 23.0668 24.3212 22.3689V12.4018L24.7296 12.7899C24.8556 12.9149 25.006 13.0141 25.1718 13.0816C25.3377 13.1492 25.5157 13.1838 25.6955 13.1834C25.8753 13.183 26.0531 13.1476 26.2187 13.0793C26.3842 13.011 26.5341 12.9111 26.6596 12.7856C26.785 12.6601 26.8834 12.5114 26.9491 12.3483C27.0147 12.1852 27.0464 12.0109 27.042 11.8358C27.0377 11.6606 26.9974 11.488 26.9237 11.3282C26.85 11.1684 26.7443 11.0245 26.6128 10.9051Z" fill="#E51C21"/>
</svg>
