<svg width="32" height="32" viewBox="0 0 32 32" fill="none" xmlns="http://www.w3.org/2000/svg">
<path d="M15.9993 0C7.16394 0 0 7.16394 0 15.9993C0 24.8347 7.16394 32 15.9993 32C24.8347 32 32 24.8347 32 15.9993C32 7.16394 24.8347 0 15.9993 0ZM19.33 24.7968C18.5065 25.1219 17.8509 25.3684 17.3592 25.539C16.8689 25.7097 16.2987 25.795 15.6499 25.795C14.653 25.795 13.8768 25.5512 13.3242 25.065C12.7716 24.5787 12.4966 23.9624 12.4966 23.2134C12.4966 22.9222 12.5169 22.6242 12.5575 22.3208C12.5995 22.0174 12.6659 21.676 12.7567 21.2927L13.7874 17.6518C13.8782 17.3023 13.9567 16.9705 14.019 16.6617C14.0814 16.3501 14.1112 16.0643 14.1112 15.8043C14.1112 15.341 14.015 15.016 13.824 14.8331C13.6303 14.6502 13.2659 14.5608 12.7228 14.5608C12.4573 14.5608 12.1837 14.6001 11.9033 14.6828C11.6257 14.7681 11.3846 14.8453 11.1868 14.9211L11.459 13.7996C12.1336 13.5247 12.7797 13.289 13.396 13.0939C14.0123 12.8962 14.5947 12.7986 15.1433 12.7986C16.1334 12.7986 16.8974 13.0397 17.4351 13.5165C17.9701 13.9947 18.2397 14.6164 18.2397 15.3803C18.2397 15.5388 18.2207 15.8178 18.1841 16.216C18.1476 16.6156 18.0785 16.98 17.9782 17.3145L16.9529 20.9446C16.8689 21.2358 16.7944 21.569 16.7267 21.9415C16.6603 22.314 16.6278 22.5984 16.6278 22.7894C16.6278 23.2716 16.7348 23.6008 16.9515 23.7755C17.1655 23.9502 17.5407 24.0383 18.0717 24.0383C18.3223 24.0383 18.6027 23.9936 18.9196 23.9069C19.2339 23.8202 19.4614 23.743 19.605 23.6766L19.33 24.7968ZM19.1485 10.0626C18.6704 10.5068 18.0947 10.729 17.4215 10.729C16.7497 10.729 16.17 10.5068 15.6878 10.0626C15.2083 9.61829 14.9658 9.07784 14.9658 8.44665C14.9658 7.8168 15.2097 7.275 15.6878 6.82667C16.17 6.37697 16.7497 6.15348 17.4215 6.15348C18.0947 6.15348 18.6717 6.37697 19.1485 6.82667C19.6267 7.275 19.8664 7.8168 19.8664 8.44665C19.8664 9.0792 19.6267 9.61829 19.1485 10.0626Z" fill="url(#paint0_linear_1453_1102)"/>
<defs>
<linearGradient id="paint0_linear_1453_1102" x1="16" y1="31.2225" x2="16" y2="1.33045" gradientUnits="userSpaceOnUse">
<stop stop-color="#E21118"/>
<stop offset="1" stop-color="#AE0F13"/>
</linearGradient>
</defs>
</svg>
