<svg width="26" height="25" viewBox="0 0 26 25" fill="none" xmlns="http://www.w3.org/2000/svg">
<g opacity="0.8">
<path d="M15.0843 12.4509C15.0843 13.7671 14.0173 14.8341 12.7011 14.8341C11.3849 14.8341 10.3179 13.7671 10.3179 12.4509C10.3179 11.1347 11.3849 10.0677 12.7011 10.0677C14.0173 10.0677 15.0843 11.1347 15.0843 12.4509Z" fill="white"/>
<path d="M18.2745 8.23434C18.1599 7.92391 17.9771 7.64292 17.7397 7.41228C17.509 7.17479 17.2282 6.99203 16.9176 6.87747C16.6657 6.77962 16.2872 6.66316 15.5902 6.63144C14.8361 6.59705 14.61 6.58964 12.7011 6.58964C10.7919 6.58964 10.5658 6.59686 9.81194 6.63125C9.11489 6.66316 8.73624 6.77962 8.48451 6.87747C8.17389 6.99203 7.8929 7.17479 7.66245 7.41228C7.42496 7.64292 7.2422 7.92372 7.12745 8.23434C7.0296 8.48626 6.91314 8.86491 6.88142 9.56196C6.84703 10.3158 6.83962 10.5419 6.83962 12.4511C6.83962 14.36 6.84703 14.5861 6.88142 15.3402C6.91314 16.0372 7.0296 16.4157 7.12745 16.6676C7.2422 16.9782 7.42477 17.259 7.66226 17.4897C7.8929 17.7272 8.1737 17.9099 8.48432 18.0245C8.73624 18.1225 9.11489 18.239 9.81194 18.2707C10.5658 18.3051 10.7917 18.3123 12.7009 18.3123C14.6102 18.3123 14.8363 18.3051 15.59 18.2707C16.287 18.239 16.6657 18.1225 16.9176 18.0245C17.5411 17.784 18.0339 17.2911 18.2745 16.6676C18.3723 16.4157 18.4888 16.0372 18.5207 15.3402C18.5551 14.5861 18.5623 14.36 18.5623 12.4511C18.5623 10.5419 18.5551 10.3158 18.5207 9.56196C18.489 8.86491 18.3725 8.48626 18.2745 8.23434ZM12.7011 16.1222C10.6733 16.1222 9.02958 14.4786 9.02958 12.4509C9.02958 10.4232 10.6733 8.7796 12.7011 8.7796C14.7286 8.7796 16.3723 10.4232 16.3723 12.4509C16.3723 14.4786 14.7286 16.1222 12.7011 16.1222ZM16.5175 9.49243C16.0437 9.49243 15.6595 9.10828 15.6595 8.63445C15.6595 8.16063 16.0437 7.77648 16.5175 7.77648C16.9913 7.77648 17.3755 8.16063 17.3755 8.63445C17.3753 9.10828 16.9913 9.49243 16.5175 9.49243Z" fill="white"/>
<path d="M12.7011 0C5.82572 0 0.250214 5.57551 0.250214 12.4509C0.250214 19.3263 5.82572 24.9018 12.7011 24.9018C19.5765 24.9018 25.152 19.3263 25.152 12.4509C25.152 5.57551 19.5765 0 12.7011 0ZM19.8075 15.3985C19.7729 16.1596 19.6519 16.6792 19.4752 17.134C19.1038 18.0944 18.3446 18.8536 17.3843 19.225C16.9296 19.4017 16.4098 19.5225 15.6489 19.5573C14.8865 19.5921 14.643 19.6004 12.7013 19.6004C10.7595 19.6004 10.5161 19.5921 9.75348 19.5573C8.99259 19.5225 8.47279 19.4017 8.01815 19.225C7.54091 19.0455 7.10888 18.7641 6.75171 18.4003C6.38808 18.0433 6.10671 17.6111 5.92717 17.134C5.75049 16.6794 5.62947 16.1596 5.59489 15.3987C5.55974 14.6361 5.55157 14.3925 5.55157 12.4509C5.55157 10.5092 5.55974 10.2657 5.5947 9.50327C5.62928 8.74219 5.75011 8.22258 5.92679 7.76775C6.10633 7.2907 6.38789 6.85848 6.75171 6.5015C7.10869 6.13767 7.54091 5.85631 8.01796 5.67677C8.47279 5.50008 8.9924 5.37925 9.75348 5.34448C10.5159 5.30972 10.7595 5.30136 12.7011 5.30136C14.6428 5.30136 14.8863 5.30972 15.6487 5.34467C16.4098 5.37925 16.9294 5.50008 17.3843 5.67658C17.8613 5.85612 18.2935 6.13767 18.6507 6.5015C19.0143 6.85867 19.2959 7.2907 19.4752 7.76775C19.6521 8.22258 19.7729 8.74219 19.8077 9.50327C19.8425 10.2657 19.8506 10.5092 19.8506 12.4509C19.8506 14.3925 19.8425 14.6361 19.8075 15.3985Z" fill="white"/>
</g>
</svg>
