<svg width="26" height="25" viewBox="0 0 26 25" fill="none" xmlns="http://www.w3.org/2000/svg">
<path opacity="0.8" fill-rule="evenodd" clip-rule="evenodd" d="M13.2814 24.9019C6.40599 24.9019 0.830429 19.3263 0.830429 12.4509C0.830429 5.57557 6.40599 0 13.2814 0C20.1567 0 25.7323 5.57557 25.7323 12.4509C25.7323 19.3263 20.1567 24.9019 13.2814 24.9019ZM13.2814 4.35233C16.6874 4.35233 19.4485 7.1134 19.4485 10.5195C19.4485 13.9254 13.2814 20.5494 13.2814 20.5494C13.2814 20.5494 7.11423 13.9254 7.11423 10.5195C7.11423 7.1134 9.87529 4.35233 13.2814 4.35233ZM13.2814 8.06918C14.5727 8.06918 15.62 9.11643 15.62 10.4079C15.62 11.6993 14.5727 12.7465 13.2814 12.7465C11.99 12.7465 10.9427 11.6993 10.9427 10.4079C10.9427 9.11643 11.99 8.06918 13.2814 8.06918Z" fill="white"/>
</svg>
