<svg width="27" height="27" viewBox="0 0 27 27" fill="none" xmlns="http://www.w3.org/2000/svg">
<path fill-rule="evenodd" clip-rule="evenodd" d="M13.5 27C6.04534 27 0 20.9547 0 13.5C0 6.04534 6.04534 0 13.5 0C20.9547 0 27 6.04534 27 13.5C27 20.9547 20.9547 27 13.5 27ZM13.5 4.71905C17.193 4.71905 20.1868 7.71275 20.1868 11.4058C20.1868 15.0987 13.5 22.2808 13.5 22.2808C13.5 22.2808 6.81325 15.0987 6.81325 11.4058C6.81325 7.71275 9.80695 4.71905 13.5 4.71905ZM13.5 8.74906C14.9002 8.74906 16.0357 9.88455 16.0357 11.2848C16.0357 12.685 14.9002 13.8205 13.5 13.8205C12.0998 13.8205 10.9643 12.685 10.9643 11.2848C10.9643 9.88455 12.0998 8.74906 13.5 8.74906Z" fill="#E51C21"/>
</svg>
