<svg width="16" height="16" viewBox="0 0 16 16" fill="none" xmlns="http://www.w3.org/2000/svg">
<path fill-rule="evenodd" clip-rule="evenodd" d="M8 8C9.10457 8 10 8.89543 10 10C10 11.1046 9.10457 12 8 12C6.89543 12 6 11.1046 6 10C6.00329 8.8968 6.8968 8.00329 8 8ZM8 2C6.8968 2.00329 6.00329 2.8968 6 4H10C9.99671 2.8968 9.1032 2.00329 8 2ZM13 16H3C1.8968 15.9967 1.00329 15.1032 1 14V6C1.00329 4.8968 1.8968 4.00329 3 4H4C4 1.79086 5.79086 0 8 0C10.2091 0 12 1.79086 12 4H13C14.1032 4.00329 14.9967 4.8968 15 6V14C14.9967 15.1032 14.1032 15.9967 13 16Z" fill="#8A8DA1"/>
</svg>
