<svg width="15" height="15" viewBox="0 0 15 15" fill="none" xmlns="http://www.w3.org/2000/svg">
<path d="M14.0516 12.2129L10.7427 8.90377C11.3049 8.00871 11.6312 6.95081 11.6312 5.81549C11.6312 2.6035 9.02736 0 5.81549 0C2.60362 0 0 2.6035 0 5.81549C0 9.0276 2.6035 11.6309 5.81549 11.6309C7.05102 11.6309 8.19543 11.2446 9.13713 10.5882L12.4067 13.858C12.6339 14.085 12.9317 14.198 13.2292 14.198C13.527 14.198 13.8244 14.085 14.052 13.858C14.506 13.4035 14.506 12.6673 14.0516 12.2129ZM5.81549 9.74672C3.64455 9.74672 1.8845 7.98678 1.8845 5.81573C1.8845 3.64468 3.64455 1.88462 5.81549 1.88462C7.98654 1.88462 9.74648 3.64468 9.74648 5.81573C9.74648 7.98678 7.98654 9.74672 5.81549 9.74672Z" fill="#252525"/>
</svg>
