<svg width="21" height="20" viewBox="0 0 21 20" fill="none" xmlns="http://www.w3.org/2000/svg">
<path d="M19.5979 17.0334L14.9829 12.4181C15.767 11.1698 16.2221 9.69433 16.2221 8.11088C16.2221 3.6311 12.5905 0 8.11088 0C3.63127 0 0 3.6311 0 8.11088C0 12.5908 3.6311 16.2216 8.11088 16.2216C9.83408 16.2216 11.4302 15.6829 12.7436 14.7674L17.3036 19.3278C17.6205 19.6443 18.0359 19.802 18.4508 19.802C18.8661 19.802 19.281 19.6443 19.5984 19.3278C20.2316 18.6939 20.2316 17.6671 19.5979 17.0334ZM8.11088 13.5938C5.08307 13.5938 2.62831 11.1392 2.62831 8.11122C2.62831 5.08324 5.08307 2.62848 8.11088 2.62848C11.1389 2.62848 13.5934 5.08324 13.5934 8.11122C13.5934 11.1392 11.1389 13.5938 8.11088 13.5938Z" fill="white"/>
</svg>
