<svg width="26" height="25" viewBox="0 0 26 25" fill="none" xmlns="http://www.w3.org/2000/svg">
<path opacity="0.8" fill-rule="evenodd" clip-rule="evenodd" d="M13.1609 25C6.26834 25 0.660866 19.3925 0.660866 12.5C0.660866 5.60747 6.26834 0 13.1609 0C20.0534 0 25.6609 5.60747 25.6609 12.5C25.6609 19.3925 20.0534 25 13.1609 25ZM19.6432 16.8912C19.7973 16.8912 19.9227 16.7658 19.9227 16.6116V8.76411L13.5629 13.8145C13.4452 13.908 13.303 13.9547 13.1608 13.9547C13.0187 13.9547 12.8765 13.908 12.7588 13.8145L6.39895 8.76411V16.6116C6.39895 16.7658 6.52439 16.8912 6.67849 16.8912H19.6432ZM18.6686 8.10884L13.1609 12.4826L7.6531 8.10884H18.6686ZM21.2158 8.38838V16.6117C21.2158 17.4789 20.5103 18.1844 19.6432 18.1844H6.67849C5.81131 18.1844 5.10589 17.4789 5.10589 16.6117V8.38838C5.10589 7.52124 5.81135 6.81577 6.67849 6.81577H19.6432C20.5103 6.81572 21.2158 7.52124 21.2158 8.38838Z" fill="white"/>
</svg>
