<svg width="43" height="43" viewBox="0 0 43 43" fill="none" xmlns="http://www.w3.org/2000/svg">
<circle opacity="0.5" cx="21.5" cy="21.5" r="21.5" fill="#E7E7E7"/>
<path d="M24.6667 30L28.2222 30C29.2041 30 30 29.2041 30 28.2222L30 24.6667C30 23.6848 29.2041 22.8889 28.2222 22.8889L24.6667 22.8889C23.6848 22.8889 22.8889 23.6848 22.8889 24.6667L22.8889 28.2222C22.8889 29.2041 23.6848 30 24.6667 30Z" fill="white"/>
<path d="M24.6667 21.1111L28.2222 21.1111C29.2041 21.1111 30 20.3152 30 19.3334L30 15.7778C30 14.796 29.2041 14 28.2222 14L24.6667 14C23.6848 14 22.8889 14.796 22.8889 15.7778L22.8889 19.3334C22.8889 20.3152 23.6848 21.1111 24.6667 21.1111Z" fill="white"/>
<path d="M15.7778 21.1111L19.3333 21.1111C20.3151 21.1111 21.1111 20.3152 21.1111 19.3334L21.1111 15.7778C21.1111 14.796 20.3151 14 19.3333 14L15.7778 14C14.7959 14 14 14.796 14 15.7778L14 19.3334C14 20.3152 14.7959 21.1111 15.7778 21.1111Z" fill="white"/>
<path d="M17.5555 22.8889C15.5919 22.8889 14 24.4808 14 26.4444C14 28.4081 15.5919 30 17.5555 30C19.5192 30 21.1111 28.4081 21.1111 26.4444C21.1111 24.4808 19.5192 22.8889 17.5555 22.8889Z" fill="white"/>
</svg>
