<svg width="25" height="25" viewBox="0 0 25 25" fill="none" xmlns="http://www.w3.org/2000/svg">
<path opacity="0.8" d="M21.2538 3.64547C16.3906 -1.21618 8.50712 -1.21502 3.64547 3.64814C-1.21618 8.5113 -1.21502 16.3948 3.64814 21.2564C8.5113 26.1181 16.3948 26.1169 21.2564 21.2538C23.5913 18.9182 24.9026 15.7507 24.9019 12.4483C24.9012 9.14635 23.5889 5.97992 21.2538 3.64547ZM18.8565 17.344L18.8549 17.3457V17.3415L18.224 17.9682C17.4081 18.7944 16.2199 19.1343 15.0905 18.8647C13.9526 18.5601 12.871 18.0753 11.8865 17.4287C10.9718 16.8441 10.1242 16.1608 9.35894 15.3909C8.65483 14.6919 8.02226 13.9244 7.47053 13.0999C6.86705 12.2127 6.38939 11.2462 6.05112 10.2279C5.66334 9.03161 5.98469 7.71896 6.8812 6.83709L7.61994 6.09835C7.82533 5.89203 8.15907 5.8913 8.36534 6.09669L10.6995 8.43081C10.9058 8.6362 10.9065 8.96994 10.7011 9.17621L9.32985 10.5475C8.93687 10.9362 8.88745 11.5538 9.21366 12.0001C9.70902 12.6799 10.2572 13.3196 10.853 13.9134C11.5174 14.5806 12.2396 15.1875 13.0112 15.7271C13.457 16.0381 14.0615 15.9856 14.4472 15.6026L15.7711 14.2579C15.9765 14.0516 16.3103 14.0508 16.5165 14.2562L18.8548 16.5987C19.0612 16.804 19.0619 17.1377 18.8565 17.344Z" fill="white"/>
</svg>
