<svg width="72" height="72" viewBox="0 0 72 72" fill="none" xmlns="http://www.w3.org/2000/svg">
<path d="M67.5259 9.30355C65.998 8.70289 64.4856 8.06141 62.95 7.47824C62.5457 7.32468 62.3377 7.09919 62.186 6.70846C61.5873 5.15336 60.9536 3.61185 60.3374 2.06258C60.1333 1.54939 59.8028 1.19172 59.2177 1.17811C58.5976 1.1645 58.2419 1.52606 58.0339 2.0723C57.9833 2.20837 57.9289 2.3425 57.8764 2.47662C57.2933 3.93454 56.6907 5.38468 56.1386 6.85426C55.8937 7.50546 55.293 7.55405 54.8012 7.6843C54.4455 7.7776 54.4319 7.25081 54.3016 6.9981C52.9701 4.44189 51.0223 2.52522 48.4253 1.27336C47.1579 0.662979 46.392 1.13729 46.39 2.53105C46.3881 5.9484 46.3822 9.3677 46.3978 12.7851C46.3997 13.2147 46.2889 13.4946 45.9293 13.7473C45.0585 14.3596 44.1973 14.9914 43.3751 15.6678C42.9921 15.9827 42.753 15.9322 42.3973 15.6445C41.5867 14.9914 40.7508 14.3674 39.8974 13.7745C39.5145 13.5082 39.394 13.2127 39.3979 12.752C39.4193 9.30938 39.4134 5.86676 39.4076 2.42608C39.4056 1.20921 38.6086 0.668811 37.5415 1.1956C32.9889 3.44662 30.4502 7.12446 30.145 12.1824C29.8981 16.2646 31.4338 19.7131 34.5012 22.4364C35.4732 23.2995 35.9805 24.3142 35.9261 25.6225C35.893 26.4214 35.9261 27.2223 35.9183 28.0212C35.9125 28.7444 36.171 29.726 35.8036 30.1206C35.3818 30.5755 34.3904 30.2722 33.6498 30.2509C31.6884 30.1945 30.0789 30.8982 28.7182 32.3036C27.1008 33.9773 25.4272 35.5946 23.7904 37.2489C23.0148 38.0322 22.1012 38.421 20.9951 38.4113C19.6285 38.3977 19.6285 38.4152 19.6285 37.0817C19.6285 36.864 19.6285 36.6463 19.6285 36.4266C19.6227 35.2952 19.2398 34.9162 18.089 34.9162C12.926 34.9162 7.76307 34.9162 2.59816 34.9162C1.36574 34.9162 1.01001 35.2758 1.01001 36.5218C1.01001 41.9997 1.01001 47.4795 1.01001 52.9574C1.01001 58.4353 1.01001 64.0103 1.01001 69.5387C1.01001 70.4912 1.40462 70.9792 2.24632 70.9811C7.627 70.9928 13.0096 70.9908 18.3903 70.9811C19.1581 70.9811 19.5955 70.5223 19.6208 69.7545C19.6402 69.15 19.6441 68.5415 19.6188 67.937C19.6033 67.589 19.716 67.5132 20.0601 67.4841C21.7785 67.3422 23.3297 67.6551 24.6185 68.9011C25.017 69.2841 25.4971 69.5835 25.952 69.9061C26.9473 70.6118 28.0592 70.985 29.2799 70.985C36.8922 70.9908 44.5025 71.0044 52.1148 70.9811C55.7382 70.9694 57.9056 67.4141 56.2961 64.1678C56.1211 63.814 56.1619 63.7207 56.506 63.5496C59.1458 62.2278 59.97 59.2517 58.3818 56.8024C58.1777 56.4875 58.1272 56.3514 58.479 56.0812C60.975 54.149 60.9886 50.6928 58.5063 48.7119C58.1505 48.4281 58.1622 48.2921 58.3974 47.9305C59.3849 46.4046 59.486 44.7911 58.6209 43.1835C57.7559 41.5779 56.3563 40.7731 54.5368 40.7401C53.18 40.7148 51.8212 40.7129 50.4644 40.7459C49.992 40.7576 49.8676 40.6293 49.8696 40.153C49.889 35.233 49.8851 30.3111 49.8774 25.3912C49.8774 24.252 50.2972 23.3248 51.1545 22.5822C53.7204 20.3623 55.2153 17.5767 55.5904 14.1963C55.6099 14.0136 55.5496 13.7376 55.7557 13.6812C56.022 13.6093 56.09 13.8931 56.1853 14.0855C56.8054 15.3432 57.4293 16.597 58.0397 17.8586C58.2808 18.3562 58.6209 18.7081 59.1963 18.7042C59.7717 18.7003 60.108 18.3407 60.3452 17.845C60.9206 16.6476 61.5251 15.4637 62.0927 14.2624C62.2696 13.8911 62.499 13.6598 62.8955 13.5082C64.4526 12.9114 65.9883 12.266 67.5395 11.6557C68.0799 11.4438 68.4764 11.1269 68.4881 10.5107C68.5017 9.85562 68.0935 9.5271 67.5239 9.30355H67.5259ZM17.3114 68.005C17.3114 68.5454 17.189 68.6796 16.6427 68.6757C12.4245 68.6504 8.20822 68.6504 3.98999 68.6757C3.44764 68.6796 3.3174 68.5493 3.31935 68.007C3.34267 62.9898 3.33295 57.9726 3.33295 52.9535C3.33295 47.9344 3.34267 42.9192 3.31935 37.9001C3.3174 37.3597 3.44181 37.2255 3.98804 37.2294C8.20627 37.2547 12.4226 37.2547 16.6408 37.2294C17.1831 37.2255 17.3114 37.3558 17.3095 37.8981C17.2901 47.9324 17.292 57.9687 17.3095 68.0031L17.3114 68.005ZM54.5271 43.065C55.6313 43.065 56.5585 43.7453 56.8365 44.7173C57.1203 45.7048 56.7334 46.7583 55.8742 47.3318C55.4135 47.6389 54.9023 47.7225 54.3541 47.7225C51.5433 47.7128 48.7305 47.7186 45.9177 47.7186C45.7485 47.7186 45.5775 47.7147 45.4084 47.7186C44.5647 47.7361 44.0457 48.1949 44.0632 48.9083C44.0787 49.5906 44.5842 50.0377 45.3909 50.0416C47.014 50.0513 48.6391 50.0455 50.2622 50.0455C52.0312 50.0455 53.8021 50.0377 55.571 50.0474C56.9842 50.0552 58.0203 51.0485 58.0222 52.3703C58.0261 53.6961 56.9939 54.6991 55.5846 54.7011C52.3616 54.7088 49.1367 54.7011 45.9138 54.6991C45.7447 54.6991 45.5736 54.6952 45.4045 54.6991C44.5647 54.7186 44.0438 55.1812 44.0632 55.8927C44.0826 56.575 44.588 57.0201 45.3948 57.0221C48.3281 57.0318 51.2614 57.0279 54.1947 57.0318C54.461 57.0318 54.7332 57.0221 54.9917 57.0707C56.2105 57.2962 56.9939 58.3556 56.8889 59.6035C56.7898 60.7738 55.8179 61.6738 54.5854 61.6796C51.6774 61.6932 48.7674 61.6796 45.8593 61.6796C45.665 61.6796 45.4706 61.6718 45.2781 61.6816C44.5414 61.7204 44.0574 62.1928 44.0651 62.8557C44.0729 63.5185 44.5608 63.9948 45.3053 64.0006C47.535 64.0162 49.7646 64.0006 51.9962 64.0142C53.5027 64.0239 54.5252 65.13 54.3988 66.5802C54.2919 67.797 53.2889 68.6582 51.9456 68.6582C47.049 68.662 42.1524 68.6582 37.2557 68.6582C34.6859 68.6582 32.1161 68.6484 29.5482 68.664C28.6132 68.6698 27.787 68.4093 27.0542 67.834C26.8248 67.6551 26.5741 67.5015 26.3602 67.3072C24.6068 65.7073 22.5813 64.8909 20.1845 65.1747C19.6558 65.2369 19.6169 64.9881 19.6188 64.5605C19.6324 60.6824 19.6266 56.8043 19.6266 52.9244C19.6266 49.0444 19.6363 45.2168 19.6149 41.3621C19.613 40.8684 19.7063 40.6759 20.237 40.7245C22.5833 40.9364 24.4552 40.0539 26.0414 38.3297C27.4838 36.7609 29.0564 35.3127 30.5493 33.7887C31.3599 32.9606 32.3085 32.5427 33.471 32.5855C34.0755 32.6069 34.6859 32.6224 35.2885 32.5796C35.7822 32.5427 35.9436 32.6691 35.9339 33.1978C35.8989 35.233 35.9164 37.2702 35.9203 39.3055C35.9261 41.6109 37.3782 43.0591 39.6953 43.0611C44.6405 43.065 49.5858 43.0591 54.531 43.065H54.5271ZM53.3647 13.5101C53.1081 16.251 52.0856 18.6478 50.0018 20.4576C48.2348 21.9913 47.4922 23.8224 47.5291 26.1434C47.605 30.7699 47.5427 35.4002 47.5622 40.0267C47.5641 40.5573 47.4844 40.8062 46.876 40.7498C46.2034 40.6876 45.5172 40.6954 44.8427 40.7478C44.242 40.7945 44.0321 40.6662 44.0399 39.9878C44.0826 36.5471 44.0593 33.1064 44.0593 29.6658C44.0593 29.4714 44.069 29.277 44.0535 29.0845C43.999 28.3983 43.5208 27.9338 42.8852 27.9396C42.2495 27.9454 41.7539 28.412 41.7402 29.104C41.715 30.3869 41.7325 31.6718 41.7305 32.9568C41.7305 35.3555 41.7169 37.7543 41.7422 40.153C41.748 40.6273 41.6256 40.7867 41.1474 40.7459C40.642 40.7031 40.1307 40.742 39.6214 40.7342C38.6728 40.7206 38.2451 40.3046 38.2413 39.3599C38.2335 37.3247 38.2393 35.2894 38.2393 33.2542C38.2393 30.8554 38.181 28.4547 38.2568 26.0579C38.3287 23.7894 37.5298 22.0224 35.8347 20.4984C31.7292 16.8031 31.2724 10.6643 34.6839 6.31969C35.3274 5.49937 36.0758 4.78402 37.0769 4.1231C37.0769 7.28191 37.108 10.3066 37.0594 13.3274C37.0458 14.2294 37.3451 14.8145 38.078 15.3218C39.4095 16.2452 40.6789 17.2579 41.9793 18.2279C42.7219 18.7819 43.064 18.7839 43.8027 18.2357C45.2004 17.1957 46.5844 16.1344 47.9918 15.108C48.5108 14.7289 48.7266 14.2721 48.7227 13.6306C48.7032 10.5088 48.713 7.38882 48.713 4.18336C49.4264 4.54103 49.9279 5.04644 50.4275 5.54991C51.2011 6.32941 51.8057 7.22943 52.3053 8.2072C52.4666 8.52017 52.486 8.70678 52.0817 8.83119C51.5977 8.97892 51.135 9.19081 50.6666 9.38325C50.1748 9.58736 49.8812 9.94503 49.8851 10.4932C49.889 11.0414 50.1923 11.3952 50.6821 11.5954C51.3294 11.8598 51.967 12.1708 52.6377 12.3555C53.2928 12.5362 53.4211 12.8939 53.3647 13.514V13.5101ZM61.7817 11.4379C60.9478 11.6945 60.4307 12.1999 60.1139 12.9969C59.8748 13.5976 59.5501 14.1652 59.1944 14.8864C58.7842 14.0661 58.4032 13.3585 58.0767 12.6276C57.8434 12.1047 57.4877 11.782 56.9512 11.5857C56.0783 11.2669 55.225 10.8937 54.1986 10.4777C55.1569 10.0947 55.9384 9.73898 56.747 9.47073C57.4741 9.22968 57.925 8.7962 58.17 8.06724C58.4441 7.25081 58.7978 6.45965 59.1905 5.47215C59.5832 6.45965 59.9389 7.24886 60.213 8.06724C60.4579 8.79814 60.9089 9.22774 61.6359 9.47073C62.4485 9.74093 63.2318 10.0967 64.1843 10.4796C63.2843 10.8451 62.5534 11.2027 61.7856 11.4379H61.7817Z" fill="url(#paint0_radial_1231_991)" stroke="url(#paint1_radial_1231_991)" stroke-width="0.5"/>
<path d="M32.6274 24.4347C31.0995 23.8321 29.5852 23.1984 28.0534 22.6036C27.6646 22.4539 27.4314 22.2517 27.2778 21.8455C26.6888 20.2884 26.0473 18.7488 25.4331 17.2015C25.2173 16.6572 24.8616 16.3132 24.1851 16.2976C23.6797 16.352 23.3356 16.6689 23.1296 17.1899C22.5172 18.7391 21.8796 20.2806 21.2809 21.8338C21.1312 22.2226 20.9271 22.4558 20.5209 22.6094C18.9852 23.1906 17.4729 23.8302 15.943 24.4289C15.3735 24.6505 14.9652 24.979 14.9788 25.6341C14.9905 26.2522 15.3871 26.5672 15.9255 26.779C17.4767 27.3875 19.0124 28.0328 20.5695 28.6257C20.968 28.7774 21.1973 29.0067 21.3742 29.378C21.9418 30.5793 22.5464 31.7632 23.1198 32.9625C23.357 33.4602 23.6875 33.8159 24.2667 33.8217C24.846 33.8256 25.1881 33.4757 25.4272 32.98C25.9832 31.8273 26.5722 30.6901 27.1067 29.5277C27.3225 29.0592 27.6122 28.7696 28.1059 28.583C29.6202 28.0115 31.1092 27.3758 32.6157 26.7849C33.1853 26.5613 33.5935 26.2289 33.5799 25.5758C33.5663 24.9615 33.1697 24.6447 32.6293 24.4308L32.6274 24.4347ZM27.3769 26.3533C26.1465 26.6741 25.3786 27.4186 24.9724 28.6082C24.8207 29.0534 24.5564 29.4597 24.2823 30.0078C23.8682 29.1759 23.4872 28.4644 23.1568 27.7296C22.9332 27.2339 22.6047 26.9151 22.0896 26.7285C21.209 26.4078 20.3498 26.0345 19.2923 25.6088C20.2507 25.222 21.0127 24.8701 21.8058 24.6058C22.5542 24.357 23.0246 23.9157 23.2734 23.1576C23.5397 22.347 23.8993 21.5675 24.2803 20.6228C24.6575 21.55 25.019 22.3042 25.2717 23.0954C25.5225 23.8807 25.9793 24.357 26.7646 24.6116C27.5616 24.8701 28.3256 25.2278 29.282 25.6127C28.553 25.9043 27.9834 26.1998 27.3789 26.3572L27.3769 26.3533Z" fill="url(#paint2_radial_1231_991)" stroke="url(#paint3_radial_1231_991)" stroke-width="0.5"/>
<path d="M69.6077 30.1439C68.2373 29.6035 66.8805 29.0281 65.4964 28.5207C64.923 28.3108 64.6139 27.9784 64.4039 27.4088C63.881 25.982 63.2687 24.5863 62.7225 23.1673C62.4951 22.5783 62.1879 22.1195 61.4959 22.1273C60.8408 22.1351 60.5395 22.5705 60.3198 23.1342C59.7328 24.6427 59.0991 26.1317 58.5237 27.6421C58.3624 28.0678 58.1135 28.2914 57.6995 28.4508C56.2124 29.0223 54.7448 29.6443 53.2577 30.2177C52.6687 30.4452 52.2061 30.7484 52.2138 31.4424C52.2216 32.1364 52.7056 32.4241 53.2849 32.6495C54.8148 33.2444 56.331 33.8761 57.8608 34.469C58.203 34.6012 58.4187 34.7956 58.5742 35.1241C59.1652 36.3682 59.7775 37.6006 60.3782 38.8408C60.6056 39.3112 60.9399 39.6242 61.5289 39.6456C62.0693 39.6378 62.4154 39.3074 62.6545 38.8117C63.2434 37.5948 63.8538 36.3876 64.4273 35.163C64.5944 34.8073 64.8316 34.607 65.1932 34.4671C66.6569 33.8995 68.109 33.3027 69.5689 32.7234C70.1909 32.4765 70.8207 32.2316 70.8129 31.4094C70.8052 30.6299 70.2084 30.381 69.6058 30.1439H69.6077ZM63.7975 32.5096C63.2415 32.7137 62.8586 33.0403 62.6175 33.5943C62.3065 34.3135 61.9255 35.0055 61.5134 35.8317C61.0877 34.9686 60.7067 34.228 60.3548 33.4738C60.1488 33.0306 59.8416 32.7429 59.379 32.5698C58.4809 32.2336 57.5984 31.8603 56.5195 31.4249C57.4915 31.0361 58.2924 30.6823 59.1166 30.3966C59.8125 30.1555 60.244 29.7279 60.4831 29.032C60.763 28.2136 61.1129 27.4166 61.5037 26.4349C61.8788 27.3544 62.2462 28.1203 62.5048 28.9212C62.7575 29.7046 63.2221 30.175 64.0054 30.4296C64.8005 30.6862 65.5625 31.0439 66.5131 31.4288C65.4906 31.8389 64.6508 32.1966 63.7955 32.5076L63.7975 32.5096Z" fill="url(#paint4_radial_1231_991)" stroke="url(#paint5_radial_1231_991)" stroke-width="0.5"/>
<path d="M10.3309 59.3547C8.41812 59.3586 6.8533 60.8962 6.82997 62.7935C6.80664 64.7257 8.37536 66.3236 10.3037 66.3294C12.234 66.3352 13.8046 64.7587 13.8046 62.8168C13.8046 60.9254 12.2243 59.3509 10.3309 59.3547ZM10.292 64.0045C9.66415 63.9929 9.15291 63.468 9.15486 62.8382C9.1568 62.2103 9.67387 61.6894 10.3017 61.6816C10.9588 61.6738 11.5011 62.2297 11.4759 62.8829C11.4506 63.5108 10.918 64.0162 10.292 64.0045Z" fill="url(#paint6_radial_1231_991)" stroke="url(#paint7_radial_1231_991)" stroke-width="0.5"/>
<defs>
<radialGradient id="paint0_radial_1231_991" cx="0" cy="0" r="1" gradientUnits="userSpaceOnUse" gradientTransform="translate(34.7492 36.599) rotate(-90) scale(32.6944 68.1879)">
<stop stop-color="#E21118"/>
<stop offset="1" stop-color="#AE0F13"/>
</radialGradient>
<radialGradient id="paint1_radial_1231_991" cx="0" cy="0" r="1" gradientUnits="userSpaceOnUse" gradientTransform="translate(34.7492 36.599) rotate(-90) scale(32.6944 68.1879)">
<stop stop-color="#E21118"/>
<stop offset="1" stop-color="#AE0F13"/>
</radialGradient>
<radialGradient id="paint2_radial_1231_991" cx="0" cy="0" r="1" gradientUnits="userSpaceOnUse" gradientTransform="translate(24.2794 25.2111) rotate(-90) scale(8.18488 18.7973)">
<stop stop-color="#E21118"/>
<stop offset="1" stop-color="#AE0F13"/>
</radialGradient>
<radialGradient id="paint3_radial_1231_991" cx="0" cy="0" r="1" gradientUnits="userSpaceOnUse" gradientTransform="translate(24.2794 25.2111) rotate(-90) scale(8.18488 18.7973)">
<stop stop-color="#E21118"/>
<stop offset="1" stop-color="#AE0F13"/>
</radialGradient>
<radialGradient id="paint4_radial_1231_991" cx="0" cy="0" r="1" gradientUnits="userSpaceOnUse" gradientTransform="translate(61.5134 31.0377) rotate(-90) scale(8.18219 18.7948)">
<stop stop-color="#E21118"/>
<stop offset="1" stop-color="#AE0F13"/>
</radialGradient>
<radialGradient id="paint5_radial_1231_991" cx="0" cy="0" r="1" gradientUnits="userSpaceOnUse" gradientTransform="translate(61.5134 31.0377) rotate(-90) scale(8.18219 18.7948)">
<stop stop-color="#E21118"/>
<stop offset="1" stop-color="#AE0F13"/>
</radialGradient>
<radialGradient id="paint6_radial_1231_991" cx="0" cy="0" r="1" gradientUnits="userSpaceOnUse" gradientTransform="translate(10.3172 62.9023) rotate(-90) scale(3.25762 7.04825)">
<stop stop-color="#E21118"/>
<stop offset="1" stop-color="#AE0F13"/>
</radialGradient>
<radialGradient id="paint7_radial_1231_991" cx="0" cy="0" r="1" gradientUnits="userSpaceOnUse" gradientTransform="translate(10.3172 62.9023) rotate(-90) scale(3.25762 7.04825)">
<stop stop-color="#E21118"/>
<stop offset="1" stop-color="#AE0F13"/>
</radialGradient>
</defs>
</svg>
