<svg width="72" height="72" viewBox="0 0 72 72" fill="none" xmlns="http://www.w3.org/2000/svg">
<path d="M37.1091 1.12058C36.8607 1.16442 36.6159 1.18452 36.4058 1H37.089C37.0762 1.04385 37.0835 1.08404 37.1091 1.12058Z" fill="url(#paint0_radial_1231_938)" stroke="url(#paint1_radial_1231_938)"/>
<path d="M70.8727 54.6057C70.827 54.3572 70.8233 54.1143 70.9914 53.9023V54.5856C70.953 54.5966 70.9129 54.6039 70.8727 54.6057Z" fill="url(#paint2_radial_1231_938)" stroke="url(#paint3_radial_1231_938)"/>
<path d="M22.015 63.9997C25.0221 63.9997 28.0292 63.9997 31.0363 63.9997C31.9754 63.9997 32.4796 64.4126 32.4796 65.1579C32.4796 65.9052 31.9662 66.329 31.0345 66.329C24.9984 66.3308 18.9622 66.3327 12.9242 66.329C12.0436 66.329 11.5339 65.9033 11.5156 65.189C11.4974 64.4729 11.9797 64.007 12.7908 64.0033C15.2974 63.9942 17.8021 63.9997 20.3086 63.9997C20.8786 63.9997 21.4468 63.9997 22.0168 63.9997H22.015Z" fill="url(#paint4_radial_1231_938)" stroke="url(#paint5_radial_1231_938)"/>
<path d="M41.8976 62.8234C41.2508 62.7778 40.7265 63.2765 40.6553 64.0073C40.3556 67.0491 38.5817 68.6605 35.5253 68.6605C26.5258 68.6605 17.5264 68.6605 8.52876 68.6605C5.21655 68.6605 3.33116 66.7696 3.33116 63.4482C3.33116 45.1552 3.33116 26.8604 3.33116 8.56738C3.33116 8.29334 3.32568 8.0193 3.34029 7.74709C3.47 5.30449 5.51616 3.35698 7.95511 3.32044C8.32963 3.31496 8.51049 3.42823 8.67309 3.76621C9.38194 5.23872 10.1292 6.69478 10.8544 8.15997C11.5706 9.60507 12.7051 10.3304 14.3402 10.3267C19.4428 10.3103 24.5473 10.3121 29.6499 10.3267C31.2813 10.3322 32.4231 9.61969 33.1356 8.16545C33.8554 6.69843 34.6045 5.2442 35.3188 3.77352C35.4796 3.44285 35.6586 3.31496 36.0404 3.32044C38.5086 3.35333 40.5767 5.35016 40.6443 7.81468C40.6662 8.63497 40.6352 9.45526 40.6607 10.2756C40.6827 11.0081 41.207 11.5233 41.8574 11.5032C42.4913 11.4832 42.9682 10.9881 42.9773 10.2829C42.9901 9.32555 43.0083 8.36824 42.9572 7.41276C42.7928 4.30881 40.1437 1.4789 37.1074 1.12265C36.8881 0.989287 36.6178 1.1665 36.404 1.00208H7.01424C6.98866 1.03496 6.96674 1.09342 6.93386 1.10073C3.09366 1.94294 1 4.5317 1 8.45045C1 26.8129 1 45.1735 1 63.5359C1 68.0174 3.96145 70.988 8.43011 70.988C15.3779 70.988 22.3275 70.988 29.2753 70.988C31.5992 70.988 33.923 71.0245 36.2469 70.9715C39.9227 70.8857 42.9682 67.7671 42.9773 64.1479C42.9773 63.3861 42.5571 62.8691 41.8976 62.8216V62.8234ZM32.9328 3.34237C32.4432 4.3216 31.886 5.20949 31.5407 6.1741C31.0255 7.61372 30.1504 8.06497 28.6103 8.02843C23.9005 7.91699 19.1871 7.97545 14.4754 8.00103C13.6825 8.00468 13.2093 7.71603 12.8805 7.00535C12.3196 5.79593 11.6985 4.61574 11.0627 3.34419H32.9328V3.34237Z" fill="url(#paint6_radial_1231_938)" stroke="url(#paint7_radial_1231_938)"/>
<path d="M70.9914 19.8631C70.9585 19.8356 70.9019 19.8156 70.8946 19.7827C70.0615 15.9279 67.4874 13.8397 63.5558 13.8378C52.9396 13.8378 42.3215 13.836 31.7052 13.8378C27.3023 13.8378 24.3518 16.7938 24.3427 21.204C24.339 23.3452 24.3226 25.4882 24.3555 27.6293C24.3628 28.1354 24.2002 28.3857 23.7599 28.6177C19.8009 30.704 15.8603 32.8251 11.9031 34.9114C10.9604 35.4084 10.3228 36.0916 10.3356 37.1896C10.3484 38.2547 10.9769 38.9197 11.8958 39.4039C15.8749 41.5012 19.8357 43.6295 23.8129 45.7323C24.1965 45.9351 24.3664 46.1525 24.3573 46.6166C24.3244 48.5294 24.3409 50.444 24.3445 52.3568C24.3463 53.1295 24.2952 53.9096 24.4377 54.6751C25.0972 58.1773 27.9034 60.4738 31.5645 60.4756C41.8848 60.4829 52.207 60.4793 62.5273 60.4774C63.1886 60.4774 63.85 60.4884 64.5095 60.4574C67.639 60.313 70.4908 57.6841 70.8727 54.6021C71.0024 54.3828 70.8288 54.1124 70.9914 53.8987V19.8631ZM68.6603 53.2684C68.6603 56.1696 66.6726 58.1463 63.7604 58.1481C53.0309 58.1536 42.3014 58.1536 31.5737 58.1481C28.6451 58.1481 26.6903 56.2006 26.6793 53.2812C26.6684 50.7527 26.6611 48.2243 26.6866 45.6958C26.6939 44.9431 26.4053 44.4717 25.7403 44.121C21.6041 41.9341 17.4807 39.7217 13.3537 37.5185C13.1546 37.4125 12.9555 37.3047 12.6814 37.1567C16.9656 34.8713 21.1401 32.6095 25.3511 30.4227C26.3304 29.9148 26.7378 29.3028 26.7012 28.1847C26.6227 25.8188 26.6702 23.4475 26.6793 21.078C26.6903 18.1129 28.6378 16.1708 31.6047 16.1708C42.3105 16.1672 53.0181 16.1672 63.7239 16.1708C66.6817 16.1708 68.6603 18.1366 68.6621 21.0834C68.6676 31.813 68.6676 42.5407 68.6621 53.2702L68.6603 53.2684Z" fill="url(#paint8_radial_1231_938)" stroke="url(#paint9_radial_1231_938)"/>
<path d="M59.2645 46.2877C58.225 42.2228 53.5188 40.5201 50.0823 42.9718C49.8101 43.1655 49.6238 43.3281 49.273 43.054C47.89 41.978 46.487 40.9293 45.0711 39.8971C44.7788 39.6833 44.808 39.5006 44.9176 39.2229C45.4602 37.8528 45.4694 36.4716 44.9158 35.1051C44.7806 34.7726 44.8336 34.599 45.1241 34.3871C46.5016 33.3804 47.8663 32.3574 49.22 31.3178C49.5178 31.0895 49.6987 31.0493 50.0257 31.3051C51.0415 32.0961 52.2125 32.4944 53.168 32.4834C56.7525 32.4725 59.4344 29.7942 59.3229 26.5952C59.2352 24.0923 58.0222 22.2398 55.702 21.2825C53.4384 20.3508 51.2881 20.7546 49.5087 22.4408C47.6836 24.1709 47.2269 26.3102 48.0599 28.6871C48.1933 29.0689 48.1403 29.237 47.8297 29.4635C46.4705 30.4574 45.1241 31.4658 43.7922 32.4962C43.4634 32.7501 43.2697 32.7465 42.9281 32.4944C40.4892 30.6894 37.1532 31.0255 35.1399 33.2471C33.1266 35.4686 33.1285 38.8557 35.1436 41.0791C37.155 43.297 40.4965 43.6313 42.9299 41.8208C43.2844 41.5578 43.4817 41.5906 43.7959 41.8336C45.0583 42.8055 46.328 43.7665 47.6178 44.6982C48.0508 45.0125 48.2134 45.2536 47.9978 45.8419C47.1319 48.2005 47.9576 50.8404 49.9508 52.3786C51.9513 53.9242 54.6734 54.0357 56.7799 52.6563C58.8863 51.277 59.8856 48.7157 59.2645 46.2858V46.2877ZM53.4841 23.157C55.4115 23.1515 57.0155 24.7628 56.9973 26.6848C56.9772 28.6049 55.4261 30.1413 53.5042 30.145C51.5567 30.1486 49.9673 28.561 49.991 26.6336C50.0148 24.7208 51.5823 23.1606 53.4859 23.1551L53.4841 23.157ZM39.4533 40.6498C37.5478 40.6352 36.0004 39.0768 35.9967 37.1695C35.9931 35.2329 37.5606 33.6654 39.5008 33.6654C41.4446 33.6654 42.9902 35.2293 42.9829 37.1823C42.9738 39.1279 41.4099 40.6644 39.4533 40.6498ZM53.4402 51.1601C51.5366 51.1327 49.9764 49.5396 49.991 47.6396C50.0056 45.6976 51.5914 44.1538 53.548 44.1739C55.459 44.194 57.0174 45.7761 56.9991 47.6798C56.9808 49.6163 55.3731 51.1893 53.4402 51.1601Z" fill="url(#paint10_radial_1231_938)" stroke="url(#paint11_radial_1231_938)"/>
<defs>
<radialGradient id="paint0_radial_1231_938" cx="0" cy="0" r="1" gradientUnits="userSpaceOnUse" gradientTransform="translate(36.7574 1.07647) rotate(-90) scale(0.0702227 0.71076)">
<stop stop-color="#E21118"/>
<stop offset="1" stop-color="#AE0F13"/>
</radialGradient>
<radialGradient id="paint1_radial_1231_938" cx="0" cy="0" r="1" gradientUnits="userSpaceOnUse" gradientTransform="translate(36.7574 1.07647) rotate(-90) scale(0.0702227 0.71076)">
<stop stop-color="#E21118"/>
<stop offset="1" stop-color="#AE0F13"/>
</radialGradient>
<radialGradient id="paint2_radial_1231_938" cx="0" cy="0" r="1" gradientUnits="userSpaceOnUse" gradientTransform="translate(70.9186 54.2601) rotate(-90) scale(0.328514 0.147236)">
<stop stop-color="#E21118"/>
<stop offset="1" stop-color="#AE0F13"/>
</radialGradient>
<radialGradient id="paint3_radial_1231_938" cx="0" cy="0" r="1" gradientUnits="userSpaceOnUse" gradientTransform="translate(70.9186 54.2601) rotate(-90) scale(0.328514 0.147236)">
<stop stop-color="#E21118"/>
<stop offset="1" stop-color="#AE0F13"/>
</radialGradient>
<radialGradient id="paint4_radial_1231_938" cx="0" cy="0" r="1" gradientUnits="userSpaceOnUse" gradientTransform="translate(21.9974 65.1847) rotate(-90) scale(1.08969 21.1849)">
<stop stop-color="#E21118"/>
<stop offset="1" stop-color="#AE0F13"/>
</radialGradient>
<radialGradient id="paint5_radial_1231_938" cx="0" cy="0" r="1" gradientUnits="userSpaceOnUse" gradientTransform="translate(21.9974 65.1847) rotate(-90) scale(1.08969 21.1849)">
<stop stop-color="#E21118"/>
<stop offset="1" stop-color="#AE0F13"/>
</radialGradient>
<radialGradient id="paint6_radial_1231_938" cx="0" cy="0" r="1" gradientUnits="userSpaceOnUse" gradientTransform="translate(21.9956 36.6059) rotate(-90) scale(32.6935 42.4327)">
<stop stop-color="#E21118"/>
<stop offset="1" stop-color="#AE0F13"/>
</radialGradient>
<radialGradient id="paint7_radial_1231_938" cx="0" cy="0" r="1" gradientUnits="userSpaceOnUse" gradientTransform="translate(21.9956 36.6059) rotate(-90) scale(32.6935 42.4327)">
<stop stop-color="#E21118"/>
<stop offset="1" stop-color="#AE0F13"/>
</radialGradient>
<radialGradient id="paint8_radial_1231_938" cx="0" cy="0" r="1" gradientUnits="userSpaceOnUse" gradientTransform="translate(40.6634 37.5615) rotate(-90) scale(21.7852 61.2937)">
<stop stop-color="#E21118"/>
<stop offset="1" stop-color="#AE0F13"/>
</radialGradient>
<radialGradient id="paint9_radial_1231_938" cx="0" cy="0" r="1" gradientUnits="userSpaceOnUse" gradientTransform="translate(40.6634 37.5615) rotate(-90) scale(21.7852 61.2937)">
<stop stop-color="#E21118"/>
<stop offset="1" stop-color="#AE0F13"/>
</radialGradient>
<radialGradient id="paint10_radial_1231_938" cx="0" cy="0" r="1" gradientUnits="userSpaceOnUse" gradientTransform="translate(46.539 37.4896) rotate(-90) scale(15.332 26.0872)">
<stop stop-color="#E21118"/>
<stop offset="1" stop-color="#AE0F13"/>
</radialGradient>
<radialGradient id="paint11_radial_1231_938" cx="0" cy="0" r="1" gradientUnits="userSpaceOnUse" gradientTransform="translate(46.539 37.4896) rotate(-90) scale(15.332 26.0872)">
<stop stop-color="#E21118"/>
<stop offset="1" stop-color="#AE0F13"/>
</radialGradient>
</defs>
</svg>
