<svg width="71" height="70" viewBox="0 0 71 70" fill="none" xmlns="http://www.w3.org/2000/svg">
<path d="M69.6834 50.9324C68.1758 45.8385 65.0457 42.1462 60.1963 39.9433C59.4462 39.602 59.4626 39.6166 59.7053 38.85C60.6708 35.8093 60.6179 32.8453 58.9771 30.0218C58.7161 29.571 58.6687 29.1512 58.8256 28.6584C59.3786 26.9282 59.2673 25.2125 58.7033 23.4969C58.3803 22.5168 57.8619 21.6517 57.2031 20.7555C57.7305 20.6405 58.1576 20.6205 58.5756 20.5475C60.8296 20.1605 62.4923 18.0342 62.3317 15.7273C62.1711 13.413 60.22 11.5769 57.893 11.5586C56.7778 11.5495 55.6645 11.544 54.5493 11.5623C54.0456 11.5714 53.8557 11.367 53.8722 10.8742C53.8922 10.2372 53.8813 9.60025 53.8758 8.96328C53.8466 4.95709 50.5997 1.72659 46.5935 1.72294C43.1823 1.71928 39.7711 1.72294 36.3599 1.72294C33.0327 1.72294 30.3588 3.67219 29.3003 6.82969C28.8841 8.06896 28.9298 9.33926 28.928 10.6114C28.928 11.5331 28.9024 11.5422 27.9624 11.5605C26.6684 11.5842 25.3653 11.4491 24.0804 11.6444C23.6058 11.7156 23.374 11.5915 23.1641 11.1881C22.5272 9.95616 21.85 8.74426 21.1601 7.54149C20.8626 7.02133 20.8991 6.58877 21.182 6.07773C21.9103 4.76545 22.6896 3.47872 23.3321 2.12264C23.8102 1.11334 23.4708 0.357728 22.4231 0H5.22117C4.36518 0.297498 4.11512 0.627849 4.06766 1.53495C4.05306 1.83062 4.06038 2.12629 4.06038 2.42196C4.06038 8.47596 4.05306 14.53 4.06949 20.5858C4.06949 21.2228 3.89611 21.6042 3.29746 21.9309C0.236694 23.5973 -0.630236 26.3021 0.435647 29.414C2.29182 34.8365 4.41263 40.1714 6.49877 45.5136C7.71614 48.6309 10.0852 50.3758 13.3686 50.8375C15.8453 51.1861 18.3403 51.4015 20.8243 51.6954C21.7405 51.803 21.8081 51.8487 21.8081 52.7886C21.8117 56.2491 21.8081 59.7077 21.8099 63.1682C21.8099 64.8984 21.7843 66.6287 21.8227 68.3571C21.8482 69.5051 22.3538 69.9979 23.458 69.9979C38.5191 70.0015 53.5802 69.9997 68.6412 69.9979C69.5812 69.9979 69.7728 69.8482 70.0758 68.9776V53.6793C69.9316 52.7649 69.9499 51.8304 69.6834 50.9324ZM31.8464 11.0147C31.9212 10.0876 31.7715 9.15309 31.9522 8.22775C32.361 6.13796 34.0913 4.64316 36.2194 4.62856C39.6963 4.60484 43.1732 4.59936 46.6519 4.62856C49.0246 4.65047 50.9081 6.56322 50.9629 8.93225C50.9812 9.68239 50.9373 10.4343 50.9812 11.1827C51.0085 11.6608 50.8169 11.732 50.3989 11.7284C47.3984 11.7119 44.3997 11.7192 41.3991 11.7192C38.3986 11.7192 35.4893 11.701 32.5363 11.7338C31.9504 11.7411 31.8026 11.5641 31.8464 11.0111V11.0147ZM23.3905 15.9207C23.469 15.114 24.0986 14.5044 24.9291 14.4643C25.4729 14.4387 26.0205 14.4533 26.5662 14.4533C31.5251 14.4533 36.4822 14.4533 41.4411 14.4533C46.8308 14.4533 52.2223 14.4497 57.6119 14.457C58.9643 14.457 59.782 15.5867 59.2801 16.7274C59.0191 17.3224 58.5391 17.6309 57.9094 17.7094C57.663 17.7404 57.4093 17.7331 57.1611 17.7331C46.6537 17.7331 36.1464 17.7331 25.639 17.7331C25.2996 17.7331 24.9583 17.7477 24.6224 17.6546C23.8267 17.4338 23.3138 16.722 23.3923 15.9225L23.3905 15.9207ZM50.1598 26.6891C49.1323 30.9836 45.3214 33.798 40.7841 33.5991C36.6939 33.4202 33.1148 30.1222 32.5071 25.9444C32.257 24.2251 32.4487 22.4912 32.3921 20.7647C32.3775 20.3157 32.7078 20.469 32.9141 20.4672C35.7576 20.4599 38.5994 20.4617 41.4429 20.4617C44.2865 20.4617 47.037 20.4745 49.835 20.4489C50.3168 20.4453 50.45 20.5694 50.4245 21.0457C50.3259 22.9256 50.607 24.8219 50.1617 26.6872L50.1598 26.6891ZM27.1137 28.7132C25.8343 25.9116 27.0061 22.4529 29.6416 21.2228C29.731 22.8909 29.543 24.5098 29.773 26.1178C30.3114 29.8867 32.2278 32.7467 35.4729 34.7142C35.8233 34.9259 35.9803 35.1358 35.962 35.5611C35.9237 36.47 35.9347 37.3808 35.9584 38.2897C35.9675 38.6255 35.858 38.7076 35.5331 38.7058C32.5545 38.6949 29.5759 38.6949 26.5972 38.7058C26.2997 38.7058 26.1519 38.6054 26.0479 38.3298C25.0367 35.6432 25.1043 33.0752 26.913 30.7226C27.4222 30.0619 27.455 29.4633 27.1119 28.7132H27.1137ZM31.4722 41.4308C32.9852 41.4308 34.46 41.4399 35.9347 41.4235C36.2358 41.4198 36.4439 41.522 36.6465 41.7283C37.4733 42.5715 38.2964 43.4165 39.1524 44.2287C39.4499 44.5116 39.3952 44.6594 39.1323 44.915C38.1066 45.9115 37.1046 46.9317 36.0935 47.9429C35.9256 48.1108 35.7941 48.3608 35.5514 47.9775C34.2026 45.8549 32.8338 43.745 31.4758 41.6279C31.4558 41.5968 31.474 41.5439 31.474 41.4289L31.4722 41.4308ZM38.9315 40.1696C38.7308 39.9743 38.6687 39.7717 38.676 39.5052C38.6906 39.0051 38.6797 38.505 38.6797 38.0031C38.6797 37.4793 38.6906 36.9555 38.676 36.4335C38.6687 36.1506 38.7125 36.021 39.0502 36.0959C40.6253 36.4445 42.2059 36.4408 43.781 36.0904C44.0566 36.0283 44.135 36.1086 44.1332 36.3842C44.1223 37.4757 44.1241 38.5689 44.1332 39.6604C44.1332 39.8648 44.0438 39.998 43.9087 40.1313C43.1659 40.8686 42.4157 41.5987 41.693 42.3543C41.4521 42.6061 41.3207 42.5678 41.1016 42.3397C40.3917 41.6023 39.6671 40.8796 38.9315 40.1678V40.1696ZM43.6915 44.1922C44.6479 43.2906 45.5787 42.3616 46.5187 41.4435H51.3279C51.3626 41.721 51.1856 41.8578 51.0815 42.0184C49.8459 43.9458 48.5902 45.8585 47.3747 47.7987C47.0954 48.244 46.9458 48.2093 46.6154 47.8644C45.659 46.8642 44.6826 45.8805 43.6806 44.9259C43.363 44.6229 43.3995 44.4678 43.6915 44.1922ZM7.33833 2.72311C11.4266 2.73589 15.5168 2.73041 19.7055 2.73041C19.0667 3.89303 18.5027 4.95161 17.9077 5.99377C17.5829 6.56504 17.5847 7.09433 17.9077 7.66378C18.5027 8.70593 19.0685 9.76452 19.6471 10.8194C19.4956 11.0093 19.3022 10.9198 19.1415 10.9198C15.2978 10.9253 11.454 10.9144 7.6121 10.9381C7.09924 10.9417 6.97879 10.8176 6.98426 10.3084C7.01529 7.96493 6.99521 5.62144 7.00251 3.27796C7.00251 3.04799 6.84737 2.72129 7.33833 2.72311ZM3.60227 29.6641C3.36317 28.8427 2.88499 28.089 2.90324 27.1946C2.9215 25.8477 3.89793 24.6194 5.19013 24.3182C6.57724 23.9952 7.9972 24.6632 8.61228 25.9298C9.1878 27.1113 8.87448 27.9539 7.67232 28.4576C6.52431 28.9395 5.37082 29.4104 4.23193 29.9141C3.89246 30.0638 3.71177 30.0473 3.60044 29.6641H3.60227ZM22.018 48.8646C19.1634 48.5452 16.36 48.2805 13.573 47.9009C11.5015 47.618 10.003 46.4408 9.24196 44.486C7.76725 40.7043 6.36552 36.8953 4.91453 33.1063C4.774 32.7394 4.8251 32.608 5.1883 32.462C6.72325 31.8451 8.25091 31.2081 9.76578 30.5438C10.16 30.3704 10.2859 30.4525 10.4247 30.8358C11.5453 33.9513 12.686 37.0577 13.8212 40.1678C14.2063 41.2245 14.4966 41.4271 15.6336 41.4289C17.5664 41.4308 19.5011 41.4472 21.4339 41.418C21.9176 41.4107 22.0362 41.5512 22.0307 42.0239C22.0052 44.2962 22.0198 46.5685 22.0198 48.8646H22.018ZM24.2373 29.779C22.5819 32.3689 22.2899 35.1614 23.1167 38.0853C23.2682 38.6182 23.1715 38.7204 22.6349 38.7113C20.702 38.6803 18.7674 38.6839 16.8346 38.7113C16.3545 38.7186 16.1392 38.589 15.9676 38.1126C14.4527 33.8856 12.9032 29.6714 11.3646 25.4534C10.6711 23.5535 9.37701 22.2813 7.42411 21.7229C7.10288 21.6316 6.99338 21.5075 6.9952 21.1717C7.0098 18.8282 7.01163 16.4829 6.9952 14.1394C6.99155 13.7525 7.09924 13.6521 7.48435 13.6521C12.0801 13.6648 16.6758 13.6612 21.3354 13.6612C19.4828 16.9538 21.7223 20.8705 26.0862 20.4854C25.8471 20.8103 25.6317 21.0822 25.4365 21.3688C23.8395 23.6922 23.4763 26.2109 24.2757 28.903C24.3669 29.2114 24.4509 29.4615 24.2428 29.7845L24.2373 29.779ZM46.8363 61.0565C48.2234 61.062 49.6123 61.0693 50.9994 61.051C51.379 61.0456 51.5634 61.0839 51.5542 61.5511C51.5232 63.2814 51.5342 65.0116 51.5488 66.74C51.5524 67.0795 51.4849 67.2091 51.1089 67.2072C44.6461 67.1963 38.1851 67.1945 31.7241 67.2072C31.3006 67.2072 31.2477 67.0466 31.2605 66.6926C31.286 66.0556 31.2824 65.4168 31.2623 64.7816C31.2331 63.8618 30.6399 63.2467 29.8442 63.2777C29.0667 63.3087 28.5538 63.9019 28.5374 64.8072C28.5264 65.4442 28.5118 66.083 28.5429 66.7181C28.5629 67.1196 28.4169 67.2146 28.0391 67.2054C27.1065 67.1799 26.172 67.1689 25.2411 67.2091C24.7849 67.2291 24.7319 67.0539 24.7374 66.6652C24.7575 65.1631 24.7465 63.661 24.7465 62.1589C24.7465 55.4898 24.7557 48.8189 24.7301 42.1499C24.7283 41.5403 24.878 41.3705 25.4748 41.4125C26.2669 41.4691 27.0681 41.4581 27.8621 41.4143C28.3932 41.3851 28.552 41.5348 28.5465 42.086C28.5191 45.4315 28.5301 48.7788 28.5355 52.1243C28.5355 53.077 28.9991 53.6428 29.7803 53.6939C30.6655 53.7523 31.2514 53.1555 31.2605 52.137C31.2751 50.4762 31.2641 48.8135 31.2641 47.1526V46.605C31.5397 46.585 31.5562 46.8131 31.6401 46.9427C32.4852 48.2367 33.3174 49.538 34.157 50.8339C34.9436 52.0476 35.7668 52.1261 36.8053 51.0894C38.1906 49.7059 39.585 48.3334 40.9483 46.9281C41.2878 46.5777 41.4685 46.5192 41.8408 46.908C43.2279 48.3517 44.6589 49.7534 46.077 51.1679C47.0151 52.1005 47.8784 52.0148 48.5957 50.9142C49.5338 49.4705 50.4646 48.0195 51.3973 46.5722C51.4447 46.5831 51.4922 46.5959 51.5397 46.6069V49.6567C51.5397 52.3433 51.5232 55.0299 51.5542 57.7147C51.5597 58.2421 51.4082 58.3498 50.9136 58.3371C49.5484 58.3024 48.1832 58.3188 46.818 58.3279C45.8927 58.3334 45.2593 58.8846 45.2411 59.6712C45.2228 60.4907 45.8635 61.0529 46.8326 61.0565H46.8363ZM47.382 38.7076C46.975 38.7003 46.8326 38.6219 46.849 38.1875C46.8855 37.2786 46.8691 36.3678 46.8545 35.4589C46.8509 35.165 46.9074 34.977 47.1922 34.8055C51.2275 32.3561 53.1896 28.7497 53.1458 24.0371C53.1366 23.1045 53.1458 22.1718 53.1458 21.1753C55.816 22.5241 56.9968 25.8094 55.7776 28.558C55.3725 29.4724 55.4838 30.1258 56.066 30.9216C57.851 33.3618 57.7652 35.9918 56.6427 38.6766C56.5478 38.9048 56.4073 38.9668 56.1682 38.9321C53.2498 38.5123 50.3113 38.7551 47.382 38.7058V38.7076ZM58.0609 64.8127C58.0609 65.4715 58.0426 66.1322 58.0682 66.7911C58.081 67.1251 57.9715 67.2127 57.6466 67.2054C56.7139 67.1853 55.7813 67.1689 54.8505 67.2109C54.3577 67.2328 54.2573 67.0685 54.2591 66.6013C54.2774 62.5075 54.2701 58.4119 54.2701 54.3181C54.2701 50.2243 54.2828 46.2199 54.2555 42.1718C54.2518 41.5786 54.427 41.4326 54.9782 41.5184C55.7849 41.6461 56.5843 41.7921 57.3765 42.0002C57.882 42.1334 58.081 42.3251 58.0773 42.9055C58.0499 50.2079 58.0591 57.5084 58.0591 64.8108L58.0609 64.8127ZM66.8015 67.2109C64.9599 67.1835 63.1165 67.189 61.275 67.2072C60.899 67.2109 60.7804 67.1215 60.7804 66.7272C60.7931 59.0379 60.7895 51.3486 60.7895 43.5224C64.4398 45.979 66.5916 49.2387 67.214 53.4822C67.3363 54.3181 67.3454 55.1576 67.3454 56.0009C67.3417 59.5508 67.3363 63.0989 67.3545 66.6488C67.3563 67.085 67.256 67.2182 66.8015 67.2109Z" fill="url(#paint0_radial_1231_904)"/>
<path d="M41.222 29.905C40.6672 29.8813 40.0394 29.6477 39.5283 29.1531C38.9972 28.6402 38.926 27.9302 39.3239 27.3626C39.7273 26.7877 40.4135 26.5997 41.0687 26.9483C41.3224 27.0834 41.4666 27.0889 41.7258 26.952C42.4011 26.5906 43.1239 26.8041 43.5126 27.4101C43.8831 27.9886 43.7754 28.6932 43.237 29.1969C42.7716 29.6331 42.0324 29.9124 41.222 29.905Z" fill="url(#paint1_radial_1231_904)"/>
<defs>
<radialGradient id="paint0_radial_1231_904" cx="0" cy="0" r="1" gradientUnits="userSpaceOnUse" gradientTransform="translate(35.038 35.6048) rotate(-90) scale(32.6944 70.8125)">
<stop stop-color="#E21118"/>
<stop offset="1" stop-color="#AE0F13"/>
</radialGradient>
<radialGradient id="paint1_radial_1231_904" cx="0" cy="0" r="1" gradientUnits="userSpaceOnUse" gradientTransform="translate(41.4004 28.3661) rotate(-90) scale(1.46295 4.70969)">
<stop stop-color="#E21118"/>
<stop offset="1" stop-color="#AE0F13"/>
</radialGradient>
</defs>
</svg>
