<svg width="26" height="25" viewBox="0 0 26 25" fill="none" xmlns="http://www.w3.org/2000/svg">
<path opacity="0.8" d="M12.8707 0C5.99231 0 0.419846 5.57247 0.419846 12.4509C0.419846 19.3293 5.99231 24.9018 12.8707 24.9018C19.7492 24.9018 25.3216 19.3293 25.3216 12.4509C25.3216 5.57247 19.7492 0 12.8707 0ZM18.4211 9.57889C18.4211 9.57889 18.825 13.2644 15.9143 16.0257C11.8359 19.8938 5.95358 16.8834 5.95358 16.8834C8.78131 16.9166 9.9766 15.7269 9.9766 15.7269C7.65243 15.3284 7.42002 13.6683 7.42002 13.6683C7.81844 13.9173 8.68724 13.6683 8.68724 13.6683C6.09745 12.4786 6.50142 10.9125 6.50142 10.9125C7.254 11.3331 7.81844 11.1781 7.81844 11.1781C5.80417 9.42948 6.94412 7.57568 6.94412 7.57568C10.4802 10.9402 12.7545 10.2485 12.7545 10.2485C12.5941 7.88003 13.9941 6.96143 15.5048 6.91163C16.7776 6.86736 17.508 7.75276 17.508 7.75276C18.4875 7.83576 19.4061 7.18278 19.4061 7.18278C19.3231 7.97411 18.2495 8.64369 18.2495 8.64369C18.8084 8.69349 19.7824 8.38914 19.7824 8.38914C19.2788 9.31327 18.4211 9.57889 18.4211 9.57889Z" fill="white"/>
</svg>
