<svg width="29" height="26" viewBox="0 0 29 26" fill="none" xmlns="http://www.w3.org/2000/svg">
<path fill-rule="evenodd" clip-rule="evenodd" d="M27 9.5C26.1716 9.5 25.5 8.82843 25.5 8V3.5L3.5 3.5L3.5 8C3.5 8.82843 2.82843 9.5 2 9.5C1.17157 9.5 0.5 8.82843 0.5 8V2.2C0.5 1.26111 1.26112 0.5 2.2 0.5H26.8C27.7389 0.5 28.5 1.26112 28.5 2.2V8C28.5 8.82843 27.8284 9.5 27 9.5ZM16 10.0385L17.9393 11.9778C18.5251 12.5636 19.4749 12.5636 20.0607 11.9778C20.6464 11.392 20.6464 10.4423 20.0607 9.8565L15.7021 5.49792C15.0382 4.83403 13.9618 4.83403 13.2979 5.49792L8.93934 9.8565C8.35355 10.4423 8.35355 11.392 8.93934 11.9778C9.52513 12.5636 10.4749 12.5636 11.0607 11.9778L13 10.0385V23.9171C13 24.7455 13.6716 25.4171 14.5 25.4171C15.3284 25.4171 16 24.7455 16 23.9171V10.0385Z" fill="#252525"/>
</svg>
