<svg width="28" height="28" viewBox="0 0 28 28" fill="none" xmlns="http://www.w3.org/2000/svg">
<path d="M0 6C0 2.68629 2.68629 0 6 0H22C25.3137 0 28 2.68629 28 6V22C28 25.3137 25.3137 28 22 28H6C2.68629 28 0 25.3137 0 22V6Z" fill="white"/>
<path fill-rule="evenodd" clip-rule="evenodd" d="M22 3H6C4.34315 3 3 4.34315 3 6V22C3 23.6569 4.34315 25 6 25H22C23.6569 25 25 23.6569 25 22V6C25 4.34315 23.6569 3 22 3ZM6 0C2.68629 0 0 2.68629 0 6V22C0 25.3137 2.68629 28 6 28H22C25.3137 28 28 25.3137 28 22V6C28 2.68629 25.3137 0 22 0H6Z" fill="#252525"/>
<line x1="2" y1="9" x2="25" y2="9" stroke="#252525" stroke-width="2"/>
<path fill-rule="evenodd" clip-rule="evenodd" d="M11.1895 9.3567L6.00001 2.64334L7.58237 1.42017L12.7719 8.13352L11.1895 9.3567Z" fill="#252525"/>
<path fill-rule="evenodd" clip-rule="evenodd" d="M19.1895 9.3567L14 2.64334L15.5824 1.42017L20.7719 8.13352L19.1895 9.3567Z" fill="#252525"/>
<path d="M18.5 16.134C19.1667 16.5189 19.1667 17.4811 18.5 17.866L12.5 21.3301C11.8333 21.715 11 21.2339 11 20.4641L11 13.5359C11 12.7661 11.8333 12.285 12.5 12.6699L18.5 16.134Z" fill="#252525"/>
</svg>
