<svg width="17" height="16" viewBox="0 0 17 16" fill="none" xmlns="http://www.w3.org/2000/svg">
<path d="M9.73956 13.1135C13.3099 13.1135 16.2039 10.4422 16.2039 7.14633C16.2039 3.85048 13.3099 1.1792 9.73956 1.1792C6.16923 1.1792 3.27517 3.85048 3.27517 7.14633C3.27517 7.14633 3.74161 10.1299 1.28613 10.1299C1.28613 12.6162 5.76148 13.1135 9.73956 13.1135Z" fill="#BBDEFB"/>
<path d="M9.73975 13.6105C3.71693 13.6105 0.789062 12.4718 0.789062 10.1297C0.789062 9.85523 1.01184 9.63245 1.28632 9.63245C1.77961 9.63245 2.13962 9.49123 2.38726 9.20282C2.96806 8.52356 2.78606 7.23566 2.78407 7.22273C2.7781 3.58179 5.9009 0.681763 9.73975 0.681763C13.5776 0.681763 16.7014 3.58179 16.7014 7.14615C16.7014 10.7105 13.5776 13.6105 9.73975 13.6105ZM1.85917 10.5753C2.33256 11.9129 5.03368 12.616 9.73975 12.616C13.0306 12.616 15.7069 10.1615 15.7069 7.14615C15.7069 4.12977 13.0306 1.67628 9.73975 1.67628C6.44888 1.67628 3.77263 4.12977 3.77263 7.14615C3.77859 7.14615 4.02623 8.81794 3.14309 9.84926C2.81391 10.2331 2.38427 10.4768 1.85917 10.5753Z" fill="#455A64"/>
<path d="M11.7288 15.5998C12.8273 15.5998 13.7178 14.7093 13.7178 13.6107C13.7178 12.5122 12.8273 11.6217 11.7288 11.6217C10.6303 11.6217 9.73975 12.5122 9.73975 13.6107C9.73975 14.7093 10.6303 15.5998 11.7288 15.5998Z" fill="#37474F"/>
<path d="M5.7615 15.5998C6.86002 15.5998 7.75055 14.7093 7.75055 13.6107C7.75055 12.5122 6.86002 11.6217 5.7615 11.6217C4.66299 11.6217 3.77246 12.5122 3.77246 13.6107C3.77246 14.7093 4.66299 15.5998 5.7615 15.5998Z" fill="#37474F"/>
<path d="M7.7703 6.15163C7.49581 6.15163 7.26807 5.92885 7.26807 5.65437C7.26807 5.37988 7.48587 5.1571 7.76035 5.1571H7.7703C8.04479 5.1571 8.26756 5.37988 8.26756 5.65437C8.26756 5.92885 8.04479 6.15163 7.7703 6.15163Z" fill="#455A64"/>
<path d="M11.7483 6.15163C11.4748 6.15163 11.2461 5.92885 11.2461 5.65437C11.2461 5.37988 11.4639 5.1571 11.7384 5.1571H11.7483C12.0228 5.1571 12.2456 5.37988 12.2456 5.65437C12.2456 5.92885 12.0228 6.15163 11.7483 6.15163Z" fill="#455A64"/>
<path d="M9.73952 10.6271C8.30542 10.6271 7.08315 9.65047 6.76789 8.25019C6.70822 7.98167 6.87629 7.71613 7.14382 7.65546C7.41234 7.59778 7.67788 7.76287 7.73854 8.03139C7.95038 8.9742 8.77384 9.63257 9.73952 9.63257C10.7062 9.63257 11.5287 8.9742 11.7405 8.03139C11.8022 7.76387 12.0647 7.59579 12.3352 7.65546C12.6037 7.71613 12.7718 7.98167 12.7121 8.25019C12.3969 9.64948 11.1746 10.6271 9.73952 10.6271Z" fill="#455A64"/>
</svg>
