<svg width="65" height="72" viewBox="0 0 65 72" fill="none" xmlns="http://www.w3.org/2000/svg">
<path d="M64.4537 9.2638C64.4537 7.71799 63.7218 6.97885 62.1578 6.94235C61.1795 6.92045 60.2013 6.94235 59.2231 6.93505C58.3598 6.92957 58.3361 6.9022 58.3087 6.06815C58.2193 3.201 56.7575 1.48181 54.0016 1.00183H52.4996C50.9575 1.15878 49.8515 1.9691 49.0758 3.27948C48.5502 4.16828 48.3951 5.15015 48.3531 6.1594C48.3221 6.92957 48.3038 6.9533 47.5227 6.95877C46.9533 6.96242 46.3857 6.9606 45.8163 6.95877C45.2104 6.95756 44.905 6.65399 44.9001 6.04808C44.8801 3.26671 43.4328 1.50371 40.7536 1H39.1147C38.622 1.14783 38.0872 1.1095 37.6273 1.40881C36.4411 2.17898 35.5577 3.16815 35.2055 4.57709C35.065 5.1392 35.0996 5.70862 35.1106 6.27438C35.1197 6.76349 34.939 6.98067 34.4317 6.96425C33.7272 6.94052 33.0227 6.96425 32.3183 6.95695C31.57 6.95147 31.5226 6.90585 31.5226 6.12655C31.5226 5.37463 31.539 4.62454 31.2141 3.91825C30.4531 2.26111 29.2832 1.14418 27.3724 1.00183H25.8704C24.1366 1.19345 22.954 2.13883 22.2112 3.68099C21.848 4.43291 21.7038 5.2268 21.7184 6.06268C21.733 6.92775 21.691 6.95512 20.8533 6.9606C20.2839 6.96425 19.7163 6.96242 19.1469 6.9606C18.5739 6.95816 18.2825 6.66494 18.2727 6.08093C18.2253 3.25758 16.7141 1.46539 13.9894 1.00183H12.4873C11.7737 1.12958 11.0766 1.25916 10.4561 1.70629C8.97595 2.77394 8.43391 4.27778 8.32624 6.01157C8.26966 6.9314 8.26418 6.93322 7.32246 6.93687C6.20736 6.94052 5.09226 6.93687 3.97716 6.93687C1.8236 6.94235 1.21586 7.54644 1.21586 9.68904C1.21586 26.4393 1.21586 43.1914 1.21586 59.9417C1.21586 60.2829 1.20309 60.6242 1.23411 60.9655C1.27609 61.4364 1.45494 61.8488 1.80353 62.1719C2.25249 62.5862 2.80548 62.6701 3.38949 62.6701C6.16538 62.6701 8.94311 62.6628 11.719 62.6738C12.4581 62.6774 12.5257 62.7632 12.3213 63.4749C11.9398 64.8091 11.5347 66.1377 11.166 67.4773C10.9853 68.1379 10.843 68.8077 10.9543 69.4994C11.1149 70.4959 11.6697 70.9631 12.6644 70.9978C13.6134 71.0306 14.442 70.6948 15.2505 70.2513C19.4809 67.9354 23.7223 65.6376 27.9418 63.3016C28.7193 62.8709 29.5077 62.6573 30.4075 62.6592C40.9672 62.6774 51.5251 62.6738 62.0848 62.6701C63.8167 62.6701 64.4482 62.0459 64.4482 60.3377C64.45 43.3137 64.45 26.2896 64.4482 9.26563L64.4537 9.2638ZM50.618 6.63939C50.66 6.1667 50.5979 5.69037 50.6947 5.21768C50.952 3.96205 52.0215 3.06413 53.2954 3.05318C54.5711 3.04223 55.6679 3.92007 55.9344 5.1684C55.9398 5.1903 55.9435 5.2122 55.9471 5.23593C56.3048 7.05002 56.2063 7.17413 54.4032 7.17413C54.04 7.17413 53.6768 7.17413 53.3154 7.17413C52.5891 7.17413 51.8627 7.14858 51.14 7.18325C50.7074 7.20333 50.5833 7.05185 50.6198 6.64121L50.618 6.63939ZM37.3061 6.75437C37.3317 6.36928 37.3025 5.98055 37.3207 5.59364C37.3883 4.17923 38.5289 3.07325 39.9342 3.05135C41.3377 3.02945 42.5385 4.10258 42.6608 5.48961C42.7594 6.61019 42.2514 7.17048 41.1369 7.17048C40.75 7.17048 40.3631 7.17048 39.9762 7.17048C39.2242 7.17048 38.4742 7.15588 37.7241 7.17778C37.3919 7.1869 37.2842 7.07923 37.3061 6.75437ZM23.9559 6.77444C24.0052 6.16853 23.8975 5.55349 24.0855 4.95305C24.4724 3.71384 25.6824 2.91265 26.9636 3.06413C28.2174 3.21195 29.2084 4.24311 29.3106 5.50421C29.4006 6.61749 28.8939 7.17413 27.7903 7.17413C27.4053 7.17413 27.0202 7.17413 26.6351 7.17413C25.8868 7.17413 25.1386 7.16318 24.3903 7.1796C24.0855 7.1869 23.9267 7.13398 23.9559 6.77627V6.77444ZM10.6404 5.57174C10.7809 4.06243 11.949 3.00755 13.4053 3.05135C14.8179 3.09333 15.9166 4.20295 16.0079 5.68307C16.0699 6.67467 15.6076 7.17048 14.6208 7.17048C14.1682 7.17048 13.7138 7.17048 13.2612 7.17048C12.5129 7.17048 11.7646 7.16135 11.0164 7.17413C10.7353 7.1796 10.5966 7.10295 10.6149 6.79269C10.6386 6.38571 10.6002 5.97507 10.6386 5.56991L10.6404 5.57174ZM13.1371 68.8223C13.732 66.7473 14.2777 64.8437 14.8599 62.8143C15.8345 64.0298 16.7397 65.1558 17.6905 66.3421C16.1995 67.1542 14.7486 67.9445 13.1352 68.8223H13.1371ZM21.8316 64.0006C21.7494 64.3327 21.0395 64.5134 20.6051 64.7543C19.8861 65.1546 19.2625 65.025 18.7345 64.3656C17.8256 63.2322 16.935 62.0843 15.9969 60.9765C15.6465 60.564 15.5771 60.1953 15.7542 59.6898C16.0298 58.8996 16.2323 58.0856 16.5024 57.153C18.0555 59.0894 19.5338 60.9217 20.9957 62.7687C21.3133 63.1702 21.9411 63.5607 21.8316 64.0006ZM27.606 60.9454C26.4526 61.5276 25.3229 62.1591 24.1968 62.796C23.8993 62.9639 23.7479 62.9293 23.5362 62.661C21.5122 60.1169 19.4736 57.5837 17.4369 55.0487C17.3036 54.8826 17.1996 54.7275 17.2671 54.4957C17.7781 52.7437 18.2837 50.988 18.8184 49.1392C20.2328 50.9022 21.5815 52.5831 22.9303 54.2658C24.5235 56.2532 26.1077 58.2462 27.7119 60.2245C27.971 60.5457 28.0787 60.7064 27.6078 60.9454H27.606ZM31.9916 58.5382C31.4039 58.8339 30.8217 59.1423 30.2615 59.4854C29.9439 59.6807 29.7961 59.5657 29.599 59.3193C26.334 55.233 23.0635 51.1504 19.7857 47.0751C19.5959 46.8397 19.5247 46.6243 19.6141 46.3323C19.8916 45.4216 20.1562 44.5054 20.4555 43.487C21.0614 44.2353 21.6235 44.9252 22.182 45.6187C22.8226 46.4162 23.4522 47.2229 24.0983 48.0168C24.5819 48.6118 25.2152 48.7268 25.6915 48.3252C26.1478 47.9402 26.1642 47.3269 25.7061 46.7484C24.3903 45.0931 23.0963 43.4177 21.7275 41.808C21.2494 41.2441 21.1253 40.744 21.4209 40.0998C21.4958 39.9373 21.5304 39.7585 21.618 39.4756C27.7502 44.3941 33.8367 49.2761 39.9543 54.1836C38.1183 55.1874 36.3407 56.1456 34.5813 57.1347C34.2254 57.3337 34.0776 57.2077 33.8696 56.9449C32.2708 54.9319 30.6593 52.9317 29.0551 50.9241C28.8543 50.6723 28.6518 50.4149 28.3269 50.3364C27.8907 50.2306 27.5056 50.3511 27.2428 50.7252C26.9289 51.176 26.9928 51.6268 27.325 52.0429C28.5021 53.5175 29.6847 54.9903 30.8655 56.4631C31.278 56.9778 31.6777 57.5034 32.1102 58.0016C32.342 58.2699 32.2964 58.3922 31.9952 58.5419L31.9916 58.5382ZM34.9007 25.0723C35.1471 25.1034 35.4008 25.0961 35.6508 25.0961C44.2523 25.0961 52.8555 25.1034 61.4569 25.0815C62.0793 25.0815 62.2381 25.2329 62.2362 25.8589C62.2162 37.1706 62.2198 48.4822 62.2271 59.792C62.2271 60.199 62.2326 60.4344 61.6814 60.4326C52.2606 60.4125 42.8378 60.418 33.417 60.418H33.0428C33.0373 60.3797 33.0337 60.3413 33.0282 60.303C35.346 59.0346 37.6985 57.821 39.9707 56.4723C41.104 55.7988 42.0257 55.4375 43.0459 56.6201C43.4474 57.0855 44.1318 56.9267 44.4804 56.4723C44.849 55.9923 44.7651 55.421 44.2158 54.9775C42.3944 53.5047 40.562 52.0447 38.7351 50.5792C32.561 45.6278 26.3869 40.6747 20.2128 35.7233C20.0704 35.6102 19.9317 35.4915 19.7802 35.3911C19.2583 35.0499 18.7436 35.1137 18.3804 35.5536C18.0118 36.0007 18.072 36.5811 18.5465 37.0081C18.8002 37.2363 19.0575 37.4717 19.3477 37.6433C19.7912 37.9042 19.8605 38.2035 19.7163 38.7C17.6577 45.7574 15.6155 52.8185 13.5933 59.8869C13.4656 60.334 13.2703 60.4289 12.8469 60.4271C9.9122 60.4107 6.9757 60.407 4.03921 60.4308C3.56835 60.4344 3.43694 60.3304 3.43877 59.8413C3.45337 48.4621 3.45519 37.0811 3.43694 25.702C3.43694 25.1526 3.6231 25.0851 4.09761 25.0851C12.6078 25.0979 21.1198 25.0942 29.63 25.0942C29.9019 25.0942 30.1793 25.1015 30.4476 25.0614C31.0006 24.9793 31.2999 24.6143 31.3054 24.0813C31.3109 23.5448 31.0079 23.1798 30.4622 23.0849C30.1958 23.0392 29.9183 23.0484 29.6464 23.0484C21.1581 23.0484 12.6698 23.0411 4.18156 23.0611C3.6012 23.0611 3.36942 22.9553 3.43694 22.3311C3.50812 21.6796 3.22524 20.7926 3.55922 20.4203C3.94248 19.9914 4.84223 20.2871 5.51749 20.2871C24.1549 20.2798 42.794 20.2871 61.4314 20.2652C62.103 20.2652 62.3074 20.4367 62.2308 21.0864C62.1559 21.7124 62.4826 22.541 62.1103 22.9279C61.738 23.3167 60.9076 23.0429 60.2798 23.0429C52.0653 23.0502 43.8489 23.0484 35.6344 23.0502C35.3625 23.0502 35.0832 23.0429 34.8186 23.094C34.2693 23.1999 33.9955 23.574 34.0174 24.1178C34.0393 24.6635 34.3459 25.0048 34.9007 25.0723ZM62.2143 11.2148C62.2344 13.3081 62.1888 15.4033 62.2399 17.4966C62.2563 18.1591 62.0264 18.2467 61.446 18.2449C51.9101 18.2284 42.3743 18.2321 32.8366 18.2321C23.2989 18.2321 13.7192 18.2248 4.15966 18.2485C3.5355 18.2485 3.42964 18.0715 3.43512 17.4984C3.46797 14.9269 3.45884 12.3536 3.43877 9.78212C3.43512 9.34593 3.53549 9.19445 3.99906 9.2054C5.34046 9.23825 6.68552 9.24008 8.02693 9.2054C8.50691 9.19263 8.59817 9.36966 8.57992 9.79307C8.54524 10.5669 8.56532 11.3407 8.79893 12.0908C9.38659 13.9797 11.1368 15.323 13.1133 15.3996C13.8087 15.427 14.2704 15.0747 14.3233 14.478C14.3763 13.8775 14.0021 13.4742 13.294 13.3702C11.2646 13.069 10.1732 11.4703 10.6185 9.48098C10.7097 9.07582 10.9981 9.2273 11.2098 9.22548C14.0094 9.21453 16.809 9.21818 19.6087 9.21818C20.2 9.21818 20.7931 9.24373 21.3826 9.20905C21.7914 9.18533 21.9447 9.28571 21.9265 9.72737C21.8991 10.3607 21.8882 10.9958 22.0214 11.6309C22.4667 13.7552 24.2881 15.3175 26.4526 15.3978C27.1552 15.4233 27.6078 15.0784 27.6571 14.4798C27.7064 13.8647 27.3523 13.4797 26.6333 13.3702C24.5874 13.0617 23.5599 11.5524 23.9578 9.48463C24.0381 9.06305 24.3301 9.2273 24.5345 9.2273C27.3341 9.21635 30.1337 9.22 32.9333 9.22C33.5484 9.22 34.1634 9.2419 34.7766 9.2127C35.1708 9.19263 35.2803 9.33316 35.2749 9.71642C35.2639 10.441 35.2237 11.1692 35.4154 11.8864C35.9519 13.8866 37.7113 15.3157 39.7754 15.3996C40.4653 15.427 40.9398 15.0784 41.0073 14.4926C41.073 13.9195 40.6679 13.476 39.9816 13.372C37.912 13.0581 36.9265 11.6163 37.3061 9.49924C37.3828 9.07765 37.6657 9.2273 37.8755 9.2273C39.9013 9.21635 41.9271 9.22 43.9529 9.22C45.3181 9.22 46.685 9.23643 48.0502 9.21088C48.4681 9.20358 48.6068 9.31491 48.5904 9.74197C48.5685 10.2621 48.5867 10.7914 48.6543 11.3079C48.9517 13.5855 50.7786 15.2646 53.069 15.3978C53.8118 15.4398 54.2882 15.0912 54.3338 14.4707C54.3794 13.872 54.0035 13.476 53.2935 13.372C51.2769 13.0763 50.1599 11.4356 50.6253 9.47551C50.7202 9.074 51.014 9.23095 51.2239 9.23095C54.2279 9.22 57.232 9.22183 60.236 9.22548C60.8693 9.22548 61.7088 9.01195 62.0811 9.33133C62.5137 9.70364 62.2089 10.5687 62.2162 11.2184L62.2143 11.2148Z" fill="url(#paint0_radial_1231_931)" stroke="url(#paint1_radial_1231_931)" stroke-width="0.8"/>
<path d="M52.1289 43.4085C52.0778 43.998 51.6946 44.2973 51.0613 44.3411C49.0245 44.4816 47.2232 45.2007 45.6701 46.5348C44.8032 47.2794 44.0568 48.1335 43.3797 49.0515C43.2172 49.2705 43.0694 49.5115 42.8687 49.6867C42.4617 50.0444 41.9926 50.079 41.5638 49.7396C41.1422 49.4056 40.9925 48.9293 41.3046 48.4675C43.6297 45.0127 46.6082 42.5653 50.97 42.2989C51.6599 42.2569 52.1435 42.7022 52.1289 43.4085Z" fill="url(#paint2_radial_1231_931)" stroke="url(#paint3_radial_1231_931)" stroke-width="0.8"/>
<path d="M37.4811 46.1808C36.6617 46.1789 36.147 45.2774 36.6179 44.6058C38.0305 42.5927 39.6073 40.7166 41.509 39.1398C41.9671 38.7601 42.5511 38.8331 42.9161 39.2438C43.2939 39.6672 43.3121 40.2403 42.854 40.6436C41.1221 42.1675 39.642 43.9122 38.275 45.761C38.0743 46.0329 37.7841 46.1534 37.4811 46.1808Z" fill="url(#paint4_radial_1231_931)" stroke="url(#paint5_radial_1231_931)" stroke-width="0.8"/>
<path d="M35.0464 33.462C35.061 33.6336 34.9698 33.8416 34.8603 34.0424C33.747 36.1156 32.3271 37.9699 30.7758 39.7274C30.3141 40.2494 29.7283 40.2913 29.272 39.888C28.8212 39.4865 28.7938 38.9134 29.2537 38.3769C30.7047 36.6832 32.0716 34.933 33.121 32.9547C33.3802 32.4674 33.8145 32.2922 34.3292 32.4364C34.7873 32.5641 35.0373 32.9054 35.0464 33.4638V33.462Z" fill="url(#paint6_radial_1231_931)" stroke="url(#paint7_radial_1231_931)" stroke-width="0.8"/>
<path d="M37.4556 38.7053C36.8716 38.7053 36.5632 38.5137 36.3661 38.1359C36.1325 37.6888 36.2712 37.3019 36.5614 36.9405C37.671 35.5571 38.7806 34.1737 39.8903 32.7922C40.0472 32.5969 40.1841 32.3815 40.3666 32.2155C40.7882 31.8286 41.2682 31.7702 41.7226 32.1406C42.1716 32.5057 42.2902 33.0203 41.938 33.4748C40.6568 35.1264 39.3354 36.7489 38.0214 38.375C37.8462 38.5922 37.5944 38.7108 37.4575 38.7072L37.4556 38.7053Z" fill="url(#paint8_radial_1231_931)" stroke="url(#paint9_radial_1231_931)" stroke-width="0.8"/>
<path d="M28.783 31.0238C28.7921 32.4984 28.3414 33.8417 27.6077 35.0991C27.2445 35.7233 26.6459 35.9076 26.1185 35.5919C25.6074 35.2853 25.4724 34.7268 25.8246 34.1136C26.4999 32.9364 26.8175 31.6936 26.7079 30.3303C26.6495 29.5966 27.0638 29.1367 27.6898 29.1221C28.2957 29.1075 28.6899 29.509 28.7447 30.208C28.7666 30.4799 28.7702 30.7537 28.783 31.0256V31.0238Z" fill="url(#paint10_radial_1231_931)" stroke="url(#paint11_radial_1231_931)" stroke-width="0.8"/>
<defs>
<radialGradient id="paint0_radial_1231_931" cx="0" cy="0" r="1" gradientUnits="userSpaceOnUse" gradientTransform="translate(32.8335 36.6048) rotate(-90) scale(32.6944 63.9053)">
<stop stop-color="#E21118"/>
<stop offset="1" stop-color="#AE0F13"/>
</radialGradient>
<radialGradient id="paint1_radial_1231_931" cx="0" cy="0" r="1" gradientUnits="userSpaceOnUse" gradientTransform="translate(32.8335 36.6048) rotate(-90) scale(32.6944 63.9053)">
<stop stop-color="#E21118"/>
<stop offset="1" stop-color="#AE0F13"/>
</radialGradient>
<radialGradient id="paint2_radial_1231_931" cx="0" cy="0" r="1" gradientUnits="userSpaceOnUse" gradientTransform="translate(46.6337 46.2022) rotate(-90) scale(3.58678 11.1066)">
<stop stop-color="#E21118"/>
<stop offset="1" stop-color="#AE0F13"/>
</radialGradient>
<radialGradient id="paint3_radial_1231_931" cx="0" cy="0" r="1" gradientUnits="userSpaceOnUse" gradientTransform="translate(46.6337 46.2022) rotate(-90) scale(3.58678 11.1066)">
<stop stop-color="#E21118"/>
<stop offset="1" stop-color="#AE0F13"/>
</radialGradient>
<radialGradient id="paint4_radial_1231_931" cx="0" cy="0" r="1" gradientUnits="userSpaceOnUse" gradientTransform="translate(39.8186 42.5992) rotate(-90) scale(3.40444 6.83134)">
<stop stop-color="#E21118"/>
<stop offset="1" stop-color="#AE0F13"/>
</radialGradient>
<radialGradient id="paint5_radial_1231_931" cx="0" cy="0" r="1" gradientUnits="userSpaceOnUse" gradientTransform="translate(39.8186 42.5992) rotate(-90) scale(3.40444 6.83134)">
<stop stop-color="#E21118"/>
<stop offset="1" stop-color="#AE0F13"/>
</radialGradient>
<radialGradient id="paint6_radial_1231_931" cx="0" cy="0" r="1" gradientUnits="userSpaceOnUse" gradientTransform="translate(31.9846 36.3403) rotate(-90) scale(3.62973 6.19126)">
<stop stop-color="#E21118"/>
<stop offset="1" stop-color="#AE0F13"/>
</radialGradient>
<radialGradient id="paint7_radial_1231_931" cx="0" cy="0" r="1" gradientUnits="userSpaceOnUse" gradientTransform="translate(31.9846 36.3403) rotate(-90) scale(3.62973 6.19126)">
<stop stop-color="#E21118"/>
<stop offset="1" stop-color="#AE0F13"/>
</radialGradient>
<radialGradient id="paint8_radial_1231_931" cx="0" cy="0" r="1" gradientUnits="userSpaceOnUse" gradientTransform="translate(39.1959 35.3584) rotate(-90) scale(3.18322 5.95744)">
<stop stop-color="#E21118"/>
<stop offset="1" stop-color="#AE0F13"/>
</radialGradient>
<radialGradient id="paint9_radial_1231_931" cx="0" cy="0" r="1" gradientUnits="userSpaceOnUse" gradientTransform="translate(39.1959 35.3584) rotate(-90) scale(3.18322 5.95744)">
<stop stop-color="#E21118"/>
<stop offset="1" stop-color="#AE0F13"/>
</radialGradient>
<radialGradient id="paint10_radial_1231_931" cx="0" cy="0" r="1" gradientUnits="userSpaceOnUse" gradientTransform="translate(27.2056 32.4897) rotate(-90) scale(3.09272 3.18828)">
<stop stop-color="#E21118"/>
<stop offset="1" stop-color="#AE0F13"/>
</radialGradient>
<radialGradient id="paint11_radial_1231_931" cx="0" cy="0" r="1" gradientUnits="userSpaceOnUse" gradientTransform="translate(27.2056 32.4897) rotate(-90) scale(3.09272 3.18828)">
<stop stop-color="#E21118"/>
<stop offset="1" stop-color="#AE0F13"/>
</radialGradient>
</defs>
</svg>
