<svg width="26" height="25" viewBox="0 0 26 25" fill="none" xmlns="http://www.w3.org/2000/svg">
<g opacity="0.8">
<path d="M11.5511 10.0656L15.4355 12.4509L11.5511 14.8378V10.0656Z" fill="white"/>
<path d="M13.0403 0C10.5778 0 8.17054 0.730232 6.123 2.09835C4.07546 3.46648 2.4796 5.41104 1.53722 7.68614C0.594842 9.96125 0.348273 12.4647 0.828693 14.8799C1.30911 17.2952 2.49495 19.5137 4.23623 21.255C5.97752 22.9963 8.19606 24.1821 10.6113 24.6625C13.0265 25.143 15.53 24.8964 17.8051 23.954C20.0802 23.0116 22.0248 21.4158 23.3929 19.3682C24.761 17.3207 25.4912 14.9134 25.4912 12.4509C25.4912 9.14871 24.1795 5.98178 21.8445 3.64678C19.5095 1.31179 16.3425 0 13.0403 0ZM18.9742 15.4473C18.7252 16.2124 17.9011 16.6776 17.1426 16.7841C14.4154 17.0741 11.6652 17.0741 8.9381 16.7841C8.17958 16.6776 7.35553 16.2124 7.10651 15.4473C6.71825 13.4691 6.71825 11.4343 7.10651 9.45613C7.35553 8.68286 8.17958 8.22578 8.94466 8.11929C11.6718 7.82932 14.422 7.82932 17.1491 8.11929C17.9077 8.22578 18.7317 8.68941 18.9807 9.45613C19.3668 11.4347 19.3646 13.4695 18.9742 15.4473Z" fill="white"/>
</g>
</svg>
